<svg xmlns="http://www.w3.org/2000/svg" viewBox="0 0 47.1 23.39"><defs><style>.cls-1{fill:#032ea1;}.cls-2{fill:#e00025;}.cls-10,.cls-11,.cls-3,.cls-4,.cls-5,.cls-6,.cls-9{fill:#fff;}.cls-10,.cls-11,.cls-3,.cls-4,.cls-5,.cls-6,.cls-7,.cls-8,.cls-9{stroke:#000;}.cls-3,.cls-4,.cls-9{stroke-linejoin:bevel;}.cls-3,.cls-5,.cls-8{stroke-width:0.06px;}.cls-4{stroke-width:0.06px;}.cls-10,.cls-11,.cls-5,.cls-6,.cls-7,.cls-8{stroke-miterlimit:6.4;}.cls-6{stroke-width:0.06px;}.cls-7,.cls-8{fill:none;}.cls-7{stroke-width:0.05px;}.cls-9{stroke-width:0.06px;}.cls-10{stroke-width:0.06px;}.cls-11{stroke-width:0.06px;}</style></defs><g id="Layer_2" data-name="Layer 2"><g id="Layer_1-2" data-name="Layer 1"><path class="cls-1" d="M0,0H47.1V23.39H0Z"/><path class="cls-2" d="M0,5.85H47.1V17.54H0Z"/><path class="cls-3" d="M20.26,11h6.65v2.57H20.26Z"/><path class="cls-3" d="M26.57,12.38h.21v1h-.21Zm-6.31-.48h6.65v.3H20.26Zm0-.4h6.65v.26H20.26Z"/><path class="cls-4" d="M20.26,11.1h6.65v.25H20.26Z"/><path class="cls-3" d="M22,12.38h.21v1H22Zm2.86,0h.21v1h-.21Zm-4.56,0h.21v1h-.21Zm.41,0h.21v1h-.21Zm.44,0h.21v1h-.21Zm.44,0h.21v1H21.6Zm3.67,0h.21v1h-.21Zm.44,0h.21v1h-.21Zm.44,0h.21v1h-.21Z"/><path class="cls-5" d="M17.65,13.66a.51.51,0,0,0,.26-.31H29.2a.54.54,0,0,0,.26.31Z"/><path class="cls-5" d="M23.41,7.07s0-.24.13-.25.14.25.14.25Zm-.73,3.19V9.93c0-.16-.16-.17-.16-.29a.64.64,0,0,1,0-.26c.07.24.18.2.18.1s-.06-.17-.2-.37a.44.44,0,0,1,.05-.35c0,.18.05.27.12.27s.09,0,.09-.12-.08-.18-.12-.28a.3.3,0,0,1,.06-.31c0,.17,0,.24.1.24s0-.28,0-.33.05-.21.05-.21c.05.16.07.17.12.16s.06-.12,0-.2a.13.13,0,0,1,0-.19c.06.11.13.1.14,0L23,7.57h1L24,7.82c0,.07.08.08.14,0a.13.13,0,0,1,0,.19c-.08.08-.09.18,0,.2s.07,0,.12-.16a.26.26,0,0,1,.05.21s-.19.28,0,.33.06-.07.1-.24a.3.3,0,0,1,.06.31c0,.11-.12.16-.12.28s0,.12.09.12.1-.09.12-.27a.44.44,0,0,1,.05.35c-.14.2-.2.28-.2.37s.11.14.18-.1a.64.64,0,0,1,0,.26c0,.12-.16.13-.16.29v.33Zm.42-2.7,0-.18H24l0,.18Zm.07-.18,0-.15h.79l0,.15Zm.12-.16V7.07h.53v.15Zm1.93,6.44c-.12-.05-.29-.17-.29-.3V11.94l.16-.19H22l.15.19v1.42a.37.37,0,0,1-.24.3Z"/><path class="cls-3" d="M22.55,12.38h.21v1h-.21Zm1.77,0h.21v1h-.21Z"/><path class="cls-5" d="M22,10.13v1.62H25.1V10.13a.24.24,0,0,0-.15.17V11H22.11V10.3a.31.31,0,0,0-.16-.17Z"/><path class="cls-5" d="M24.68,13.66c-.11-.05-.33-.17-.33-.3V11.77c0-.09.14-.14.22-.19h-2.1c.1.05.21.09.25.19v1.59c0,.13-.17.25-.28.3Z"/><path class="cls-5" d="M25,11.59V10.45h-.29v-.11H22.4v.11h-.29v1.14Zm-.74,2.07c-.1-.05-.25-.17-.25-.3V12l.09-.13H23l.09.13v1.35c0,.13-.15.25-.25.3Z"/><path class="cls-6" d="M23.28,11.88h.52v1.78h-.52Z"/><path class="cls-3" d="M24.08,11.49c0-.11.34-.12.51-.22h-2.1c.18.1.51.11.51.22l.07.23.87,0Z"/><path class="cls-5" d="M24.49,10.26c0-.29,0-.4.1-.4v.91a.86.86,0,0,0-.37.35H22.86a.86.86,0,0,0-.37-.35V9.86c.11,0,.11.11.11.4Zm.1-.12a.35.35,0,0,1,.28-.37v.3c-.11,0-.16.09-.16.23s.09.15.09.15v.83h-.21Z"/><path class="cls-5" d="M22.49,10.14a.35.35,0,0,0-.28-.37v.3c.11,0,.16.09.16.23s-.09.15-.09.15v.83h.21Z"/><path class="cls-7" d="M23.05,7.87h1m-1.12.32h1.23m-1.35.38h1.46M22.69,9h1.73m-1.77.53h1.78"/><path class="cls-8" d="M22.11,11.28H25m-1.95,0h1.06v.39H23Z"/><path class="cls-5" d="M22.88,10.43a1.2,1.2,0,0,1,.16.77h1a1.2,1.2,0,0,1,.16-.77ZM23.45,8,23.31,8V7.74c.06,0,.12,0,.13.12,0-.13.06-.12.11-.17s.09,0,.11.17c0-.09.07-.1.13-.12V8L23.65,8Z"/><path class="cls-5" d="M23.44,8.36l-.23-.16V8c.08,0,.17,0,.18.12a.4.4,0,0,1,.16-.27.4.4,0,0,1,.16.27c0-.09.1-.1.18-.12V8.2l-.23.16Z"/><path class="cls-5" d="M23.43,8.88l-.27-.23V8.37c.09,0,.2,0,.21.18a.59.59,0,0,1,.18-.39.59.59,0,0,1,.18.39c0-.14.12-.15.21-.18v.28l-.26.23Zm.49.31-.24.33H23.4l-.24-.33ZM23,9.75c.12.06.16.19.17.44h.68c0-.25.06-.38.18-.44Z"/><path class="cls-3" d="M24.07,9.19V8.86a.3.3,0,0,0-.23.19.9.9,0,0,0-.3-.5.88.88,0,0,0-.3.5A.31.31,0,0,0,23,8.86v.33Z"/><path class="cls-3" d="M24.12,9.75V9.41a.34.34,0,0,0-.25.19.9.9,0,0,0-.33-.49c-.17.14-.34.37-.33.49A.34.34,0,0,0,23,9.41v.34Z"/><path class="cls-3" d="M24.26,10.43v-.38a.49.49,0,0,0-.3.22,1,1,0,0,0-.42-.63,1,1,0,0,0-.41.63.59.59,0,0,0-.31-.22v.38Z"/><path class="cls-3" d="M24.17,11.28v-.39a.44.44,0,0,0-.22.27,1.18,1.18,0,0,0-.41-.94,1.22,1.22,0,0,0-.41.94c0-.08-.08-.22-.22-.27v.39Z"/><path class="cls-5" d="M24.08,11.88v-.39c-.15,0-.16.08-.2.17a.72.72,0,0,0-.34-.62.77.77,0,0,0-.34.62c0-.09-.05-.14-.2-.17v.39Z"/><g id="a"><path class="cls-5" d="M17.91,13.35v-1.2a.49.49,0,0,0-.26-.31V10.79l.21.12.25,1.1v1.34Z"/><path class="cls-5" d="M17.91,13.35v-1.2a.49.49,0,0,0-.26-.31V10.71c.14,0,.21.2.21.2l.25,1.1v1.33Z"/><path class="cls-5" d="M17.76,13.66c.1-.05.24-.17.24-.3V11.87l-.07-.12h2.55l-.1.12v1.49a.36.36,0,0,0,.2.3Z"/><path class="cls-5" d="M20.07,13.66c-.1-.05-.25-.17-.25-.3V11.94l.21-.19H18.3l.21.19v1.42c0,.13-.14.25-.24.3Z"/><path class="cls-5" d="M19.83,13.66c-.1-.05-.25-.17-.25-.3V12.08l.14-.2h-1.1l.14.2v1.28c0,.13-.15.25-.25.3Z"/><path class="cls-5" d="M18.9,11.88h.53v1.78H18.9Z"/><path class="cls-3" d="M18.19,12.38h.21v1h-.21Zm1.8,0h.21v1H20Zm-2-1.63h.25v1H18Zm0-.18h.25v.18H18Z"/><path class="cls-9" d="M20.09,11h.36v.77h-.36Z"/><path class="cls-5" d="M18.26,11.73V10c.07,0,.08.25.25.25s.07-.1,0-.19a.35.35,0,0,1,0-.36c0,.14.18.19.16.1s-.16-.19-.07-.43c0,.2.16.19.13.08s-.11-.19,0-.38c.05.21.12.2.12.07s0-.41.25-.49c0,0,0-.18.1-.18s.11.18.11.18c.25.08.24.29.24.49s.07.14.12-.07c.09.19,0,.24,0,.38s.09.12.13-.08c.09.24,0,.27-.08.43s.11,0,.16-.1a.38.38,0,0,1,0,.36c0,.09-.06.19,0,.19S20,10,20.1,10v1.69Zm-.4-1.28v1.3H18v-1.3a.14.14,0,0,0-.15,0Z"/><path class="cls-5" d="M17.87,11.29a.64.64,0,0,1,.41.46h-.41Zm2.52-.39v.85h.12V10.9A.13.13,0,0,0,20.39,10.9Z"/><path class="cls-5" d="M20.51,11.28a.66.66,0,0,0-.41.46h.41Z"/><path class="cls-5" d="M19.31,9.32l.1-.09V9.11a.12.12,0,0,0-.08.06A.28.28,0,0,0,19.18,9a.24.24,0,0,0-.15.16.16.16,0,0,0-.09-.05v.12l.1.09Z"/><path class="cls-5" d="M19.37,9.6l0-.1V9.35a.08.08,0,0,0-.08.05.35.35,0,0,0-.15-.17A.25.25,0,0,0,19,9.4a.1.1,0,0,0-.09-.05V9.5l0,.1Z"/><path class="cls-5" d="M19.37,10l.16-.19V9.61c-.06,0-.09,0-.13.09,0-.13-.12-.16-.22-.22S19,9.57,19,9.7c0-.07-.07-.09-.13-.09V9.8L19,10Z"/><path class="cls-5" d="M19.42,10.37s.18-.16.19-.25v-.2a.26.26,0,0,0-.19.11c0-.17-.11-.21-.24-.3-.14.09-.21.13-.25.3a.24.24,0,0,0-.19-.11v.2a.83.83,0,0,0,.19.25Z"/><path class="cls-5" d="M19.5,11.07s.25-.27.25-.38v-.32a.35.35,0,0,0-.25.21.89.89,0,0,0-.32-.57.86.86,0,0,0-.33.57.35.35,0,0,0-.25-.21v.32a1.52,1.52,0,0,0,.26.38Z"/><path class="cls-5" d="M19.5,11.49a2,2,0,0,0,.25-.31v-.32a.35.35,0,0,0-.25.21.84.84,0,0,0-.32-.54.81.81,0,0,0-.33.54.35.35,0,0,0-.25-.21v.32a2.7,2.7,0,0,0,.26.31Z"/><path class="cls-5" d="M19.58,11.73a.93.93,0,0,0-.41-.68.91.91,0,0,0-.42.68Z"/><path class="cls-5" d="M19.74,11.88v-.39a.58.58,0,0,0-.31.22.88.88,0,0,0-.27-.45.94.94,0,0,0-.26.45.52.52,0,0,0-.3-.22v.39Z"/></g><g id="a-2" data-name="a"><path class="cls-5" d="M29.19,13.35v-1.2a.47.47,0,0,1,.27-.31V10.79l-.22.12L29,12v1.34Z"/><path class="cls-5" d="M29.19,13.35v-1.2a.47.47,0,0,1,.27-.31V10.71c-.15,0-.22.2-.22.2L29,12v1.33Z"/><path class="cls-5" d="M29.35,13.66c-.11-.05-.25-.17-.25-.3V11.87l.07-.12H26.62l.1.12v1.49a.36.36,0,0,1-.2.3Z"/><path class="cls-5" d="M27,13.66c.1-.05.25-.17.25-.3V11.94l-.21-.19H28.8l-.21.19v1.42c0,.13.15.25.25.3Z"/><path class="cls-5" d="M27.28,13.66c.1-.05.24-.17.24-.3V12.08l-.14-.2h1.1l-.13.2v1.28c0,.13.14.25.24.3Z"/><path class="cls-5" d="M28.2,11.88h-.53v1.78h.53Z"/><path class="cls-3" d="M28.91,12.38H28.7v1h.21Zm-1.8,0H26.9v1h.21Zm2-1.63h-.25v1h.25Zm0-.18h-.25v.18h.25Z"/><path class="cls-9" d="M27,11h-.36v.77H27Z"/><path class="cls-5" d="M28.84,11.73V10c-.07,0-.08.25-.25.25s-.07-.1,0-.19a.38.38,0,0,0,0-.36c-.05.14-.18.19-.16.1s.16-.19.07-.43c0,.2-.16.19-.13.08s.11-.19,0-.38c-.05.21-.12.2-.12.07s0-.41-.24-.49c0,0,0-.18-.11-.18s-.11.18-.11.18c-.25.08-.24.29-.24.49s-.07.14-.12-.07c-.09.19,0,.24,0,.38s-.1.12-.13-.08c-.09.24,0,.27.07.43s-.11,0-.16-.1a.35.35,0,0,0,0,.36c0,.09,0,.19,0,.19S27.07,10,27,10v1.69Zm.4-1.28v1.3h-.15v-1.3a.14.14,0,0,1,.15,0Z"/><path class="cls-5" d="M29.23,11.29a.61.61,0,0,0-.4.46h.4Zm-2.52-.39v.85h-.12V10.9A.13.13,0,0,1,26.71,10.9Z"/><path class="cls-5" d="M26.59,11.28a.66.66,0,0,1,.41.46h-.41Z"/><path class="cls-5" d="M27.79,9.32l-.1-.09V9.11a.13.13,0,0,1,.09.06A.23.23,0,0,1,27.93,9a.29.29,0,0,1,.15.16.14.14,0,0,1,.08-.05v.12l-.1.09Z"/><path class="cls-5" d="M27.74,9.6l0-.1V9.35a.1.1,0,0,1,.09.05.28.28,0,0,1,.15-.17.31.31,0,0,1,.15.17.08.08,0,0,1,.08-.05V9.5l-.05.1Z"/><path class="cls-5" d="M27.73,10l-.16-.19V9.61c.06,0,.09,0,.13.09,0-.13.12-.16.23-.22s.18.09.22.22c0-.07.07-.09.13-.09V9.8l-.16.19Z"/><path class="cls-5" d="M27.68,10.37s-.18-.16-.19-.25v-.2a.24.24,0,0,1,.19.11c0-.17.11-.21.25-.3.13.09.2.13.24.3a.24.24,0,0,1,.19-.11v.2a.83.83,0,0,1-.19.25Z"/><path class="cls-5" d="M27.6,11.07s-.25-.27-.25-.38v-.32a.35.35,0,0,1,.25.21.86.86,0,0,1,.33-.57.89.89,0,0,1,.32.57.35.35,0,0,1,.25-.21v.32c0,.11-.25.38-.25.38Z"/><path class="cls-5" d="M27.6,11.49a2,2,0,0,1-.25-.31v-.32a.35.35,0,0,1,.25.21.81.81,0,0,1,.33-.54.84.84,0,0,1,.32.54.35.35,0,0,1,.25-.21v.32a2.9,2.9,0,0,1-.25.31Z"/><path class="cls-5" d="M27.52,11.73a.91.91,0,0,1,.42-.68,1,1,0,0,1,.42.68Z"/><path class="cls-5" d="M27.36,11.88v-.39a.58.58,0,0,1,.31.22.88.88,0,0,1,.27-.45.87.87,0,0,1,.26.45.55.55,0,0,1,.3-.22v.39Z"/></g><path class="cls-5" d="M17.35,13.64V14h12.4v-.37Zm-.22.37v.47H30V14ZM30,14.48H16.75v.62h13.6v-.62Zm-13.59.62v.74H30.72V15.1Zm14.34.74H16v.73H31.1v-.73Z"/><path class="cls-10" d="M18.7,13.65h.94v2.92H18.7Z"/><path class="cls-11" d="M18.91,13.65h.52v2.92h-.52Z"/><path class="cls-10" d="M23.07,13.65H24v2.92h-.93Z"/><path class="cls-11" d="M23.28,13.65h.52v2.92h-.52Z"/><path class="cls-10" d="M27.46,13.65h.93v2.92h-.93Z"/><path class="cls-11" d="M27.67,13.65h.52v2.92h-.52Z"/><path class="cls-8" d="M17.91,13.35H29.2M18.9,16.2h.54m-.54-.37h.54m-.54-.36h.54m-.54-.37h.54m-.54-.36h.54m-.54-.37h.54M18.9,14h.54m3.84,2.19h.51m-.51-.37h.51m-.51-.36h.51m-.51-.37h.51m-.51-.36h.51m-.51-.37h.51M23.28,14h.51m3.87,2.19h.54m-.54-.37h.54m-.54-.36h.54m-.54-.37h.54m-.54-.36h.54m-.54-.37h.54M27.66,14h.54"/></g></g></svg>