<svg xmlns="http://www.w3.org/2000/svg" xmlns:xlink="http://www.w3.org/1999/xlink" viewBox="0 0 16 16"><path d="M1.5 3C0.675781 3 0 3.675781 0 4.5L0 10.5C0 11.324219 0.675781 12 1.5 12L13.5 12C14.324219 12 15 11.324219 15 10.5L15 4.5C15 3.675781 14.324219 3 13.5 3 Z M 1.5 4L13.5 4C13.78125 4 14 4.21875 14 4.5L14 10.5C14 10.78125 13.78125 11 13.5 11L1.5 11C1.21875 11 1 10.78125 1 10.5L1 4.5C1 4.21875 1.21875 4 1.5 4 Z M 2 5L2 6L3 6L3 5 Z M 4 5L4 6L5 6L5 5 Z M 6 5L6 6L7 6L7 5 Z M 8 5L8 6L9 6L9 5 Z M 10 5L10 6L11 6L11 5 Z M 12 5L12 6L13 6L13 5 Z M 2 7L2 8L3 8L3 7 Z M 4 7L4 8L5 8L5 7 Z M 6 7L6 8L7 8L7 7 Z M 8 7L8 8L9 8L9 7 Z M 10 7L10 8L11 8L11 7 Z M 12 7L12 8L13 8L13 7 Z M 5 9L5 10L10 10L10 9 Z M 2 9.007813L2 10.011719L4 10.011719L4 9.007813 Z M 11.015625 9.007813L11.015625 10.011719L13.015625 10.011719L13.015625 9.007813Z"/></svg>