<svg xmlns="http://www.w3.org/2000/svg" viewBox="0 0 299.98 91.67"><defs><style>.cls-1{fill:#ff0013;}.cls-2{fill:#fff;}</style></defs><g id="Layer_2" data-name="Layer 2"><g id="Layer_1-2" data-name="Layer 1"><circle class="cls-1" cx="45.51" cy="45.51" r="45.51"/><path class="cls-2" d="M43.75,71.27h1.42v5.12h2.52V77.6H43.75Z"/><path class="cls-2" d="M51.22,77.71A2.76,2.76,0,0,1,49,76.78a3.74,3.74,0,0,1,0-4.67,2.91,2.91,0,0,1,2.24-.94,2.85,2.85,0,0,1,2.23.94,3.33,3.33,0,0,1,.78,2.27,3.44,3.44,0,0,1-.86,2.46,3.06,3.06,0,0,1-2.25.87Zm.08-1.15A1.3,1.3,0,0,0,52.43,76a2.75,2.75,0,0,0,.4-1.54,2.81,2.81,0,0,0-.38-1.49,1.31,1.31,0,0,0-1.13-.62,1.35,1.35,0,0,0-1.15.62,2.75,2.75,0,0,0-.4,1.52,2.71,2.71,0,0,0,.4,1.51,1.3,1.3,0,0,0,1.13.61Z"/><path class="cls-2" d="M56.5,72.47H54.79V71.26h4.86v1.21H57.92v5.12H56.5Z"/><path class="cls-2" d="M61.65,72.47H59.94V71.26H64.8v1.21H63.08v5.12H61.65V72.47Z"/><path class="cls-2" d="M68.24,77.71a2.76,2.76,0,0,1-2.18-.93,3.74,3.74,0,0,1,0-4.67,2.91,2.91,0,0,1,2.24-.94,2.85,2.85,0,0,1,2.23.94,3.33,3.33,0,0,1,.78,2.27,3.44,3.44,0,0,1-.86,2.46,3,3,0,0,1-2.25.87Zm.08-1.15A1.31,1.31,0,0,0,69.45,76a2.75,2.75,0,0,0,.4-1.54,2.81,2.81,0,0,0-.38-1.49,1.31,1.31,0,0,0-1.13-.62,1.35,1.35,0,0,0-1.15.62,2.75,2.75,0,0,0-.4,1.52,2.71,2.71,0,0,0,.4,1.51,1.31,1.31,0,0,0,1.13.61Z"/><path class="cls-2" d="M9.76,41c-.17,0-.3,0-.32-.13s.12-.21.23-.27c.86-.52,1.73-1,2.63-1.41a64.38,64.38,0,0,1,13.5-4.39c4.28-.94,8.63-1.66,12.88-2.76a109.67,109.67,0,0,0,17.69-6c2.69-1.22,5.27-2.63,8-3.79A11,11,0,0,1,67,21.42c1.27-.2,2,.13,2.21,1.36a8.45,8.45,0,0,0,.92,2.33A5.76,5.76,0,0,0,73.88,28c.3.08.78.08.79.49s-.43.48-.72.61a44.28,44.28,0,0,1-7.81,2.3,150.69,150.69,0,0,1-20.18,3c-6,.49-12,1-17.88,1.92A78.89,78.89,0,0,0,12.48,40c-.67.24-1.31.55-2,.81C10.25,40.89,10,41,9.76,41Z"/><path class="cls-2" d="M23,75.8a1.41,1.41,0,0,1-1.6-1.22,8.57,8.57,0,0,0-2.05-3.92,5.81,5.81,0,0,0-2.62-1.48c-.32-.09-.82-.09-.84-.51s.48-.49.8-.61a45.24,45.24,0,0,1,7.4-2.19,148.58,148.58,0,0,1,18.9-3c3.68-.35,7.37-.58,11-1,7.39-.82,14.76-1.77,21.9-3.94A34.3,34.3,0,0,0,80,56.41a2.82,2.82,0,0,1,.81-.25c.09,0,.18,0,.23.08s0,.17-.09.23l-.49.31a53.36,53.36,0,0,1-12.19,4.69c-4.08,1.12-8.27,1.76-12.4,2.68a107.72,107.72,0,0,0-26.24,9.11,31.47,31.47,0,0,1-5.12,2.23A5.1,5.1,0,0,1,23,75.8Z"/><path class="cls-2" d="M15.79,60.14,13.42,44.47,16.86,44l.65,6.48c.14,1.35.31,3.2.49,5.55h.05q.39-2,1.28-5.87L21,43.34l3.43-.52.72,6.63c.17,1.62.3,3.4.41,5.31h0c.12-.67.52-2.59,1.17-5.77l1.58-6.77,3.27-.49L26.89,58.46,23.4,59l-.76-6.78c-.2-1.86-.33-3.48-.36-4.89h0c-.41,2.1-.8,3.81-1.15,5.14L19.3,59.59Z"/><path class="cls-2" d="M36.47,41l-1,16.17-3.22.49,1-16.17Z"/><path class="cls-2" d="M38.25,56.75l1-16.18L43,40l2.58,5.49a42.49,42.49,0,0,1,2,5.2h0c0-1.87,0-4.11.17-6.73l.29-4.69,3-.45L50.05,55l-3.38.51L44,49.7a46.91,46.91,0,0,1-2.11-5.36l-.09,0c0,2-.13,4.36-.29,7l-.31,4.88Z"/><path class="cls-2" d="M64.75,52a15.25,15.25,0,0,1-4.82,1.62c-2.52.38-4.42,0-5.66-1.28s-1.79-3.14-1.63-5.6a10.5,10.5,0,0,1,2.7-6.59,9.8,9.8,0,0,1,5.95-3.09,8,8,0,0,1,3.9.18l-.85,3.06a6.55,6.55,0,0,0-3.26-.2,5.66,5.66,0,0,0-3.44,1.81A6.61,6.61,0,0,0,56,46.07a4.84,4.84,0,0,0,1,3.73,3.35,3.35,0,0,0,3.15.89,4.86,4.86,0,0,0,1.58-.44L62,46.84l-2.2.33L60,44.31l5.31-.79Z"/><path class="cls-2" d="M73.23,51.73a4.78,4.78,0,0,1-4.77-1.65,7.82,7.82,0,0,1-1.4-5.58,11.29,11.29,0,0,1,2.28-6.35A7.91,7.91,0,0,1,74.52,35a4.83,4.83,0,0,1,4.86,1.65,7.78,7.78,0,0,1,1.38,5.51,11.29,11.29,0,0,1-2.33,6.56,8,8,0,0,1-5.18,3Zm.36-2.92a3.76,3.76,0,0,0,2.63-1.94,8.82,8.82,0,0,0,1.13-4.07,6.62,6.62,0,0,0-.64-3.67,2.23,2.23,0,0,0-2.44-1.22,3.78,3.78,0,0,0-2.67,2,9,9,0,0,0-1.15,4,6.48,6.48,0,0,0,.67,3.72,2.31,2.31,0,0,0,2.44,1.19Z"/><path class="cls-2" d="M18.6,24.36a.92.92,0,0,1,.72.38,2.06,2.06,0,0,1,.23,1.09,1.43,1.43,0,0,1-.34,1.08,1.23,1.23,0,0,1-.95.34,1.27,1.27,0,0,1-1-.34A1.57,1.57,0,0,1,17,25.83V20.26a1.37,1.37,0,0,0-.64-1v-.57c0-.64.39-1,1.2-1h1.33V19H17.79v.08a1.44,1.44,0,0,1,.76,1.19v4.1Zm-.06,1.18a.3.3,0,0,0-.26-.1v.72a.3.3,0,0,0,.26-.09.49.49,0,0,0,.06-.27A.59.59,0,0,0,18.54,25.54Z"/><path class="cls-2" d="M28,28H29v1H28v.38h.4a.83.83,0,0,1,.65.23,1,1,0,0,1,.22.67.9.9,0,0,1-.23.68,1.22,1.22,0,0,1-.8.21c-.93,0-1.39-.25-1.39-.73v-.1h-3c-.64,0-.94-.39-.94-1.17s.32-1.18,1-1.18h3v-.44H28V28Zm-1.15,1H24.38c-.21,0-.32.06-.32.18s.11.18.32.18h2.49Zm1.32,1.42a.34.34,0,0,0,.21-.05.1.1,0,0,0,.06-.09.11.11,0,0,0-.07-.09l-.22-.05H28C28,30.37,28.06,30.46,28.19,30.46Z"/><path class="cls-2" d="M43.46,17.71V19H36.6V17.71Zm-6.91,5.06c0-2.13,1.19-3.15,3.49-3.15s3.44,1.05,3.44,3.18v4.45H41.87V22.8A1.66,1.66,0,0,0,40,20.89a1.67,1.67,0,0,0-1.85,1.91v1.56a.91.91,0,0,1,.72.38,2.06,2.06,0,0,1,.23,1.09,1.5,1.5,0,0,1-.34,1,1.1,1.1,0,0,1-.94.4,1.2,1.2,0,0,1-1-.37,1.5,1.5,0,0,1-.34-1.05V22.77Zm1.32,3.39a.31.31,0,0,0,.26-.09.49.49,0,0,0,.06-.27.51.51,0,0,0-.06-.28.31.31,0,0,0-.26-.09Z"/><path class="cls-2" d="M30.14,17.71H23c-1,0-1.53.43-1.53,1.27v.26a1.87,1.87,0,0,1,.32,1v4c-.46.06-.82.71-.82,1.49s.36,1.43.82,1.49h1.59V25.92c0-.38.11-.57.3-.57s.29.22.29.65c0,.84.84,1.26,2.53,1.26,1.44,0,2.16-.64,2.16-1.91v-4a1.07,1.07,0,0,0-1.27-1.1,1.28,1.28,0,0,0-1.05.33,1.16,1.16,0,0,0-.28.77,1.09,1.09,0,0,0,.23.7,1,1,0,0,0,.8.38v2.88c0,.43-.26.64-.77.64s-.76-.21-.76-.64c0-.84-.51-1.27-1.5-1.27h-.68V20.25A2.06,2.06,0,0,0,23,19.1q0-.12.39-.12h6.72c1.1,0,1.65.41,1.65,1.27v7h1.59v-7C33.38,18.55,32.3,17.71,30.14,17.71ZM22,26.16a.29.29,0,0,1-.26.1v-.74c.14,0,.22,0,.26.09a.45.45,0,0,1,.07.28A.41.41,0,0,1,22,26.16Zm5.16-4.95c0-.05.09-.06.2-.06h0v.43a.23.23,0,0,1-.21-.08.2.2,0,0,1-.05-.14A.25.25,0,0,1,27.18,21.21Z"/><path class="cls-1" d="M110.59,38a10.2,10.2,0,0,0-.9,3.84,8.46,8.46,0,0,0,.37,3.29,2.9,2.9,0,0,0,1.25,1.63,1.17,1.17,0,0,0,1.41-.15,1.38,1.38,0,0,0,.21-1.67,2.75,2.75,0,0,0-2.16-1.56L112.53,39c2.19,0,3.29,1.82,3.29,5.41Q115,51.94,109.6,52q-5.88-1-5.94-9.15a10,10,0,0,1,.72-4,10.42,10.42,0,0,1,2.39-3.29q-3.21-1.08-3.09-5.94c.4-3.92,1.64-5.88,3.7-5.9h6.76c.27,0,.41.21.41.63v5.19h-6.89c.24,1.46,2.42,2.91,6.52,4.35A13.68,13.68,0,0,0,110.59,38Z"/><path class="cls-1" d="M126.55,47.18a10.49,10.49,0,0,1-.46,3.44c-.29.75-1.31,1.19-3.06,1.33q-2.86-.41-3-3.72c-1.34-.08-2.22-1.41-2.62-4,.66-1.52,1.59-2.29,2.79-2.3V38.76c.09-1.15,1-2.23,2.72-3.26q-3.63-1.08-3.69-5.13c0-4.46,1.56-6.69,4.7-6.71h17.48a.73.73,0,0,1,.48.13.41.41,0,0,1,.12.3v5.39h-18.6q0,2.19,6.12,4.35-2.91,1.86-2.91,4.12v4.12h.83a5.87,5.87,0,0,1,2.58.69,12.3,12.3,0,0,1,3.22,2.74q2.64-.22,2.58-6c0-2.26-.15-3.61-.48-4.06s-.62-.46-.84,0,.06,1.44.86,3l-2.17,2.89c-2.12-.62-3.1-2.33-2.92-5.13a5,5,0,0,1,1.45-2.82,5.76,5.76,0,0,1,3-1.4,6.67,6.67,0,0,1,5.45,2.28,9.19,9.19,0,0,1,1.66,3.82,17.53,17.53,0,0,1-.48,8.16c-1.49,3.84-4.31,5.73-8.49,5.68a13.34,13.34,0,0,0-2.42-3.62A3.56,3.56,0,0,0,128,47.18ZM142,26.57a10.13,10.13,0,0,0,2-2.91h8.43c2.44,0,3.67,1.41,3.69,4.19V46.13c0,.67.46,1,1.38.85q0,4.85-4,5-3.79-.21-3.8-4.08V29.48H142Z"/><path class="cls-1" d="M135.36,55.64v-.56c0-1,.92-1.5,2.76-1.52h2.59l1.39.77-.38.75v.56h.75c.36,0,.68.27.95.79a3.31,3.31,0,0,1-.41,3.24,1,1,0,0,0-.72-.41h-.57V61h1.33v3.59L142.18,66c-.44,1.2-1.48,1.8-3.13,1.8-2.46,0-3.69-.67-3.69-2V64.55a8.77,8.77,0,0,1-6.49,3.07q-8.45,0-8.44-5.69V57.34c0-1.4.43-2.13,1.33-2.2a2.57,2.57,0,0,0,1.66.5ZM127,61.75q.92,3,5.86-.81l2.51,0V59.2H127Z"/><path class="cls-1" d="M167.52,29.48q0,2.55,3.09,2.31a27.26,27.26,0,0,1,7.39-.21,17.06,17.06,0,0,1,6.49,2.19V46.23c0,.9.54,1.22,1.61,1Q186.1,52,182,52t-4.08-3.68V36A3.28,3.28,0,0,0,175,34.86a5.23,5.23,0,0,0-3.88,1.73,8.82,8.82,0,0,0-2.2,4.32,6,6,0,0,0,.22,4,4.33,4.33,0,0,0,1.55,1.83c.52.26.92.25,1.21,0a1.93,1.93,0,0,0,.21-1.68c-.14-.82-.8-1.38-2-1.66l2-4.34c2.2,0,3.3,1.82,3.3,5.41q-1.27,7.51-6.15,7.52h-.48q-6.48-1-6.54-9.15a11.82,11.82,0,0,1,3.93-8.51c-2.62-.42-3.93-2.15-3.93-5.21q2.63-5.41,3.93-5.42h17.72c.34,0,.51.15.51.43v5q0,.42-.51.42Z"/><path class="cls-1" d="M195.19,23.66v-1c0-.41-.22-.61-.68-.61V20.88a1,1,0,0,1,1.15-1.19h2c1.17,0,1.76.68,1.76,2.06v7.13h0a.81.81,0,0,1-.89.6h-2.79q4,3.9,4,12.65,0,9.85-4.12,9.82a4.4,4.4,0,0,1-3.75-1.62q-1.22-1.62-1.22-5.47l3.43-3c.54,2.54,1.18,3.82,1.92,3.82s1.11-.5,1.11-1.54q0-3-4.82-9.66-2.26-2.88-.65-7.05c.73-2.49,1.53-3.74,2.42-3.74Z"/><path class="cls-1" d="M200.16,14.8q.1-2.36-1-2.73c.26-1.86,1.06-2.64,2.39-2.34q3.34,1,.71,6.7c-.19.35-.4.68-.61,1l-1,2.2-14.14,0q-3.53,0-3.64-4.2.73-5.82,7.64-5.82a11.76,11.76,0,0,1,7,2.43A19.38,19.38,0,0,1,200.16,14.8Zm-3.73,1.57A6.49,6.49,0,0,0,191.64,14c-2,0-3,.81-2.93,2.42Z"/><path class="cls-1" d="M205.7,39.83h7v2.72c1.59,2.5,3.41,3.94,5.46,4.35s3.08-.2,3.07-1.82-2.6-3.65-7.78-6.31-7.76-5.68-7.72-9q0-6.07,5.58-6.07H226c1.28.07,1.92.68,1.92,1.82V33q0,4.56-4.48,4.56A17.61,17.61,0,0,1,219.88,34q1.29,0,1.29-1.62V30.13h-8.4q0,3.73,7.5,6.92t7.49,8.64q0,6.26-6.46,6.26a12.49,12.49,0,0,1-8.87-3.84v2.22c0,1.08-1.09,1.62-3.28,1.62s-3.45-.54-3.45-1.62Z"/><path class="cls-1" d="M240.89,38a10.2,10.2,0,0,0-.9,3.84,8.44,8.44,0,0,0,.38,3.29,2.89,2.89,0,0,0,1.24,1.63,1.17,1.17,0,0,0,1.41-.15c.43-.36.5-.92.22-1.67a2.79,2.79,0,0,0-2.17-1.56L242.83,39c2.2,0,3.29,1.82,3.29,5.41q-.87,7.51-6.22,7.52-5.88-1-5.94-9.15a10,10,0,0,1,.72-4,10.74,10.74,0,0,1,2.39-3.29q-3.21-1.08-3.09-5.94c.41-3.92,1.64-5.88,3.7-5.9h6.77c.27,0,.4.21.4.63v5.19H238q.36,2.19,6.53,4.35A13.6,13.6,0,0,0,240.89,38Z"/><path class="cls-1" d="M280.77,23.66c2.44,0,3.67,1.41,3.7,4.19V46.13c0,.67.46,1,1.37.85q0,4.85-4,5c-2.69-.14-4-1.5-4-4.08V29.48h-5.51V46.13c0,.67.45,1,1.37.85q0,4.85-4,5c-2.42-.14-3.64-1.23-3.64-3.28A8.21,8.21,0,0,1,259.24,52a8.87,8.87,0,0,1-6.58-2.55c-1.69-1.7-2.53-4.11-2.52-7.25a9.14,9.14,0,0,1,3.09-6.65q-3.21-1.08-3.09-5.94c.41-3.92,1.64-5.88,3.7-5.9h6.77c.27,0,.4.21.4.63v5.19h-6.89c.25,1.46,2.35,2.91,6.33,4.35a10.06,10.06,0,0,0-3.53,6c-.27,2,0,3.52.86,4.4a5.65,5.65,0,0,0,3.31,1.64,5.13,5.13,0,0,0,3.31-.4,2.64,2.64,0,0,0,1.34-2.36V24.49c.12-.55.57-.83,1.35-.83Zm3.7,2.91a10.13,10.13,0,0,0,2-2.91h8.42c2.44,0,3.67,1.41,3.7,4.19V46.13c0,.67.46,1,1.37.85,0,3.23-1.32,4.89-4,5q-3.79-.21-3.8-4.08V29.48h-7.73Z"/><path class="cls-1" d="M271.23,53.83a26,26,0,0,1,6.77,0,20.53,20.53,0,0,1,6.08,1.75v8.59c0,.62.54.84,1.62.65q0,3.29-4.14,3.29t-4.08-3.33V57.93a3.42,3.42,0,0,0-2.45-.79,7.58,7.58,0,0,0-3.67.8,4.16,4.16,0,0,0-2,2.56,2.89,2.89,0,0,0,.22,2.75,4.5,4.5,0,0,0,1.34,1.26c.39.19.42,0,.1-.52a3.39,3.39,0,0,1-.37-2A2.75,2.75,0,0,1,272,59.91q1.84-1.15,4.81.4-.74,3.52-2.34,2.77c-1.35-.08-1.57.67-.65,2.24q0,2.79-4.59,2.79c-4,0-6.16-2.16-6.34-6.3q0-3.18,3.27-5.88A13.52,13.52,0,0,1,271.23,53.83Z"/><path class="cls-1" d="M111.72,78l.3.1a2.54,2.54,0,0,0,1,.8,3.15,3.15,0,0,0,1.79.43h.62c.3.09.39.42.28,1l-.63,3.59a.94.94,0,0,1-.16.45.37.37,0,0,1-.31.15,1.71,1.71,0,0,1-.43-.33l-.23-.27-.21-.47c.23,0,.37,0,.42-.13l.54-3.1-.69-.16a3.6,3.6,0,0,1-1.19-.37,5.09,5.09,0,0,1-1-.58l-.36-.21-.8,3a2.37,2.37,0,0,1,.6.62,1.15,1.15,0,0,1,.06.92l-.11.24a1.6,1.6,0,0,1-.58.58l-.32.2-.45.15a1,1,0,0,1-.49,0,.76.76,0,0,1-.29-.3l-.08-.18a1.21,1.21,0,0,1,0-.27l.28-1.7a2.18,2.18,0,0,0-1.16-.13l-.93.21a2.21,2.21,0,0,1,2.25-.87l.21-1,.38-.45a4.63,4.63,0,0,1,.65-1.72.8.8,0,0,1,.79-.23l-.85-.52a2.84,2.84,0,0,0-.39-.28c-.13-.11-.22-.12-.27,0l-.19.18c-.12.09-.17.17-.16.25a.64.64,0,0,0,.08.2l.15.23.33.11-.1.35a.55.55,0,0,1-.32.37.62.62,0,0,1-.5-.18l-.15-.13a1.5,1.5,0,0,1-.27-.9l0-.17a1.12,1.12,0,0,1,.38-.72,3,3,0,0,1,.3-.32l.32-.35a1.15,1.15,0,0,1,.77.31c.16.15.4.36.74.64a1.27,1.27,0,0,0,1,.18,4.08,4.08,0,0,0,.88-.67,2.11,2.11,0,0,1,.67-.4.73.73,0,0,1,.64.06,3.93,3.93,0,0,1,.66.3,4.3,4.3,0,0,1,.65.58,3.77,3.77,0,0,1,.49.93c.08.33,0,.53-.13.61a.81.81,0,0,1-.3-.27c-.13-.16-.34-.39-.62-.69a1.62,1.62,0,0,0-.4-.33,2.82,2.82,0,0,1-.38-.21.58.58,0,0,0-.67,0l-.82.65C112.82,77.92,112.41,78,111.72,78Zm-1.37,4.77L110,83.94l-.06.21q.3-.39.51-.69l.07-.17C110.63,83.11,110.58,82.94,110.35,82.79ZM111.72,78c.34,0,.26,0-.23,0Z"/><path class="cls-1" d="M125.15,78.4h0l-.48-.43-.49-.51a1.24,1.24,0,0,1-.08-1.14c.38-.76,1-.91,1.78-.45q.45.42,1,1c.21.25.64.3,1.29.14-.22.88-.79,1-1.7.46-.45-.36-.81-.62-1.08-.8s-.41-.08-.41.27a3,3,0,0,0,.61.69c.33-.58.52-.34.57.73q1,1.41,0,.75l-1,5c-.29.47-.77.55-1.45.23a3.24,3.24,0,0,0-1.91,0l-.85.16-.47.08-.44,0-.45,0a1.21,1.21,0,0,1-.63-.49,2.48,2.48,0,0,1-.22-1.31c.08-.71.18-1.3.28-1.79a15.35,15.35,0,0,1,.88-2.53l-.22-.24-.41-.57a1.88,1.88,0,0,1-.12-1,1,1,0,0,1,1.54-.65,3.62,3.62,0,0,1,1.08,1q2,2.3.56,1.25a11.22,11.22,0,0,0-1.88-1.2c-.27-.11-.4,0-.38.26l.4.6c.67-.79.85-.48.57.92q.78,1.26-.3.42a10.72,10.72,0,0,0-.9,3.58c0,.41.33.59,1,.55a12.77,12.77,0,0,1,2-.19,1.89,1.89,0,0,1,1,.2c.15.09.25,0,.31-.34Zm1.58,4.14q2.36,1.89-.31.65l-3.72-2.38c-.48-.75-.2-.92.84-.49Zm-.93-5.48c.17-.2.22-.2.15,0s.32.25,1.17.19a2.25,2.25,0,0,0,.56-.24,2.76,2.76,0,0,0,.49-.46,1.8,1.8,0,0,0,.33-.67,1.37,1.37,0,0,1,.61-.17,1.56,1.56,0,0,1,.7.21,4.49,4.49,0,0,0,.74.67,4.49,4.49,0,0,1,.85.83,1.26,1.26,0,0,1,.29.72,4.28,4.28,0,0,1-.1.79l-.92,4.72-.09.42a.64.64,0,0,1-.91.38c-.28-.1-.56-.5-.84-1.19.43.17.7.17.8,0l.88-4.29a4,4,0,0,0,.1-.73c0-.14-.26-.43-.77-.86a3.36,3.36,0,0,0-.71-.59,2,2,0,0,0-.59.67,1.4,1.4,0,0,1-.75.48A2.19,2.19,0,0,1,125.8,77.06Z"/><path class="cls-1" d="M119.15,86.37a2.11,2.11,0,0,1,1-1.49,2.63,2.63,0,0,1,1.55-.33,2.3,2.3,0,0,1,1.44.66,5,5,0,0,1,1,1.21c.37.66.64,1,.83,1s.37-.24.67-.72l.71-1.22a.67.67,0,0,0-.18-.92q1,0,1.2.33a.65.65,0,0,1,.12.37.56.56,0,0,1-.1.29l-.84,1.52c-.25.4-.48.73-.68,1a1.21,1.21,0,0,1-.9.4,1.14,1.14,0,0,1-1-.59,11.43,11.43,0,0,1-.81-1.09,2.85,2.85,0,0,0-.72-.85,1.74,1.74,0,0,0-1-.3c-.39,0-.62.08-.69.22a1.22,1.22,0,0,0-.6.65.73.73,0,0,0,.19.77c.1.24.23.24.41,0a.6.6,0,0,1,.07-.83c.24-.25.55-.17.92.23a1.67,1.67,0,0,1,.1,1,.69.69,0,0,1-.25.5,1,1,0,0,1-.84.34,1.66,1.66,0,0,1-1.43-.74,1.19,1.19,0,0,1-.25-.75A.67.67,0,0,1,119.15,86.37Z"/><path class="cls-1" d="M137.55,78.1l.23.05.3.1a2.41,2.41,0,0,0,1,.8,3,3,0,0,0,1.79.43h.6c.3.09.4.42.29,1l-.62,3.59a.94.94,0,0,1-.17.45.37.37,0,0,1-.31.15,1.52,1.52,0,0,1-.42-.33l-.24-.27-.21-.47q.34,0,.42-.12l.54-3.11-.69-.16a3.6,3.6,0,0,1-1.19-.37,5.39,5.39,0,0,1-1-.58l-.35-.21-1.44,5a1.43,1.43,0,0,1-.31.45.45.45,0,0,1-.24.15h0a1.45,1.45,0,0,1-.8,0,3.5,3.5,0,0,1-.95-2.35,1.85,1.85,0,0,1,.52-1.08.83.83,0,0,1,.63-.16l.58.41.18-1,.38-.44a4.52,4.52,0,0,1,.65-1.73.8.8,0,0,1,.79-.23s0,0,0,0l.13,0Zm1.28-.49.26.51-1.3-.27a9.58,9.58,0,0,1-1.23-.37c-.2-.09-.37-.18-.51-.26s-.25-.06-.29,0a2,2,0,0,0-.18.2c-.12.09-.16.18-.13.26a.53.53,0,0,0,.09.2l.17.21.25.16q2.81,1.92,1.76,1.63a11.14,11.14,0,0,1-1.94-.73l-.62-.36-.15-.12a1.15,1.15,0,0,1-.4-.88l0-.17a1.08,1.08,0,0,1,.32-.74,2.63,2.63,0,0,1,.26-.35,4.63,4.63,0,0,1,.25-.5,1.15,1.15,0,0,1,1.1.23c.31.17.7.37,1.18.6a5.91,5.91,0,0,0,1,.33,4,4,0,0,0,.6.05.18.18,0,0,0-.14,0Zm-3.73,6,.38-2.09a2.44,2.44,0,0,0-.7,1A1.28,1.28,0,0,0,135.1,83.63Zm4-6.38a2.73,2.73,0,0,0,.88-.09,3,3,0,0,0,1.52-.82,1.26,1.26,0,0,1,.87-.28,2.53,2.53,0,0,1,1.29.45,5.79,5.79,0,0,1,1.28.86,3.47,3.47,0,0,1,.95,1.16,1.93,1.93,0,0,1,.12.67,2.61,2.61,0,0,1-.05.48l-.7,4.39a.86.86,0,0,1-.21.45.51.51,0,0,1-.37.14c-.44,0-.78-.3-1-.89.15.2.35.17.58-.09l.7-4.16a1.07,1.07,0,0,0,0-.67,2.41,2.41,0,0,0-.6-.75,4.62,4.62,0,0,0-1-.7,7.64,7.64,0,0,0-.94-.29,2.72,2.72,0,0,0-1.18.51,2.58,2.58,0,0,1-1.63.56,7.68,7.68,0,0,1-.91-.15l-.63-.54A3.21,3.21,0,0,1,139.06,77.25Z"/><path class="cls-1" d="M150.54,80.21l.47-2.4q.08-1.05.18-1.65c.22-.51.5-.71.87-.59a1.32,1.32,0,0,1,.73.42,9.6,9.6,0,0,1,.79.89c.32.45.62.6.92.48a2.94,2.94,0,0,0,.93-.91c0-.5.2-.71.54-.64a1.58,1.58,0,0,1,.82.38,2.92,2.92,0,0,1,.68.82,3,3,0,0,1,.34.94,5.25,5.25,0,0,1,.06.66,3.79,3.79,0,0,1-.08.64L156.88,84a1.8,1.8,0,0,1-.16.48c-.07.1-.19.12-.36.08-.33,0-.68-.4-1-1.2.36.3.55.25.56-.15l.85-4a2.59,2.59,0,0,0,.07-.85,2.35,2.35,0,0,0-.2-.64,2.39,2.39,0,0,0-.47-.48c-.08,0-.15,0-.22.08l-.59.69a5.41,5.41,0,0,1-.54.6.91.91,0,0,1-1.09-.31l-.55-.45a6.18,6.18,0,0,1-.8-.74l-.05-.06c-.06.23-.14.54-.25.94l-.5,2.53a2.06,2.06,0,0,1,.78.61,2.73,2.73,0,0,1,.38,1.62,2.31,2.31,0,0,1-.58,1.23,1.66,1.66,0,0,1-1.06.67,1,1,0,0,1-1.13-.33,1.59,1.59,0,0,1,0-.89c0-.18.08-.39.13-.63l.36-1.86a6,6,0,0,0-1.09-.17c-1.45,0-1.44-.12,0-.52A6.9,6.9,0,0,1,150.54,80.21Zm.84,1.15L151,83c0,.24-.08.41-.11.53s.1.14.3.06c0,0,.08-.12.3-.37a1.47,1.47,0,0,0,.3-1A1.85,1.85,0,0,0,151.38,81.36Z"/><path class="cls-1" d="M170.34,82.89c-.48,1.36-1.19,2-2.15,2a3.54,3.54,0,0,1-1.75-.93,1.81,1.81,0,0,0-1.13-.45,2.43,2.43,0,0,0-1.43.57,2.43,2.43,0,0,1,2.41-2,3.49,3.49,0,0,1,1.26.69,3.16,3.16,0,0,0,1.43.69,1.21,1.21,0,0,0,.73-.22C169.91,83.18,170.12,83,170.34,82.89Z"/><path class="cls-1" d="M177.14,77.27c-.44.14-.67.6-.7,1.37A2.48,2.48,0,0,0,177.65,80a10.2,10.2,0,0,0,1.44.61,3.14,3.14,0,0,1,.67.21l.09-.15a5.81,5.81,0,0,1,.6-.86c.37-.37.69-.41,1-.13a.94.94,0,0,1,.36.85,1.38,1.38,0,0,1-.43.91,1.33,1.33,0,0,1-1.09.57l-.57,1.23a2.24,2.24,0,0,1-1,1.15,2.51,2.51,0,0,1-1.64.13,1.93,1.93,0,0,1-1.28-.91,2,2,0,0,1-.19-1.23.57.57,0,0,1,.7-.52c.35,0,.48.33.38.83.09.37.11.46,0,.27a1,1,0,0,0,.66.59,1.18,1.18,0,0,0,.79-.11c.2-.06.39-.28.56-.66l.57-1.14-.73-.17a7.91,7.91,0,0,1-1.81-.85A2.41,2.41,0,0,1,175.42,79a2.83,2.83,0,0,1,.1-1.2,2.33,2.33,0,0,1,.5-1.06,2.49,2.49,0,0,1,2-.86,6.65,6.65,0,0,1,.94.06,4.34,4.34,0,0,1,1,.28,1.69,1.69,0,0,1,.95,1.74,1.48,1.48,0,0,1-.7.92,2,2,0,0,1-1,.16,2.4,2.4,0,0,1-1.54-.86A3.1,3.1,0,0,1,177.14,77.27Zm.52-.17.65.63a2.16,2.16,0,0,0,1.15.33c.22-.12.3-.27.26-.44s-.26-.49-.65-.56a2.13,2.13,0,0,0-1-.09A.76.76,0,0,0,177.66,77.1Z"/><path class="cls-1" d="M178.93,75.08l-.37.34a.5.5,0,0,1-.59.09c-.21-.09-.18-.3.08-.61l.27-.19.1-.12a1.13,1.13,0,0,0-.13-.27,3.05,3.05,0,0,1-.31-.71,3.41,3.41,0,0,1-.07-.81,1.6,1.6,0,0,1,.25-.83,1.26,1.26,0,0,1,.51-.44,1.59,1.59,0,0,1,.72-.15,1.3,1.3,0,0,1,.58.42,1.66,1.66,0,0,1,.3.63,2,2,0,0,1-.06.85,3.36,3.36,0,0,1-.38.83l-.43.55.15.15q1.22,2.07-.61.28A0,0,0,0,0,178.93,75.08Zm.09-.94a4,4,0,0,0,.44-1,1.54,1.54,0,0,0,0-.51.28.28,0,0,0-.16-.24.32.32,0,0,0-.38,0,.89.89,0,0,0-.25.57,1.81,1.81,0,0,0,.18,1Z"/><path class="cls-1" d="M185.22,80.33a.5.5,0,0,0,0-.4c-.26-.37,0-.46.66-.26a.81.81,0,0,1,.45.69,8.19,8.19,0,0,1-.2,1.28l.26.09a3.06,3.06,0,0,1,.58.35,5.57,5.57,0,0,1,.74.64,3.93,3.93,0,0,0,1,.65.66.66,0,0,0,.65-.16,2.81,2.81,0,0,0,.79-1.8,2.72,2.72,0,0,1-1-.14,8.91,8.91,0,0,1-1.83-.78,10.6,10.6,0,0,1-1.46-.89,1.53,1.53,0,0,1-.64-.85,1.86,1.86,0,0,1-.11-1.16,1.92,1.92,0,0,1,.85-1.32,2.69,2.69,0,0,1,1.95-.4,7.8,7.8,0,0,1,1.55.4,3.3,3.3,0,0,1,1.6,1.34,2.27,2.27,0,0,1,.27,1.39,1.58,1.58,0,0,1-1.74.68A2.37,2.37,0,0,1,187.77,78a1,1,0,0,1,.46-.78,1.42,1.42,0,0,0,.46.74l.51.31c1.12.4,1.39.26.82-.42a4.68,4.68,0,0,0-2.1-1,2.2,2.2,0,0,0-1.42.25,1.64,1.64,0,0,0-.46.74.84.84,0,0,0,.06.57,1.4,1.4,0,0,0,.51.49,8.61,8.61,0,0,0,1.14.7,5.19,5.19,0,0,0,2.45.79c.78-.28,1.13,0,1,.91a4.88,4.88,0,0,1-.37,1.45A2.45,2.45,0,0,1,189,84.47a1.63,1.63,0,0,1-1.47-.56c-.38-.33-.75-.65-1.13-1a1.19,1.19,0,0,0-.63-.24l-.14.49a4,4,0,0,1-.47,1.38.91.91,0,0,1-.73.14c-.17,0-.3-.17-.4-.42a2.52,2.52,0,0,1-.24-1.07,1.68,1.68,0,0,1,.28-1.12,1.27,1.27,0,0,1,.57-.39l.24,0Zm-.87,2.86-.06.63.38-1.17s-.11,0-.16.11A1.62,1.62,0,0,0,184.35,83.19Z"/><path class="cls-1" d="M188.79,91.67c-.38-.15-.68-.61-.9-1.36.38.38.6.3.66-.22a3.82,3.82,0,0,0,.08-.39l.49-2.56q-.8-2.16.78-2.49c.48.25.6.78.36,1.6,0,.1,0,.23,0,.38l-.67,3.59C189.42,91.18,189.17,91.66,188.79,91.67Z"/><path class="cls-1" d="M195.86,78.8a.65.65,0,0,1-.51-.18l-.14-.13a1.5,1.5,0,0,1-.27-.9l0-.17a1.09,1.09,0,0,1,.39-.72c.09-.11.18-.22.28-.32s.22-.22.34-.35a1.15,1.15,0,0,1,.76.31c.16.15.41.36.74.64a1.3,1.3,0,0,0,1,.18,4.42,4.42,0,0,0,.87-.67,2.11,2.11,0,0,1,.67-.4.73.73,0,0,1,.64.06,3.93,3.93,0,0,1,.66.3A4.35,4.35,0,0,1,202,77a4.1,4.1,0,0,1,.48.93c.08.33,0,.53-.14.61a.89.89,0,0,1-.29-.27c-.13-.16-.34-.39-.62-.69a1.46,1.46,0,0,0-.4-.33,2.82,2.82,0,0,1-.38-.21.57.57,0,0,0-.66,0l-.84.65c-.14.19-.57.28-1.29.28.38,0,.3,0-.22-.06l-.86-.53a3.42,3.42,0,0,0-.38-.28c-.14-.11-.22-.12-.27,0a1.46,1.46,0,0,0-.2.18c-.12.09-.17.17-.15.25a.46.46,0,0,0,.08.2c0,.06.08.13.14.23l.32.11-.09.35A.55.55,0,0,1,195.86,78.8Zm.28,5.14-.33.45a.37.37,0,0,1-.3.15.38.38,0,0,1-.32-.21.48.48,0,0,1,0-.18.47.47,0,0,1,0-.27l.65-3.53.38-.45a4.46,4.46,0,0,1,.65-1.72c.24-.3.7-.32,1.37-.06a2.54,2.54,0,0,0,1,.8,3.15,3.15,0,0,0,1.79.43h.61c.3.09.4.42.29,1l-.62,3.59a.94.94,0,0,1-.17.45.37.37,0,0,1-.31.15,1.71,1.71,0,0,1-.43-.33l-.23-.27-.21-.47c.23,0,.37,0,.41-.13l.55-3.1-.69-.16a3.6,3.6,0,0,1-1.19-.37,5.09,5.09,0,0,1-1-.58l-.36-.21Z"/><path class="cls-1" d="M207.1,78.49l-1.11,5,.75-.06a8,8,0,0,1,2.09-.07l0,0,.27.11.15.14a.5.5,0,0,0,.61-.2,1.6,1.6,0,0,0,.28-.68l.54-2.56a1,1,0,0,0,0-.51c0-.11,0-.17-.14-.17a1.14,1.14,0,0,0-.16.23,1.26,1.26,0,0,0-.25.73c0,.34,0,.51.06.52a1.07,1.07,0,0,0,.05.44c.14.6.07.84-.22.74a1.48,1.48,0,0,1-.56-.76,2.22,2.22,0,0,1-.18-1.13,2.41,2.41,0,0,1,.51-1.27,1.38,1.38,0,0,1,.83-.53c.57-.12.93,0,1.07.38s.2.79,0,1.58L211.11,83a4.4,4.4,0,0,1-.67,1.57,2,2,0,0,1-1.1.16c-.3-.42-1-.53-2.17-.35l-.8.1-.72.08a1.32,1.32,0,0,1-.66-.19.92.92,0,0,1-.06-.86l.42-1.84.81-3.53C206.79,77.28,207.1,77.41,207.1,78.49Zm-1.17.42-.57-.43-.14-.14a1.41,1.41,0,0,1-.35-.87v-.23a1.7,1.7,0,0,1,.53-.68,2.91,2.91,0,0,1,.3-.31c.11-.1.22-.21.34-.34a1.23,1.23,0,0,1,.75.34c.16.16.4.38.72.67a1.27,1.27,0,0,0,1,.23,3.84,3.84,0,0,0,.9-.63,2.08,2.08,0,0,1,.7-.37.72.72,0,0,1,.63.09,5.59,5.59,0,0,1,.65.32,4.57,4.57,0,0,1,.63.62,4.73,4.73,0,0,1,.44.94c.21.53.23.73.07.62a.83.83,0,0,1-.46-.29l-.64-.72a1.7,1.7,0,0,0-.38-.35c-.13-.07-.26-.14-.38-.22a.57.57,0,0,0-.67,0l-.85.61c-.16.18-.59.25-1.31.22.38,0,.31,0-.22-.07a5.21,5.21,0,0,1-.77-.49,2.92,2.92,0,0,0-.43-.37c-.13-.11-.22-.13-.27,0a.72.72,0,0,0-.2.17c-.13.08-.18.16-.17.25a.52.52,0,0,0,.08.2l.13.23.23.19c2,1.56,2.55,2.18,1.75,1.88A10.2,10.2,0,0,1,205.93,78.91Z"/><path class="cls-1" d="M212.06,74.27l.59.38c.54.48.47.72-.22.74.07.23.14.49.22.77l-.68-.93c-.68-.22-1.57-.57-2.68-1l-1.65-.59a15.42,15.42,0,0,1-1.75-.76.53.53,0,0,1-.25-.37c0-.17,0-.3,0-.39a3.08,3.08,0,0,1,.13-.59,1.7,1.7,0,0,1,.82-.76,3.25,3.25,0,0,1,1.56-.23,4.41,4.41,0,0,1,.62.14l.77.33a3.77,3.77,0,0,1,1.12.94,9.58,9.58,0,0,1,1.08,1.63C211.81,73.75,211.92,74,212.06,74.27Zm-.94-.22-.16-.21a5.2,5.2,0,0,0-1-1.24,2.87,2.87,0,0,0-.9-.73,3.42,3.42,0,0,0-1-.35,3.2,3.2,0,0,0-1,0,.59.59,0,0,0-.49.43c-.05.24,0,.38.15.4.34.14.93.34,1.79.61l1.25.47C210.28,73.68,210.75,73.88,211.12,74.05Z"/><path class="cls-1" d="M217.39,78l.3.1a2.54,2.54,0,0,0,1,.8,3.15,3.15,0,0,0,1.79.43h.62c.3.09.39.42.28,1l-.63,3.59a.94.94,0,0,1-.16.45.37.37,0,0,1-.31.15,1.71,1.71,0,0,1-.43-.33l-.23-.27-.21-.47c.23,0,.37,0,.42-.13l.54-3.1-.69-.16a3.6,3.6,0,0,1-1.19-.37,4.77,4.77,0,0,1-1-.58l-.37-.21-.8,3a2.37,2.37,0,0,1,.6.62,1.15,1.15,0,0,1,.06.92l-.11.24a1.6,1.6,0,0,1-.58.58l-.32.2-.45.15a1,1,0,0,1-.49,0,.76.76,0,0,1-.29-.3l-.08-.18a1.21,1.21,0,0,1,0-.27l.28-1.7a2.18,2.18,0,0,0-1.16-.13l-.93.21a2.21,2.21,0,0,1,2.25-.87l.21-1,.38-.45a4.63,4.63,0,0,1,.65-1.72.8.8,0,0,1,.79-.23l-.85-.52a2.84,2.84,0,0,0-.39-.28c-.13-.11-.22-.12-.27,0l-.19.18c-.12.09-.17.17-.16.25a.46.46,0,0,0,.09.2c0,.06.08.13.14.23l.33.11-.1.35a.55.55,0,0,1-.32.37.62.62,0,0,1-.5-.18l-.15-.13a1.5,1.5,0,0,1-.27-.9l0-.17a1.12,1.12,0,0,1,.38-.72,3,3,0,0,1,.3-.32l.32-.35a1.15,1.15,0,0,1,.77.31c.16.15.4.36.74.64a1.27,1.27,0,0,0,1,.18,4.08,4.08,0,0,0,.88-.67,2.11,2.11,0,0,1,.67-.4.73.73,0,0,1,.64.06,3.93,3.93,0,0,1,.66.3,4.3,4.3,0,0,1,.65.58A3.77,3.77,0,0,1,222,78c.08.33,0,.53-.13.61a.81.81,0,0,1-.3-.27c-.13-.16-.34-.39-.62-.69a1.62,1.62,0,0,0-.4-.33,2.82,2.82,0,0,1-.38-.21.58.58,0,0,0-.67,0l-.82.65C218.49,77.92,218.08,78,217.39,78ZM216,82.79l-.36,1.15-.06.21q.3-.39.51-.69l.07-.17C216.3,83.11,216.25,82.94,216,82.79ZM217.39,78c.34,0,.26,0-.23,0Z"/><path class="cls-1" d="M216.32,87.94a2.14,2.14,0,0,1-1.12.27,1.26,1.26,0,0,1-1-.31.61.61,0,0,1-.12-.39,3.14,3.14,0,0,1,.12-.63,1.24,1.24,0,0,0-.78.26,1.19,1.19,0,0,1,1-.86,5.61,5.61,0,0,1,.62-1.35,2.14,2.14,0,0,1,1.16-.1l.65.07.57.06a10.87,10.87,0,0,1,1.26.27l1.74.55a.86.86,0,0,1,.42.69l-.27,1.34c-.05.13-.09.25-.14.36l-.13.18c-.48.21-.84,0-1.07-.61.24.16.38.15.43,0l.11-.32a1.29,1.29,0,0,0,.05-.66q0-.24-.54-.51c-.31-.12-.63-.22-1-.32a8.49,8.49,0,0,0-1-.22c-.33,0-.65-.08-1-.1a1.08,1.08,0,0,0-.72.14,4.19,4.19,0,0,0-.29.56,2.26,2.26,0,0,1,1,.21.72.72,0,0,1,.41.66A.89.89,0,0,1,216.32,87.94Zm-1.19-1-.1.34q-.09.3.18.3c.29,0,.43,0,.42-.1a.34.34,0,0,0,.22-.32c0-.08-.07-.13-.21-.17,0,0-.11,0-.39,0Z"/><path class="cls-1" d="M233.74,82.89c-.47,1.36-1.19,2-2.14,2a3.54,3.54,0,0,1-1.75-.93,1.84,1.84,0,0,0-1.14-.45,2.45,2.45,0,0,0-1.43.57,2.44,2.44,0,0,1,2.42-2,3.57,3.57,0,0,1,1.26.69,3.07,3.07,0,0,0,1.43.69,1.16,1.16,0,0,0,.72-.22Z"/><path class="cls-1" d="M245.08,78.4h0l-.37-.49-.32-.54a3,3,0,0,1-.23-1c.3-.77.85-.92,1.65-.46a9.69,9.69,0,0,1,.9,1q1.76,2.31.36,1.19c-.92-.74-1.48-1.18-1.69-1.32s-.31-.06-.29.23.3.43.42.61c.31-.54.5-.28.54.79v.1c.53.86.54,1,0,.5L245,84.1a.75.75,0,0,1-.54.57.91.91,0,0,1-.92-.34,3.22,3.22,0,0,0-1.91,0,5,5,0,0,1-2.2.25.83.83,0,0,1-.75-.38,1.9,1.9,0,0,1-.19-1.13,12.49,12.49,0,0,1,.42-2.53,7.44,7.44,0,0,1,.84-2l-.32-.33-.31-.49a2,2,0,0,1-.21-1c.4-1,1-1.2,1.79-.76.4.32.7.58.89.76q2.7,3,1,1.8L240.27,77c-.37-.25-.51-.17-.41.24.15.22.28.39.37.51.69-.65.89-.31.61,1q.78,1.26-.24.42a8.23,8.23,0,0,0-1,3.57c-.12.64.2.87.94.67a9,9,0,0,1,2.1-.3,1.91,1.91,0,0,1,1.06.2c.14.09.24,0,.3-.34Zm1.19,4.39q3.09,2.26-.3.75l-4.19-2.39c-.57-.8-.27-1,.89-.6Z"/><path class="cls-1" d="M250.34,80.33a.46.46,0,0,0-.05-.4c-.26-.37,0-.46.67-.26a.85.85,0,0,1,.45.69,9.58,9.58,0,0,1-.2,1.28l.26.09a3.39,3.39,0,0,1,.57.35,5,5,0,0,1,.74.64,4.09,4.09,0,0,0,1,.65.68.68,0,0,0,.66-.16,2.86,2.86,0,0,0,.79-1.8,2.78,2.78,0,0,1-1-.14,8.81,8.81,0,0,1-1.82-.78A10,10,0,0,1,251,79.6a1.54,1.54,0,0,1-.65-.85,1.84,1.84,0,0,1-.1-1.16,1.92,1.92,0,0,1,.85-1.32,2.67,2.67,0,0,1,1.94-.4,7.46,7.46,0,0,1,1.55.4,3.28,3.28,0,0,1,1.61,1.34,2.34,2.34,0,0,1,.27,1.39,1.58,1.58,0,0,1-1.74.68A2.37,2.37,0,0,1,252.88,78a1,1,0,0,1,.46-.78,1.58,1.58,0,0,0,.46.74l.52.31c1.12.4,1.39.26.82-.42a4.78,4.78,0,0,0-2.1-1,2.19,2.19,0,0,0-1.42.25,1.48,1.48,0,0,0-.46.74.78.78,0,0,0,.05.57,1.54,1.54,0,0,0,.52.49,8.61,8.61,0,0,0,1.14.7,5.19,5.19,0,0,0,2.44.79c.78-.28,1.13,0,1.05.91A5,5,0,0,1,256,82.8a2.44,2.44,0,0,1-1.88,1.67,1.64,1.64,0,0,1-1.47-.56c-.37-.33-.75-.65-1.12-1a1.24,1.24,0,0,0-.63-.24l-.14.49a4,4,0,0,1-.48,1.38.87.87,0,0,1-.72.14c-.17,0-.31-.17-.4-.42a2.25,2.25,0,0,1-.24-1.07,1.63,1.63,0,0,1,.28-1.12,1.27,1.27,0,0,1,.57-.39l.24,0Zm-.87,2.86-.06.63.38-1.17s-.11,0-.16.11A1.33,1.33,0,0,0,249.47,83.19Z"/><path class="cls-1" d="M253.91,91.67c-.39-.15-.69-.61-.91-1.36.38.38.6.3.66-.22q0-.18.09-.39l.49-2.56c-.53-1.44-.27-2.27.77-2.49.48.25.6.78.37,1.6,0,.1,0,.23-.06.38l-.66,3.59C254.53,91.18,254.28,91.66,253.91,91.67Z"/><path class="cls-1" d="M260.06,81.32l.27-1.3a6.86,6.86,0,0,1,.51-1.65c.39-.58.77-.88,1.16-.91a3.8,3.8,0,0,1,.77.07l.57.2a3,3,0,0,1,.84.39,10.22,10.22,0,0,1,1.26.73,5.21,5.21,0,0,1,.87.7,1.14,1.14,0,0,1,.32,1l-.69,2.86.64-.35a2.6,2.6,0,0,1,1.68-.11,1.07,1.07,0,0,1,.46.55,2,2,0,0,0,.17-.48L270,78.4l-.37-.49-.48-.67a1.36,1.36,0,0,1-.22-1c.42-.73,1-.85,1.84-.38a7.08,7.08,0,0,1,1.17,1c1,1.24,1,1.56.08,1l-1.7-1.08c-.21-.13-.35-.09-.41.13a4.49,4.49,0,0,0,.53.72c.32-.55.53-.24.64.91.64,1,.6,1.2-.12.64l-1.13,5.06a1.09,1.09,0,0,1-1.48.06c-.19-.44-.6-.56-1.22-.36l-.77.3-.28.13-.29.14a1,1,0,0,1-.32.09h-.36a.44.44,0,0,1-.35-.15c-.17-.14-.23-.42-.19-.84l.6-2.54a7,7,0,0,0,.12-.79,1.65,1.65,0,0,0-.62-.69c-.24-.19-.52-.38-.81-.57a2.51,2.51,0,0,0-.6-.24,1.54,1.54,0,0,0-.92-.07,1,1,0,0,0-.54.47,2.46,2.46,0,0,0-.28,1l-.21,1,0,.24a1.24,1.24,0,0,1,.88.52,1.52,1.52,0,0,1,.12,1,2.44,2.44,0,0,1-.65,1.25,1.77,1.77,0,0,1-1,.55.88.88,0,0,1-.82-.23,1.18,1.18,0,0,1-.12-.78,6.66,6.66,0,0,1,.08-.67l.19-1a3.85,3.85,0,0,0-.67.09c-1.14.47-1.23.34-.28-.39A2.73,2.73,0,0,1,260.06,81.32Zm5-4.26,1.33,1.1q1.33,1.08-1.46-.13c-1.86-.8-2.81-1-2.83-.5l.71.9q1.26,1.56-.88.18-1.51-1-1.38-2a1.21,1.21,0,0,1,1.2-.76A3.94,3.94,0,0,1,263,76,12.48,12.48,0,0,1,265.06,77.06Zm-4,5.08-.26,1.11a3.33,3.33,0,0,0-.13.6.34.34,0,0,0,.27-.12,1,1,0,0,0,.34-.4,1.3,1.3,0,0,0,.17-.64c0-.36-.11-.54-.34-.57Z"/><path class="cls-1" d="M274.4,90a1.17,1.17,0,0,1-1.17.54c-.7,0-1.56,0-2.58,0s-1.74,0-2.14,0a.93.93,0,0,1-.47-1l.61-3c.1-.34,0-.53-.31-.56s-.1-.23.64-.59c.63-.07,1,.08,1.1.43L269.84,87l-.36,2.09c-.19.34,1.11.43,3.9.26l1.93-9.83q1.14-3.3,1.1-.16Zm2.37-5q3.38,4-.7.47L273.35,83c-.05-.49.21-.7.76-.63Zm-.88-5.1-.91-.93-.51-.63a1.33,1.33,0,0,1-.26-.93,1.24,1.24,0,0,1,.26-.76,1,1,0,0,1,.56-.55,2.8,2.8,0,0,1,2.5,1.27q2.18,2.59.51,1.31a5.7,5.7,0,0,0-2.36-1.33c-.46,0-.56.15-.31.55s.49.74.72,1a8.28,8.28,0,0,1,.68,1C277,80.28,276.7,80.27,275.89,79.87Z"/><path class="cls-1" d="M281.4,79.25,281,81.09q.35-.12.75.33c.27.3.63.74,1.08,1.31a3.13,3.13,0,0,0,1.06.88c.09,0,.19,0,.3-.16s.28-1.18.65-2.79a9.48,9.48,0,0,1,.3-1.29q-.18,0-.51.42a1.06,1.06,0,0,0,.16,1.15c-.69,0-1-.39-.94-1.19a1.38,1.38,0,0,1,1.42-1.19c.59,0,.9.27.92.79-.07.28-.13.55-.18.8l-.47,2.32a8.57,8.57,0,0,1-.47,1.6.72.72,0,0,1-.69.61,1.64,1.64,0,0,1-.93-.2,4,4,0,0,1-1-.82,3.8,3.8,0,0,1-.71-.93,2.29,2.29,0,0,0-.5-.62.27.27,0,0,0-.38.06l-.06.31-.22,1.13c-.11.76-.31,1.15-.6,1.18a.5.5,0,0,1-.57-.31l0-.84q0-.78.09-1.23a1.38,1.38,0,0,1,.49-1l.53-2.3Q281.58,76.21,281.4,79.25Zm-.95-.54-.59-.42-.13-.13a1.16,1.16,0,0,1-.31-.92l0-.17a1.11,1.11,0,0,1,.39-.7c.09-.11.19-.21.3-.32s.22-.21.33-.34a1.12,1.12,0,0,1,.76.32c.16.15.4.37.73.65a1.24,1.24,0,0,0,1,.2,3.58,3.58,0,0,0,.88-.66,2.58,2.58,0,0,1,.68-.39.74.74,0,0,1,.64.08,3.93,3.93,0,0,1,.66.3,5.13,5.13,0,0,1,.65.6,5,5,0,0,1,.46.93c.23.53.26.73.09.61a.7.7,0,0,1-.47-.27c-.17-.17-.39-.4-.66-.7a1.69,1.69,0,0,0-.39-.34,2.82,2.82,0,0,1-.38-.21.57.57,0,0,0-.66,0c-.29.22-.57.44-.85.64s-.58.27-1.3.26c.38,0,.3,0-.22-.06a5.43,5.43,0,0,1-.78-.48,2.54,2.54,0,0,0-.45-.36c-.13-.1-.21-.12-.26,0a1,1,0,0,0-.2.18c-.12.08-.18.16-.16.25a.4.4,0,0,0,.08.2s.08.13.13.23l.25.18c1.73,1.46,2.25,2.06,1.58,1.8A11.81,11.81,0,0,1,280.45,78.71Z"/><path class="cls-1" d="M296.35,78.4h0L296,77.9l-.33-.54a3.19,3.19,0,0,1-.22-1c.3-.77.85-.92,1.65-.46a9.69,9.69,0,0,1,.9,1c1.16,1.54,1.29,1.94.36,1.19s-1.49-1.18-1.69-1.32-.31-.06-.29.23.3.43.42.61c.31-.54.49-.28.54.79v.1c.53.86.54,1,0,.5l-1.08,5.16a.75.75,0,0,1-.54.57.91.91,0,0,1-.92-.34,3.23,3.23,0,0,0-1.91,0,5,5,0,0,1-2.2.25.86.86,0,0,1-.76-.38,2,2,0,0,1-.18-1.13,12.49,12.49,0,0,1,.42-2.53,7.11,7.11,0,0,1,.84-2l-.32-.33-.31-.49a2,2,0,0,1-.21-1c.39-1,1-1.2,1.79-.76.4.32.69.58.89.76q2.7,3,1,1.8L291.54,77c-.38-.25-.51-.17-.41.24.15.22.27.39.37.51.69-.65.89-.31.6,1,.53.84.45,1-.23.42a8.23,8.23,0,0,0-1,3.57c-.12.64.19.87.94.67a9,9,0,0,1,2.1-.3,1.87,1.87,0,0,1,1.05.2c.15.09.25,0,.31-.34Zm1.19,4.39c2.06,1.51,1.95,1.76-.3.75l-4.19-2.39c-.57-.8-.27-1,.88-.6Z"/><path class="cls-1" d="M295.85,75.3a1.24,1.24,0,0,1-1-.17.46.46,0,0,0,.39-.29c.06-.31-.18-.49-.71-.53a10.15,10.15,0,0,0-1.56,0c-.5,0-.89.06-1.15.06s-.49-.25-.53-.36a2.1,2.1,0,0,1-.11-.39c0-.7.59-1.1,1.79-1.2a4.23,4.23,0,0,1,1.38.22q.54.21.84-.48c.23-.4.44-.79.63-1.16a2.85,2.85,0,0,1,.69-1,2.21,2.21,0,0,1,.92-.4,1.29,1.29,0,0,1,.91.23,1.44,1.44,0,0,1,.49.77,2.26,2.26,0,0,1-.1,1.14l-.18-.59a1.09,1.09,0,0,0-1.1-.58c-.26,0-.58.25-.94.77l-.75,1.38c-.27.58-.61.84-1,.79l-.52-.19a2.91,2.91,0,0,0-1-.19c-.92,0-1.28.2-1.06.6a10.11,10.11,0,0,1,1.67-.14c.33,0,.69,0,1.09.09.66.09,1.06.31,1.2.65A.73.73,0,0,1,295.85,75.3Z"/></g></g></svg>