<svg xmlns="http://www.w3.org/2000/svg" xmlns:xlink="http://www.w3.org/1999/xlink" viewBox="0 0 50 50" fill="#FFFFFF">
  <path d="M0 7L0 22 A 1.0001 1.0001 0 1 0 2 22L2 14.152344C3.3954211 15.368609 8.2491142 19.599535 13.298828 24L16.335938 24C10.510343 18.922159 2.2713258 11.742332 2 11.505859L2 9L48 9L48 11.507812C47.575803 11.877552 29.817251 27.354929 28.335938 28.644531C26.927937 29.870531 25.534 30.001953 25 30.001953C24.984 30.001953 24.959406 30 24.941406 30L20.183594 30C20.251594 30.059 20.311516 30.110484 20.353516 30.146484C22.271516 31.816484 24.241047 31.998047 24.998047 31.998047C25.757047 31.998047 27.727531 31.818438 29.644531 30.148438C29.923072 29.905946 32.12268 27.988199 33.341797 26.925781L48 38.513672L48 41L16 41 A 1.0001 1.0001 0 1 0 16 43L50 43L50 7L0 7 z M 48 14.150391L48 35.964844L34.876953 25.587891C40.117657 21.020531 46.258619 15.668213 48 14.150391 z M 1 25.988281 A 1.011719 1.011719 0 1 0 1 28.011719L20 28.011719 A 1.011719 1.011719 0 0 0 20 25.988281L1 25.988281 z M 1 30.988281 A 1.011719 1.011719 0 1 0 1 33.011719L16 33.011719 A 1.011719 1.011719 0 0 0 16 30.988281L1 30.988281 z M 1 35.988281 A 1.011719 1.011719 0 1 0 1 38.011719L13 38.011719 A 1.011719 1.011719 0 0 0 13 35.988281L1 35.988281 z M 1 40.988281 A 1.011719 1.011719 0 1 0 1 43.011719L10 43.011719 A 1.011719 1.011719 0 0 0 10 40.988281L1 40.988281 z" fill="#FFFFFF" />
</svg>