<svg xmlns="http://www.w3.org/2000/svg" xmlns:xlink="http://www.w3.org/1999/xlink" viewBox="0 0 50 50" fill="#FFFFFF">
  <path d="M11.976563 4.042969C11.976563 4.042969 9.796875 4.042969 7.367188 5.195313L7.367188 5.191406C5.507813 6.074219 3.941406 7.363281 3.1875 8.417969C2.964844 8.707031 2.917969 9.097656 3.0625 9.429688C3.210938 9.765625 3.527344 9.992188 3.894531 10.027344C4.257813 10.058594 4.609375 9.886719 4.8125 9.582031C5.171875 9.078125 6.710938 7.71875 8.226563 7C10.246094 6.042969 11.976563 6.042969 11.976563 6.042969C12.335938 6.046875 12.671875 5.859375 12.855469 5.546875C13.035156 5.234375 13.035156 4.851563 12.855469 4.539063C12.671875 4.226563 12.335938 4.039063 11.976563 4.042969 Z M 31.855469 5C29.539063 4.996094 26.789063 5.09375 23.699219 5.492188C18.820313 6.117188 15.175781 7.0625 12.359375 7.984375C9.304688 8.976563 7.277344 10.074219 5.917969 11.03125C4.558594 11.988281 3.839844 12.859375 3.574219 13.164063L3.570313 13.164063C3.027344 13.785156 3.011719 14.445313 3 15.140625C2.988281 15.832031 3.066406 16.589844 3.179688 17.34375C3.410156 18.851563 3.78125 20.289063 3.992188 20.945313C4.492188 22.480469 5.878906 23.300781 7.152344 22.917969C7.425781 22.832031 7.792969 22.6875 8.359375 22.46875C8.929688 22.246094 9.632813 21.96875 10.339844 21.6875C11.757813 21.125 13.238281 20.535156 13.570313 20.414063L13.574219 20.414063C14.625 20.027344 15.097656 19.042969 15.292969 18.015625C15.402344 17.449219 16.214844 14.078125 16.390625 13.339844C16.914063 13.105469 19.535156 11.984375 24.480469 11.347656C29.441406 10.707031 32.265625 11.074219 32.816406 11.152344C33.011719 11.480469 33.425781 12.171875 34.042969 13.207031C34.414063 13.835938 34.792969 14.46875 35.078125 14.953125C35.222656 15.195313 35.347656 15.398438 35.4375 15.546875C35.523438 15.695313 35.53125 15.710938 35.609375 15.832031C36.058594 16.519531 36.691406 17.132813 37.617188 17.203125C37.914063 17.226563 39.503906 17.425781 41.011719 17.613281C41.765625 17.707031 42.519531 17.800781 43.128906 17.871094C43.738281 17.941406 44.140625 17.992188 44.457031 18C45.765625 18.027344 46.90625 16.910156 47 15.289063C47.039063 14.601563 47.023438 13.144531 46.855469 11.65625C46.769531 10.914063 46.648438 10.175781 46.453125 9.515625C46.261719 8.859375 46.070313 8.238281 45.394531 7.78125C44.996094 7.511719 43.972656 6.820313 42.175781 6.230469C40.378906 5.640625 37.777344 5.125 34.027344 5.03125C33.351563 5.015625 32.628906 5 31.855469 5 Z M 31.847656 7C32.601563 7 33.3125 7.015625 33.972656 7.03125C37.5625 7.121094 39.96875 7.613281 41.550781 8.132813C43.136719 8.652344 43.859375 9.160156 44.277344 9.4375C44.164063 9.363281 44.398438 9.609375 44.535156 10.082031C44.675781 10.558594 44.789063 11.210938 44.863281 11.882813C45.019531 13.230469 45.027344 14.710938 45 15.175781C44.960938 15.867188 44.414063 15.996094 44.5 16C44.46875 15.996094 43.953125 15.953125 43.359375 15.882813C42.757813 15.8125 42.011719 15.722656 41.257813 15.628906C39.753906 15.441406 38.300781 15.25 37.773438 15.207031L37.769531 15.207031C37.789063 15.210938 37.519531 15.101563 37.28125 14.738281C37.332031 14.816406 37.238281 14.664063 37.152344 14.519531C37.0625 14.371094 36.941406 14.167969 36.796875 13.925781C36.507813 13.445313 36.132813 12.8125 35.761719 12.183594C35.011719 10.925781 34.273438 9.6875 34.273438 9.6875L34.03125 9.285156L33.574219 9.210938C33.574219 9.210938 29.933594 8.628906 24.222656 9.363281C18.5 10.101563 15.113281 11.6875 15.113281 11.6875L14.683594 11.890625L14.566406 12.355469C14.566406 12.355469 13.515625 16.660156 13.328125 17.640625C13.21875 18.222656 12.882813 18.535156 12.882813 18.535156C12.417969 18.707031 11.015625 19.265625 9.601563 19.828125C8.894531 20.109375 8.195313 20.386719 7.636719 20.605469C7.078125 20.820313 6.601563 20.992188 6.574219 21C6.648438 20.976563 6.113281 20.996094 5.894531 20.328125L5.894531 20.324219C5.75 19.878906 5.367188 18.414063 5.15625 17.042969C5.054688 16.359375 4.992188 15.679688 5 15.175781C5.007813 14.671875 5.179688 14.367188 5.078125 14.484375C5.414063 14.101563 5.894531 13.496094 7.070313 12.664063C8.246094 11.832031 10.089844 10.828125 12.980469 9.882813C15.699219 8.996094 19.199219 8.085938 23.953125 7.476563C26.933594 7.089844 29.585938 6.996094 31.847656 7 Z M 19 16C18.449219 16 18 16.449219 18 17L18 19.578125C17.554688 19.996094 14.230469 23.125 9.742188 28.347656C6.753906 31.824219 5.992188 34.535156 6 37.027344C6.003906 38.109375 6.261719 40.050781 6.511719 41.828125C6.761719 43.609375 7.015625 45.15625 7.015625 45.15625C7.089844 45.644531 7.507813 46 8 46L13 46C13.550781 46 14 45.550781 14 45L14 44L38 44L38 45C38 45.550781 38.449219 46 39 46L44 46C44.488281 46 44.90625 45.644531 44.984375 45.160156C44.984375 45.160156 45.238281 43.605469 45.488281 41.824219C45.738281 40.042969 45.996094 38.09375 46 37C46.003906 34.511719 45.238281 31.816406 42.257813 28.347656C37.769531 23.125 34.445313 19.996094 34 19.578125L34 17C34 16.449219 33.550781 16 33 16L29 16C28.449219 16 28 16.449219 28 17L28 19L24 19L24 17C24 16.449219 23.550781 16 23 16 Z M 20 18L22 18L22 20C22 20.550781 22.449219 21 23 21L29 21C29.550781 21 30 20.550781 30 20L30 18L32 18L32 20C32 20.277344 32.117188 20.542969 32.320313 20.734375C32.320313 20.734375 36.015625 24.152344 40.738281 29.652344C43.511719 32.878906 44.003906 34.875 44 37C44 37.730469 43.753906 39.785156 43.507813 41.546875C43.324219 42.855469 43.222656 43.480469 43.140625 44L40 44L40 43C40 42.449219 39.550781 42 39 42L13 42C12.449219 42 12 42.449219 12 43L12 44L8.859375 44C8.777344 43.480469 8.675781 42.859375 8.492188 41.550781C8.246094 39.792969 8.003906 37.746094 8 37.015625C7.992188 34.894531 8.480469 32.886719 11.261719 29.652344C15.984375 24.152344 19.679688 20.734375 19.679688 20.734375C19.882813 20.542969 20 20.277344 20 20 Z M 37.996094 19.042969C37.570313 19.039063 37.1875 19.308594 37.046875 19.707031C36.902344 20.109375 37.03125 20.554688 37.359375 20.824219C38.234375 21.546875 39.476563 21.910156 40.9375 22C42.695313 22.105469 43.515625 21.902344 44.40625 21.5625C44.921875 21.359375 45.175781 20.78125 44.976563 20.265625C44.777344 19.75 44.199219 19.492188 43.683594 19.691406C42.855469 20.011719 42.679688 20.101563 41.0625 20C39.898438 19.929688 38.972656 19.5625 38.636719 19.28125C38.457031 19.128906 38.230469 19.042969 37.996094 19.042969 Z M 18 25L18 27L22 27L22 25 Z M 24 25L24 27L28 27L28 25 Z M 30 25L30 27L34 27L34 25 Z M 18 29L18 31L22 31L22 29 Z M 24 29L24 31L28 31L28 29 Z M 30 29L30 31L34 31L34 29 Z M 18 33L18 35L22 35L22 33 Z M 24 33L24 35L28 35L28 33 Z M 30 33L30 35L34 35L34 33Z" fill="#FFFFFF" />
</svg>