<?xml version="1.0" encoding="utf-8"?>
<!-- Generator: Adobe Illustrator 24.1.1, SVG Export Plug-In . SVG Version: 6.00 Build 0)  -->
<svg version="1.1" id="Layer_1" xmlns="http://www.w3.org/2000/svg" xmlns:xlink="http://www.w3.org/1999/xlink" x="0px" y="0px"
	 viewBox="0 0 64 64" style="enable-background:new 0 0 64 64;" xml:space="preserve">
<style type="text/css">
	.st0{fill:#FFFFFF;}
</style>
<path class="st0" d="M32,2c-5.9,0-10.9,4.3-11.8,10H7c-1.7,0-3,1.3-3,3v44c0,1.7,1.3,3,3,3h50c1.7,0,3-1.3,3-3V15c0-1.7-1.3-3-3-3
	H43.8C42.9,6.3,37.9,2,32,2z M32,4c4.8,0,8.9,3.4,9.8,8H22.2C23.1,7.4,27.2,4,32,4z M7,14h13v2.2c-1.2,0.4-2,1.5-2,2.8
	c0,1.7,1.3,3,3,3s3-1.3,3-3c0-1.3-0.8-2.4-2-2.8V14h20v2.2c-1.2,0.4-2,1.5-2,2.8c0,1.7,1.3,3,3,3s3-1.3,3-3c0-1.3-0.8-2.4-2-2.8V14
	h13c0.6,0,1,0.4,1,1v44c0,0.6-0.4,1-1,1H7c-0.6,0-1-0.4-1-1V15C6,14.4,6.4,14,7,14z M21,18c0.6,0,1,0.4,1,1s-0.4,1-1,1s-1-0.4-1-1
	S20.4,18,21,18z M43,18c0.6,0,1,0.4,1,1s-0.4,1-1,1s-1-0.4-1-1S42.4,18,43,18z M24.1,24c-0.4,0-0.7,0.1-1.1,0.3
	c-0.7,0.4-1.1,1.1-1.1,1.9v21.7c0,0.8,0.4,1.5,1.1,1.9c0.3,0.2,0.7,0.3,1.1,0.3c0.4,0,0.7-0.1,1-0.3l20.1-10.8
	c0.7-0.4,1.1-1.1,1.1-1.9s-0.4-1.5-1.1-1.9L25.2,24.3C24.8,24.1,24.4,24,24.1,24z M25.5,26.7l10.3,5.5L33,35.5L25.5,26.7z M24,28
	l11.8,13.7l-10.3,5.5l5.7-6.7c0.4-0.4,0.3-1-0.1-1.4c-0.4-0.4-1-0.3-1.4,0.1L24,46V28z M37.5,33.2l6.7,3.6c0,0,0.1,0,0.1,0.1
	s-0.1,0.1-0.1,0.1l-6.7,3.6L34.3,37L37.5,33.2z M9,54c-0.6,0-1,0.4-1,1v2c0,0.6,0.4,1,1,1s1-0.4,1-1v-2C10,54.4,9.6,54,9,54z M14,54
	c-0.6,0-1,0.4-1,1v2c0,0.6,0.4,1,1,1s1-0.4,1-1v-2C15,54.4,14.6,54,14,54z M19,54c-0.6,0-1,0.4-1,1v2c0,0.6,0.4,1,1,1s1-0.4,1-1v-2
	C20,54.4,19.6,54,19,54z M24,54c-0.6,0-1,0.4-1,1v2c0,0.6,0.4,1,1,1s1-0.4,1-1v-2C25,54.4,24.6,54,24,54z M29,54c-0.6,0-1,0.4-1,1v2
	c0,0.6,0.4,1,1,1s1-0.4,1-1v-2C30,54.4,29.6,54,29,54z M35,54c-0.6,0-1,0.4-1,1v2c0,0.6,0.4,1,1,1s1-0.4,1-1v-2
	C36,54.4,35.6,54,35,54z M40,54c-0.6,0-1,0.4-1,1v2c0,0.6,0.4,1,1,1s1-0.4,1-1v-2C41,54.4,40.6,54,40,54z M45,54c-0.6,0-1,0.4-1,1v2
	c0,0.6,0.4,1,1,1s1-0.4,1-1v-2C46,54.4,45.6,54,45,54z M50,54c-0.6,0-1,0.4-1,1v2c0,0.6,0.4,1,1,1s1-0.4,1-1v-2
	C51,54.4,50.6,54,50,54z M55,54c-0.6,0-1,0.4-1,1v2c0,0.6,0.4,1,1,1s1-0.4,1-1v-2C56,54.4,55.6,54,55,54z"/>
</svg>
