<?xml version="1.0" encoding="utf-8"?>
<!-- Generator: Adobe Illustrator 24.1.1, SVG Export Plug-In . SVG Version: 6.00 Build 0)  -->
<svg version="1.1" id="Layer_1" xmlns="http://www.w3.org/2000/svg" xmlns:xlink="http://www.w3.org/1999/xlink" x="0px" y="0px"
	 viewBox="0 0 64 64" style="enable-background:new 0 0 64 64;" xml:space="preserve">
<style type="text/css">
	.st0{fill:#FFFFFF;}
</style>
<path class="st0" d="M13,6c-3.9,0-7,3.1-7,7v38c0,3.9,3.1,7,7,7h38c3.9,0,7-3.1,7-7V13c0-3.9-3.1-7-7-7H13z M13,8h38
	c2.8,0,5,2.2,5,5v38c0,2.8-2.2,5-5,5H39.9V43h5.9c0.5,0,0.9-0.4,1-0.8l1.1-7c0.1-0.6-0.4-1.2-1-1.2h-7v-1.6c0-1.9,0.4-2.7,2.7-2.7
	h4.7c0.6,0,1-0.4,1-1v-7.2c0-0.5-0.4-0.9-0.9-1c-1.5-0.1-4.4-0.4-5.8-0.4C35.1,20,31,24.4,31,31.3V34h-6c-0.6,0-1,0.4-1,1v7
	c0,0.6,0.4,1,1,1h6v13H13c-2.8,0-5-2.2-5-5V13C8,10.2,10.2,8,13,8z M12,12c-0.6,0-1,0.4-1,1v2c0,0.6,0.4,1,1,1c0.6,0,1-0.4,1-1v-2
	C13,12.4,12.6,12,12,12z M17,12c-0.6,0-1,0.4-1,1v2c0,0.6,0.4,1,1,1s1-0.4,1-1v-2C18,12.4,17.6,12,17,12z M22,12c-0.6,0-1,0.4-1,1v2
	c0,0.6,0.4,1,1,1s1-0.4,1-1v-2C23,12.4,22.6,12,22,12z M27,12c-0.6,0-1,0.4-1,1v2c0,0.6,0.4,1,1,1s1-0.4,1-1v-2
	C28,12.4,27.6,12,27,12z M32,12c-0.6,0-1,0.4-1,1v2c0,0.6,0.4,1,1,1s1-0.4,1-1v-2C33,12.4,32.6,12,32,12z M37,12c-0.6,0-1,0.4-1,1v2
	c0,0.6,0.4,1,1,1s1-0.4,1-1v-2C38,12.4,37.6,12,37,12z M42,12c-0.6,0-1,0.4-1,1v2c0,0.6,0.4,1,1,1s1-0.4,1-1v-2
	C43,12.4,42.6,12,42,12z M47,12c-0.6,0-1,0.4-1,1v2c0,0.6,0.4,1,1,1s1-0.4,1-1v-2C48,12.4,47.6,12,47,12z M52,12c-0.6,0-1,0.4-1,1v2
	c0,0.6,0.4,1,1,1s1-0.4,1-1v-2C53,12.4,52.6,12,52,12z M41.6,22c1.5,0,3.1,0.1,4.7,0.3v5.4h-3.6c-4.2,0-4.7,2.7-4.7,4.7V36h7.9
	L45,41h-7.1v15H33V41h-7v-5h7v-4.7C33,25.5,36.2,22,41.6,22z"/>
</svg>
