<?xml version="1.0" encoding="utf-8"?>
<!-- Generator: Adobe Illustrator 24.1.1, SVG Export Plug-In . SVG Version: 6.00 Build 0)  -->
<svg version="1.1" id="Layer_1" xmlns="http://www.w3.org/2000/svg" xmlns:xlink="http://www.w3.org/1999/xlink" x="0px" y="0px"
	 viewBox="0 0 80 80" style="enable-background:new 0 0 80 80;" xml:space="preserve">
<style type="text/css">
	.st0{fill:#FFFFFF;}
</style>
<path class="st0" d="M41,9c-0.6,0-1,0.4-1,1s0.4,1,1,1c0.6,0,1-0.4,1-1S41.6,9,41,9z M21.2,9c-1.7,0-3.4,0.6-4.6,1.9l-2.3,2.3
	c-0.8,0.8-1.4,2-2,3.3s-1.1,3-1.6,4.5c-1,3-1.6,5.7-1.6,5.7L9,27.1l0.1,0.3c0,0,5.3,14.3,17.3,26.3s26.3,17.3,26.3,17.3l0.3,0.1
	l0.3-0.1c0,0,2.7-0.7,5.7-1.6c1.5-0.5,3.1-1,4.5-1.6c1.4-0.6,2.6-1.2,3.3-2l2.3-2.3c2.6-2.6,2.6-6.7,0-9.3l-7.3-7.3
	c-2.3-2.3-6.2-2.3-8.5,0l-7.7,7.7c-0.9-0.4-6.9-3.3-11.9-8.3c-5-5-7.9-11-8.3-11.9l7.7-7.7c2.3-2.3,2.3-6.1,0-8.5l-7.3-7.3
	C24.5,9.6,22.8,9,21.2,9z M44.9,9.3c-0.5-0.1-1,0.3-1.1,0.9c-0.1,0.5,0.3,1,0.9,1.1c0.5,0.1,1.1-0.3,1.1-0.9
	C45.8,9.8,45.5,9.3,44.9,9.3z M48.4,10c-0.4,0.1-0.7,0.3-0.8,0.7c-0.1,0.5,0.2,1.1,0.7,1.2c0.5,0.1,1.1-0.2,1.2-0.7
	c0.1-0.5-0.2-1.1-0.7-1.2C48.6,10,48.5,10,48.4,10z M21.2,11c1.2,0,2.3,0.4,3.2,1.3l7.3,7.3c1.6,1.6,1.6,4.1,0,5.7L22.9,34l0.3,0.6
	c0,0,3.4,7.4,9.1,13.1s13.1,9.1,13.1,9.1l0.6,0.3l8.8-8.8c1.6-1.6,4.1-1.6,5.7,0l7.3,7.3c1.7,1.7,1.8,4.3,0.3,6.1
	c-0.1-0.4-0.5-0.7-1-0.7c-0.6,0-1,0.4-1,1c0,0.5,0.3,0.9,0.8,1l-1.4,1.4c-0.4,0.4-1.4,1-2.7,1.5s-2.8,1.1-4.3,1.6
	c-2.8,0.9-5,1.4-5.3,1.5c-0.8-0.3-14-5.4-25.3-16.7S11.4,27.7,11.1,26.9c0.1-0.3,0.6-2.5,1.5-5.3c0.5-1.5,1-3,1.6-4.3
	s1.2-2.3,1.5-2.7l1.4-1.4c0.1,0.4,0.5,0.8,1,0.8c0.6,0,1-0.4,1-1c0-0.4-0.3-0.8-0.7-1C19.1,11.4,20.1,11,21.2,11z M52.1,11.2
	c-0.4,0-0.8,0.2-0.9,0.6c-0.2,0.5,0,1.1,0.5,1.3c0.5,0.2,1.1,0,1.3-0.5c0.2-0.5,0-1.1-0.5-1.3C52.4,11.2,52.2,11.2,52.1,11.2z
	 M55.6,12.9c-0.4,0-0.8,0.1-1,0.5c-0.3,0.5-0.1,1.1,0.4,1.4c0.5,0.3,1.1,0.1,1.4-0.4c0.3-0.5,0.1-1.1-0.4-1.4
	C55.9,12.9,55.8,12.9,55.6,12.9z M21,15c-0.6,0-1,0.4-1,1c0,0.6,0.4,1,1,1s1-0.4,1-1C22,15.4,21.6,15,21,15z M58.5,15
	c-0.3,0-0.5,0.2-0.7,0.4c-0.3,0.4-0.3,1.1,0.2,1.4c0.4,0.3,1.1,0.3,1.4-0.2c0.3-0.4,0.3-1.1-0.2-1.4C59,15,58.8,15,58.5,15z M41,17
	c-0.6,0-1,0.4-1,1s0.4,1,1,1s1-0.4,1-1S41.6,17,41,17z M45.1,17.4c-0.6,0-1,0.4-1,1s0.4,1,1,1s1-0.4,1-1S45.6,17.4,45.1,17.4z
	 M61.5,17.5c-0.3,0-0.5,0.1-0.7,0.3c-0.4,0.4-0.4,1,0,1.4s1,0.4,1.4,0s0.4-1,0-1.4C62,17.6,61.8,17.5,61.5,17.5z M24,18
	c-0.6,0-1,0.4-1,1s0.4,1,1,1s1-0.4,1-1S24.6,18,24,18z M49,18.6c-0.6,0-1,0.4-1,1s0.4,1,1,1s1-0.4,1-1S49.6,18.6,49,18.6z
	 M64.1,20.4c-0.3,0-0.5,0-0.7,0.2c-0.4,0.3-0.5,1-0.2,1.4c0.3,0.4,1,0.5,1.4,0.2c0.4-0.3,0.5-1,0.2-1.4
	C64.6,20.5,64.4,20.4,64.1,20.4z M52.7,20.5c-0.6,0-1,0.4-1,1s0.4,1,1,1s1-0.4,1-1S53.2,20.5,52.7,20.5z M27,21c-0.6,0-1,0.4-1,1
	s0.4,1,1,1s1-0.4,1-1S27.6,21,27,21z M55.8,23.2c-0.6,0-1,0.4-1,1s0.4,1,1,1s1-0.4,1-1S56.4,23.2,55.8,23.2z M66,23.5
	c-0.1,0-0.3,0.1-0.4,0.1c-0.5,0.3-0.6,0.9-0.4,1.4s0.9,0.6,1.4,0.4c0.5-0.3,0.6-0.9,0.4-1.4C66.8,23.6,66.4,23.5,66,23.5z M30,24
	c-0.6,0-1,0.4-1,1s0.4,1,1,1s1-0.4,1-1S30.6,24,30,24z M41,25c-0.6,0-1,0.4-1,1c0,0.6,0.4,1,1,1c0.6,0,1-0.4,1-1
	C42,25.4,41.6,25,41,25z M44.2,25.5c-0.4,0.1-0.7,0.3-0.8,0.7c-0.1,0.5,0.2,1.1,0.7,1.2s1.1-0.2,1.2-0.7c0.1-0.5-0.2-1.1-0.7-1.2
	C44.5,25.4,44.4,25.4,44.2,25.5z M58.5,26.3c-0.6,0-1,0.4-1,1s0.4,1,1,1s1-0.4,1-1S59,26.3,58.5,26.3z M47.6,26.7
	c-0.4,0-0.8,0.1-1,0.5c-0.3,0.5-0.1,1.1,0.4,1.4c0.5,0.3,1.1,0.1,1.4-0.4c0.3-0.5,0.1-1.1-0.4-1.4C47.9,26.8,47.8,26.8,47.6,26.7z
	 M67.8,26.9c-0.1,0-0.3,0-0.4,0.1c-0.5,0.2-0.8,0.8-0.5,1.3c0.2,0.5,0.8,0.8,1.3,0.5c0.5-0.2,0.8-0.8,0.5-1.3
	C68.6,27.1,68.2,26.9,67.8,26.9z M50.2,28.8c-0.3,0-0.5,0.1-0.7,0.3c-0.4,0.4-0.4,1,0,1.4s1,0.4,1.4,0s0.4-1,0-1.4
	C50.7,28.9,50.4,28.8,50.2,28.8z M60.4,30c-0.6,0-1,0.4-1,1s0.4,1,1,1s1-0.4,1-1S61,30,60.4,30z M69.2,30.5c-0.1,0-0.3,0-0.4,0
	c-0.5,0.1-0.9,0.7-0.7,1.2c0.1,0.5,0.7,0.9,1.2,0.7c0.5-0.1,0.9-0.7,0.7-1.2C69.9,30.8,69.5,30.6,69.2,30.5z M52.1,31.5
	c-0.1,0-0.3,0.1-0.4,0.1c-0.5,0.3-0.6,0.9-0.4,1.4s0.9,0.6,1.4,0.4s0.6-0.9,0.4-1.4C52.9,31.6,52.5,31.5,52.1,31.5z M61.6,33.9
	c-0.6,0-1,0.4-1,1s0.4,1,1,1s1-0.4,1-1S62.2,33.9,61.6,33.9z M69.6,34.2c-0.5,0.1-0.9,0.6-0.9,1.1s0.6,0.9,1.1,0.9
	c0.5-0.1,0.9-0.6,0.9-1.1C70.7,34.5,70.2,34.2,69.6,34.2z M53.7,34.6c-0.1,0-0.3,0-0.4,0c-0.5,0.1-0.9,0.7-0.7,1.2s0.7,0.9,1.2,0.7
	c0.5-0.1,0.9-0.7,0.7-1.2C54.4,35,54.1,34.7,53.7,34.6z M54,38c-0.6,0-1,0.4-1,1c0,0.6,0.4,1,1,1c0.6,0,1-0.4,1-1
	C55,38.4,54.6,38,54,38z M70,38c-0.6,0-1,0.4-1,1s0.4,1,1,1c0.6,0,1-0.4,1-1C71,38.4,70.6,38,70,38z M62,38c-0.6,0-1,0.4-1,1
	s0.4,1,1,1s1-0.4,1-1S62.6,38,62,38z M55,49c-0.6,0-1,0.4-1,1s0.4,1,1,1s1-0.4,1-1S55.6,49,55,49z M58,52c-0.6,0-1,0.4-1,1
	s0.4,1,1,1s1-0.4,1-1S58.6,52,58,52z M61,55c-0.6,0-1,0.4-1,1s0.4,1,1,1s1-0.4,1-1S61.6,55,61,55z M64,58c-0.6,0-1,0.4-1,1
	s0.4,1,1,1s1-0.4,1-1S64.6,58,64,58z"/>
</svg>
