<?xml version="1.0" encoding="utf-8"?>
<!-- Generator: Adobe Illustrator 24.1.1, SVG Export Plug-In . SVG Version: 6.00 Build 0)  -->
<svg version="1.1" id="Layer_1" xmlns="http://www.w3.org/2000/svg" xmlns:xlink="http://www.w3.org/1999/xlink" x="0px" y="0px"
	 viewBox="0 0 64 64" style="enable-background:new 0 0 64 64;" xml:space="preserve">
<style type="text/css">
	.st0{fill:#FFFFFF;}
</style>
<path class="st0" d="M32,3C16,3,3,16,3,32s13,29,29,29s29-13,29-29S48,3,32,3z M32,5c14.9,0,27,12.1,27,27S46.9,59,32,59
	S5,46.9,5,32S17.1,5,32,5z M32,9C19.3,9,9,19.3,9,32c0,0.6,0.4,1,1,1s1-0.4,1-1c0-11.6,9.4-21,21-21s21,9.4,21,21s-9.4,21-21,21
	c-0.6,0-1,0.4-1,1s0.4,1,1,1c12.7,0,23-10.3,23-23S44.7,9,32,9z M41.4,20c-0.4,0-0.8,0-1.2,0.2c-0.7,0.3-20.7,8.7-21.5,9.1
	c-0.8,0.3-1.7,1-1.6,2.1c0.2,1.2,1.4,1.7,1.6,1.8l4.9,1.6c0.4,1.3,1.5,5,1.8,5.8c0.1,0.4,0.5,1.5,1.2,1.7c0.6,0.2,1.2,0,1.5-0.3
	l2.8-2.6l4.7,3.6l0.2,0.1c0.4,0.2,0.8,0.3,1.1,0.3c0.4,0,0.6-0.1,0.9-0.2c0.9-0.4,1.3-1.2,1.3-1.3l3.8-19.2c0.3-1.2-0.1-1.9-0.5-2.2
	C42.1,20.2,41.8,20.1,41.4,20z M41,22c0,0.1,0,0.1,0,0.2l-3.7,18.9c0,0.1-0.1,0.1-0.2,0.2c-0.1,0-0.2,0-0.4,0l-6-4.6L27.2,40
	l0.8-4.8c0,0,9.3-8.6,9.7-9c0.4-0.4,0.3-0.5,0.3-0.5c0-0.5-0.6-0.1-0.6-0.1l-12.2,7.5l0,0l-5.8-2c0,0,0,0,0,0c0,0,0.1,0,0.1,0
	c7.2-3,20.9-8.8,21.5-9.1C40.9,22.1,40.9,22,41,22z M12,37c-0.1,0-0.3,0-0.4,0l-1.9,0.6c-0.5,0.2-0.8,0.7-0.7,1.2
	c0.1,0.4,0.5,0.7,1,0.7c0.1,0,0.2,0,0.3,0l1.9-0.6c0.5-0.2,0.8-0.7,0.7-1.2C12.7,37.3,12.4,37.1,12,37z M13.8,41.8
	c-0.1,0-0.3,0.1-0.4,0.1l-1.7,1c-0.5,0.3-0.6,0.9-0.3,1.4c0.2,0.3,0.5,0.5,0.9,0.5c0.2,0,0.4,0,0.5-0.1l1.7-1
	c0.5-0.3,0.6-0.9,0.3-1.4C14.6,41.9,14.2,41.7,13.8,41.8z M17.1,45.8c-0.3,0-0.5,0.1-0.7,0.3L15,47.5c-0.4,0.4-0.4,1,0,1.4
	c0.2,0.2,0.5,0.3,0.7,0.3c0.3,0,0.5-0.1,0.7-0.3l1.4-1.4c0.4-0.4,0.4-1,0-1.4C17.6,45.9,17.4,45.8,17.1,45.8z M21.3,49
	c-0.4-0.1-0.8,0.1-1,0.5l-1,1.7c-0.3,0.5-0.1,1.1,0.3,1.4c0.2,0.1,0.3,0.1,0.5,0.1c0.3,0,0.7-0.2,0.9-0.5l1-1.7
	c0.3-0.5,0.1-1.1-0.3-1.4C21.6,49.1,21.5,49,21.3,49z M25.8,51.1c-0.4,0-0.7,0.3-0.8,0.7l-0.6,1.9c-0.2,0.5,0.1,1.1,0.7,1.2
	c0.1,0,0.2,0,0.3,0c0.4,0,0.8-0.3,1-0.7l0.6-1.9c0.2-0.5-0.1-1.1-0.7-1.2C26.1,51.1,25.9,51.1,25.8,51.1z"/>
</svg>
