<svg xmlns="http://www.w3.org/2000/svg" xmlns:xlink="http://www.w3.org/1999/xlink" viewBox="0 0 64 64" fill="#FFFFFF">
  <path d="M11.072266 5C7.7299369 5 5 7.7299369 5 11.072266L5 52.927734C5 56.270063 7.7299369 59 11.072266 59L52.927734 59C56.270063 59 59 56.270063 59 52.927734L59 11.072266C59 7.7299369 56.270063 5 52.927734 5L11.072266 5 z M 11.072266 7L52.927734 7C55.189406 7 57 8.8105936 57 11.072266L57 52.927734C57 55.189406 55.189406 57 52.927734 57L11.072266 57C8.8105936 57 7 55.189406 7 52.927734L7 11.072266C7 8.8105936 8.8105936 7 11.072266 7 z M 12 10C11.449 10 11 10.445 11 11L11 13C11 13.555 11.449 14 12 14C12.551 14 13 13.555 13 13L13 11C13 10.445 12.551 10 12 10 z M 17 10C16.449 10 16 10.445 16 11L16 13C16 13.555 16.449 14 17 14C17.551 14 18 13.555 18 13L18 11C18 10.445 17.551 10 17 10 z M 22 10C21.449 10 21 10.445 21 11L21 13C21 13.555 21.449 14 22 14C22.551 14 23 13.555 23 13L23 11C23 10.445 22.551 10 22 10 z M 27 10C26.449 10 26 10.445 26 11L26 13C26 13.555 26.449 14 27 14C27.551 14 28 13.555 28 13L28 11C28 10.445 27.551 10 27 10 z M 32 10C31.449 10 31 10.445 31 11L31 13C31 13.555 31.449 14 32 14C32.551 14 33 13.555 33 13L33 11C33 10.445 32.551 10 32 10 z M 37 10C36.449 10 36 10.445 36 11L36 13C36 13.555 36.449 14 37 14C37.551 14 38 13.555 38 13L38 11C38 10.445 37.551 10 37 10 z M 42 10C41.449 10 41 10.445 41 11L41 13C41 13.555 41.449 14 42 14C42.551 14 43 13.555 43 13L43 11C43 10.445 42.551 10 42 10 z M 47 10C46.449 10 46 10.445 46 11L46 13C46 13.555 46.449 14 47 14C47.551 14 48 13.555 48 13L48 11C48 10.445 47.551 10 47 10 z M 52 10C51.449 10 51 10.445 51 11L51 13C51 13.555 51.449 14 52 14C52.551 14 53 13.555 53 13L53 11C53 10.445 52.551 10 52 10 z M 33 19 A 1.0001 1.0001 0 0 0 32 20L32 39C32 41.216061 30.216061 43 28 43C25.783939 43 24 41.216061 24 39C24 36.783939 25.783939 35 28 35C28.276171 35 28.537907 35.028481 28.796875 35.082031 A 1.0001 1.0001 0 0 0 30 34.101562L30 30.058594 A 1.0001 1.0001 0 0 0 29.109375 29.064453C28.754546 29.025508 28.385098 29 28 29C22.493207 29 18 33.493207 18 39C18 44.506793 22.493207 49 28 49C33.506793 49 38 44.506793 38 39L38 29.630859C39.517196 30.426919 41.170077 31 43 31C43.745034 31 44.482823 30.92232 45.205078 30.771484 A 1.0001 1.0001 0 0 0 46 29.792969L46 25.632812 A 1.0001 1.0001 0 0 0 44.664062 24.691406C44.107397 24.889907 43.550472 25 43 25C40.233158 25 38 22.766842 38 20 A 1.0001 1.0001 0 0 0 37 19L33 19 z M 34 21L36.203125 21C36.710172 24.360977 39.502959 27 43 27C43.34994 27 43.663479 26.873156 44 26.818359L44 28.896484C43.667045 28.935027 43.338163 29 43 29C40.970194 29 39.115198 28.321382 37.601562 27.181641 A 1.0001 1.0001 0 0 0 36 27.980469L36 39C36 43.423207 32.423207 47 28 47C23.576793 47 20 43.423207 20 39C20 34.576793 23.576793 31 28 31L28 33C24.700061 33 22 35.700061 22 39C22 42.299939 24.700061 45 28 45C31.299939 45 34 42.299939 34 39L34 21 z" fill="#FFFFFF" />
</svg>