<?xml version="1.0" encoding="utf-8"?>
<!-- Generator: Adobe Illustrator 24.1.1, SVG Export Plug-In . SVG Version: 6.00 Build 0)  -->
<svg version="1.1" id="Layer_1" xmlns="http://www.w3.org/2000/svg" xmlns:xlink="http://www.w3.org/1999/xlink" x="0px" y="0px"
	 viewBox="0 0 80 80" style="enable-background:new 0 0 80 80;" xml:space="preserve">
<style type="text/css">
	.st0{fill:#FFFFFF;}
</style>
<path class="st0" d="M39.8,13.8c-10.5,0-20.3,0.8-25.6,1.9h0c-3.8,0.9-7.2,3.5-7.9,7.6l0,0v0C5.6,27.1,5,32.8,5,40
	c0,7.2,0.6,12.7,1.4,16.8c0.7,3.9,4.1,6.7,7.9,7.6l0,0h0c5.6,1.1,15.1,1.9,25.6,1.9s19.9-0.8,25.6-1.9h0l0,0
	c3.8-0.9,7.2-3.5,7.9-7.6l0,0v0c0.6-4,1.4-9.7,1.6-16.9v0c0-7.2-0.8-12.9-1.6-16.9c-0.7-3.9-4.1-6.7-7.9-7.6l0,0l0,0
	C59.9,14.5,50.2,13.8,39.8,13.8z M39.8,15.8c10.3,0,19.9,0.8,25.4,1.6c3.1,0.7,5.8,3,6.3,6l0,0v0c0.8,3.9,1.6,9.5,1.6,16.5
	c-0.2,7-0.9,12.6-1.6,16.6c-0.6,3.2-3.2,5.3-6.3,6c-5.4,1.1-14.8,1.9-25.2,1.9s-19.8-0.8-25.2-1.9c-3.1-0.7-5.8-3-6.3-6l0,0
	C7.6,52.5,7,47,7,40s0.6-12.7,1.3-16.4c0.6-3.2,3.2-5.3,6.3-6C19.6,16.6,29.4,15.8,39.8,15.8z M15,23c-0.6,0-1,0.4-1,1s0.4,1,1,1
	s1-0.4,1-1S15.6,23,15,23z M31,25.3v29.5L56.6,40L31,25.3z M14,27c-0.6,0-1,0.4-1,1s0.4,1,1,1s1-0.4,1-1S14.6,27,14,27z M33,28.7
	L52.6,40L33,51.3V28.7z M14,31c-0.6,0-1,0.4-1,1c0,0.6,0.4,1,1,1s1-0.4,1-1C15,31.4,14.6,31,14,31z M36,33c-0.6,0-1,0.4-1,1
	s0.4,1,1,1s1-0.4,1-1S36.6,33,36,33z M14,35c-0.6,0-1,0.4-1,1s0.4,1,1,1s1-0.4,1-1S14.6,35,14,35z M36,37c-0.6,0-1,0.4-1,1
	s0.4,1,1,1s1-0.4,1-1S36.6,37,36,37z M14,39c-0.6,0-1,0.4-1,1s0.4,1,1,1s1-0.4,1-1S14.6,39,14,39z M36,41c-0.6,0-1,0.4-1,1
	s0.4,1,1,1s1-0.4,1-1S36.6,41,36,41z M14,43c-0.6,0-1,0.4-1,1s0.4,1,1,1s1-0.4,1-1S14.6,43,14,43z M36,45c-0.6,0-1,0.4-1,1
	s0.4,1,1,1s1-0.4,1-1S36.6,45,36,45z M14,47c-0.6,0-1,0.4-1,1s0.4,1,1,1s1-0.4,1-1S14.6,47,14,47z M14,51c-0.6,0-1,0.4-1,1
	s0.4,1,1,1s1-0.4,1-1S14.6,51,14,51z M15,55c-0.6,0-1,0.4-1,1s0.4,1,1,1s1-0.4,1-1S15.6,55,15,55z"/>
</svg>
