<?xml version="1.0" encoding="utf-8"?>
<!-- Generator: Adobe Illustrator 24.1.1, SVG Export Plug-In . SVG Version: 6.00 Build 0)  -->
<svg version="1.1" id="Layer_1" xmlns="http://www.w3.org/2000/svg" xmlns:xlink="http://www.w3.org/1999/xlink" x="0px" y="0px"
	 viewBox="0 0 106.9 106.8" style="enable-background:new 0 0 106.9 106.8;" xml:space="preserve">
<style type="text/css">
	.st0{fill:#ED2224;}
	.st1{fill:#FFFFFF;}
</style>
<g>
	<path class="st0" d="M0,53.4c0-12.8,0-25.7,0-38.5C0,7.5,4.7,1.7,12,0.3C12.9,0.1,13.9,0,14.8,0c25.8,0,51.5,0,77.3,0
		c8.1,0,14.4,6.1,14.8,14.2c0,0.3,0,0.6,0,1c0,25.5,0,50.9,0,76.4c0,5.9-2.5,10.5-7.7,13.4c-2.2,1.2-4.5,1.8-7,1.8
		c-25.8,0-51.7,0-77.5,0C6.5,106.8,0,100.4,0,92.1C0,79.2,0,66.3,0,53.4z M48.2,38.3c0-2.8,0-5.5,0-8.1c-9.9,0-19.7,0-29.5,0
		c0,15.5,0,31,0,46.5c3.1,0,6.1,0,9.2,0c0-6.3,0-12.5,0-18.9c6.4,0,12.6,0,18.9,0c0-2.8,0-5.4,0-8.2c-6.3,0-12.6,0-18.8,0
		c0-3.9,0-7.6,0-11.4C34.7,38.3,41.4,38.3,48.2,38.3z M66.7,64.3c0-0.5,0-1,0-1.5c0-6.4,0-12.7,0-19.1c0-0.6,0.1-1.2,0.3-1.7
		c1.5-3.2,5.6-5,9-3.9c2.7,0.9,4.2,3.2,4.2,6.5c0,6.1,0,12.2,0,18.3c0,0.4,0,0.8,0,1.3c3,0,5.9,0,8.8,0c0-0.3,0.1-0.6,0.1-0.8
		c0-6.8,0-13.5,0-20.3c0-1.5-0.2-3-0.5-4.5c-0.7-3.4-2.3-6.4-5.8-7.7c-4.7-1.6-9.3-1.5-13.5,1.4c-1.2,0.8-2.2,1.9-3.4,2.8
		c-0.2-1.1-0.6-2.1-0.7-3.2c-0.1-0.8-0.4-1.1-1.3-1.1c-1.5,0.1-3,0-4.4,0c-2,0-4.1,0-6.2,0c0,2.5,0,4.9,0,7.4c1.6,0,3.1,0,4.7,0
		c0,4.4,0,8.7,0,13c0,4.3,0,8.6,0,12.9C60.9,64.3,63.7,64.3,66.7,64.3z M100.6,78.5C100.6,78.5,100.6,78.5,100.6,78.5
		c0,4.7,0.1,9.4,0,14c-0.1,5-3.4,8-8.4,8c-5,0-10.1,0-15.1,0c-0.4,0-0.8-0.1-1.1,0.1c-0.3,0.2-0.7,0.6-0.7,0.9c0,0.3,0.4,0.7,0.7,1
		c0.2,0.1,0.5,0.1,0.8,0.1c5.3,0,10.6,0,16,0c0.6,0,1.1,0,1.7-0.1c5.3-1,8.3-4.8,8.3-10.7c0-9.2,0-18.5,0-27.7c0-0.2,0.1-0.6,0-0.7
		c-0.3-0.3-0.6-0.8-1-0.8c-0.3,0-0.7,0.4-0.9,0.7c-0.2,0.3-0.1,0.8-0.1,1.2C100.6,69.1,100.6,73.8,100.6,78.5z M6.4,29.1
		C6.5,29.1,6.5,29.1,6.4,29.1c0.1-4.9,0-9.8,0.1-14.7c0-2.7,1.4-4.8,3.8-6.1c1.5-0.9,3.1-1.2,4.8-1.2c5.1,0,10.2,0,15.2,0
		c0.7,0,1.5,0,1.5-0.9c0-0.9-0.7-1-1.4-1c-5,0-10.1-0.1-15.1-0.1c-1,0-1.9,0-2.9,0.2c-5,1-8,4.8-8,10c0,9.4,0,18.9,0,28.3
		c0,0.2-0.1,0.6,0,0.7c0.3,0.3,0.6,0.8,1,0.8c0.3,0,0.8-0.4,1-0.8c0.2-0.3,0.1-0.7,0.1-1.1C6.4,38.6,6.4,33.9,6.4,29.1z"/>
	<path class="st1" d="M48.2,38.3c-6.8,0-13.5,0-20.2,0c0,3.8,0,7.5,0,11.4c6.3,0,12.5,0,18.8,0c0,2.8,0,5.4,0,8.2
		c-6.2,0-12.5,0-18.9,0c0,6.4,0,12.6,0,18.9c-3.1,0-6.2,0-9.2,0c0-15.5,0-30.9,0-46.5c9.8,0,19.6,0,29.5,0
		C48.2,32.8,48.2,35.4,48.2,38.3z"/>
	<path class="st1" d="M66.7,64.3c-3,0-5.8,0-8.8,0c0-4.3,0-8.6,0-12.9c0-4.3,0-8.5,0-13c-1.6,0-3.1,0-4.7,0c0-2.6,0-4.9,0-7.4
		c2.1,0,4.1,0,6.2,0c1.5,0,3,0.1,4.4,0c0.9,0,1.2,0.3,1.3,1.1c0.2,1.1,0.5,2.2,0.7,3.2c1.1-1,2.2-2,3.4-2.8c4.2-2.9,8.9-3,13.5-1.4
		c3.5,1.2,5.1,4.2,5.8,7.7c0.3,1.5,0.5,3,0.5,4.5c0,6.8,0,13.5,0,20.3c0,0.2,0,0.5-0.1,0.8c-2.9,0-5.7,0-8.8,0c0-0.4,0-0.9,0-1.3
		c0-6.1,0-12.2,0-18.3c0-3.4-1.5-5.7-4.2-6.5c-3.4-1.1-7.5,0.7-9,3.9c-0.2,0.5-0.3,1.2-0.3,1.7c0,6.4,0,12.7,0,19.1
		C66.7,63.3,66.7,63.8,66.7,64.3z"/>
	<path class="st1" d="M100.6,78.5c0-4.7,0-9.4,0-14.1c0-0.4-0.1-0.9,0.1-1.2c0.2-0.3,0.6-0.8,0.9-0.7c0.4,0,0.7,0.5,1,0.8
		c0.1,0.1,0,0.5,0,0.7c0,9.2,0.1,18.5,0,27.7c0,5.9-3,9.7-8.3,10.7c-0.5,0.1-1.1,0.1-1.7,0.1c-5.3,0-10.6,0-16,0
		c-0.3,0-0.6,0.1-0.8-0.1c-0.3-0.2-0.7-0.6-0.7-1c0-0.3,0.4-0.7,0.7-0.9c0.3-0.2,0.7-0.1,1.1-0.1c5,0,10.1,0,15.1,0c5,0,8.3-3,8.4-8
		C100.8,87.9,100.6,83.2,100.6,78.5C100.6,78.5,100.6,78.5,100.6,78.5z"/>
	<path class="st1" d="M6.4,29.1c0,4.7,0,9.4,0,14.1c0,0.4,0.1,0.8-0.1,1.1c-0.2,0.4-0.6,0.8-1,0.8c-0.3,0-0.7-0.5-1-0.8
		c-0.1-0.1,0-0.5,0-0.7c0-9.4,0-18.9,0-28.3c0-5.3,3.1-9,8-10c0.9-0.2,1.9-0.2,2.9-0.2c5,0,10.1,0,15.1,0.1c0.7,0,1.5,0,1.4,1
		c0,1-0.8,0.9-1.5,0.9c-5.1,0-10.2,0-15.2,0c-1.7,0-3.3,0.3-4.8,1.2C8,9.6,6.6,11.7,6.5,14.4C6.4,19.3,6.5,24.2,6.4,29.1
		C6.5,29.1,6.5,29.1,6.4,29.1z"/>
</g>
</svg>
