<?xml version="1.0" encoding="utf-8"?>
<!-- Generator: Adobe Illustrator 24.1.1, SVG Export Plug-In . SVG Version: 6.00 Build 0)  -->
<svg version="1.1" id="Layer_1" xmlns="http://www.w3.org/2000/svg" xmlns:xlink="http://www.w3.org/1999/xlink" x="0px" y="0px"
	 viewBox="0 0 49.2 24.7" style="enable-background:new 0 0 49.2 24.7;" xml:space="preserve">
<style type="text/css">
	.st0{fill:#032EA1;}
	.st1{fill:#E00025;}
	.st2{fill:#FFFFFF;stroke:#000000;stroke-width:6.000000e-02;stroke-linejoin:bevel;}
	.st3{fill:#FFFFFF;stroke:#000000;stroke-width:6.000000e-02;stroke-miterlimit:6.4;}
	.st4{fill:none;stroke:#000000;stroke-width:5.000000e-02;stroke-miterlimit:6.4;}
	.st5{fill:none;stroke:#000000;stroke-width:6.000000e-02;stroke-miterlimit:6.4;}
</style>
<g id="Layer_2_2_">
	<g id="Layer_1-2_1_">
		<path class="st0" d="M0,0h49.2v24.6H0V0z"/>
		<path class="st1" d="M0,6.2h49.2v12.3H0V6.2z"/>
		<path class="st2" d="M21.2,11.6h6.9v2.7h-6.9V11.6z"/>
		<path class="st2" d="M27.8,13.1H28v1.1h-0.2V13.1z M21.2,12.6h6.9v0.3h-6.9V12.6z M21.2,12.1h6.9v0.3h-6.9V12.1z"/>
		<path class="st2" d="M21.2,11.7h6.9V12h-6.9V11.7z"/>
		<path class="st2" d="M23,13.1h0.2v1.1H23V13.1z M26,13.1h0.2v1.1H26V13.1z M21.2,13.1h0.2v1.1h-0.2V13.1z M21.6,13.1h0.2v1.1h-0.2
			V13.1z M22.1,13.1h0.2v1.1h-0.2V13.1z M22.6,13.1h0.2v1.1h-0.2L22.6,13.1z M26.4,13.1h0.2v1.1h-0.2V13.1z M26.9,13.1h0.2v1.1h-0.2
			V13.1z M27.3,13.1h0.2v1.1h-0.2V13.1z"/>
		<path class="st3" d="M18.4,14.4c0.1-0.1,0.2-0.2,0.3-0.3h11.8c0,0.1,0.1,0.3,0.3,0.3H18.4z"/>
		<path class="st3" d="M24.5,7.5c0,0,0-0.3,0.1-0.3c0.1,0,0.1,0.3,0.1,0.3H24.5z M23.7,10.8v-0.3c0-0.2-0.2-0.2-0.2-0.3
			c0-0.1,0-0.2,0-0.3c0.1,0.3,0.2,0.2,0.2,0.1s-0.1-0.2-0.2-0.4c0-0.1,0-0.3,0.1-0.4c0,0.2,0.1,0.3,0.1,0.3c0.1,0,0.1,0,0.1-0.1
			c0-0.1-0.1-0.2-0.1-0.3c0-0.1,0-0.2,0.1-0.3c0,0.2,0,0.3,0.1,0.3s0-0.3,0-0.3c0-0.1,0.1-0.2,0.1-0.2c0.1,0.2,0.1,0.2,0.1,0.2
			c0.1,0,0.1-0.1,0-0.2c-0.1-0.1-0.1-0.1,0-0.2c0,0,0,0,0,0c0.1,0.1,0.1,0.1,0.1,0L24,8h1v0.3c0,0.1,0.1,0.1,0.1,0
			c0.1,0.1,0.1,0.1,0,0.2c0,0,0,0,0,0c-0.1,0.1-0.1,0.2,0,0.2c0.1,0,0.1,0,0.1-0.2c0,0.1,0.1,0.1,0.1,0.2c0,0-0.2,0.3,0,0.3
			c0.2,0.1,0.1-0.1,0.1-0.3c0.1,0.1,0.1,0.2,0.1,0.3c0,0.1-0.1,0.2-0.1,0.3c0,0.1,0,0.1,0.1,0.1s0.1-0.1,0.1-0.3
			c0.1,0.1,0.1,0.2,0.1,0.4c-0.1,0.2-0.2,0.3-0.2,0.4s0.1,0.1,0.2-0.1c0,0.1,0,0.2,0,0.3c0,0.1-0.2,0.1-0.2,0.3v0.3L23.7,10.8z
			 M24.1,8V7.8h0.9V8H24.1z M24.2,7.8V7.6H25v0.2H24.2z M24.3,7.6V7.5h0.6v0.2L24.3,7.6z M26.4,14.4c-0.1-0.1-0.3-0.2-0.3-0.3v-1.5
			l0.2-0.2H23l0.2,0.2v1.5c0,0.1-0.1,0.3-0.3,0.3L26.4,14.4z"/>
		<path class="st2" d="M23.6,13.1h0.2v1.1h-0.2V13.1z M25.4,13.1h0.2v1.1h-0.2V13.1z"/>
		<path class="st3" d="M23,10.7v1.7h3.2v-1.7c-0.1,0-0.1,0.1-0.2,0.2v0.7h-3v-0.7C23.1,10.8,23,10.7,23,10.7L23,10.7z"/>
		<path class="st3" d="M25.8,14.4c-0.1-0.1-0.3-0.2-0.3-0.3v-1.7c0-0.1,0.1-0.1,0.2-0.2h-2.2c0.1,0.1,0.2,0.1,0.3,0.2v1.7
			c0,0.1-0.2,0.3-0.3,0.3L25.8,14.4z"/>
		<path class="st3" d="M26.1,12.2V11h-0.3v-0.1h-2.4V11h-0.3v1.2H26.1z M25.3,14.4c-0.1-0.1-0.3-0.2-0.3-0.3v-1.4l0.1-0.1H24
			l0.1,0.1v1.4c0,0.1-0.2,0.3-0.3,0.3L25.3,14.4z"/>
		<path class="st3" d="M24.3,12.5h0.5v1.9h-0.5V12.5z"/>
		<path class="st2" d="M25.2,12.1c0-0.1,0.4-0.1,0.5-0.2h-2.2C23.7,12,24,12,24,12.1l0.1,0.2H25L25.2,12.1z"/>
		<path class="st3" d="M25.6,10.8c0-0.3,0-0.4,0.1-0.4v1c-0.2,0.1-0.3,0.2-0.4,0.4h-1.4c-0.1-0.2-0.2-0.3-0.4-0.4v-1
			c0.1,0,0.1,0.1,0.1,0.4L25.6,10.8z M25.7,10.7c0-0.2,0.1-0.4,0.3-0.4v0.3c-0.1,0-0.2,0.1-0.2,0.2c0,0.1,0.1,0.2,0.1,0.2v0.9h-0.2
			L25.7,10.7z"/>
		<path class="st3" d="M23.5,10.7c0-0.2-0.1-0.4-0.3-0.4v0.3c0.1,0,0.2,0.1,0.2,0.2c0,0.1-0.1,0.2-0.1,0.2v0.9h0.2L23.5,10.7z"/>
		<path class="st4" d="M24.1,8.3h1 M24,8.7h1.3 M23.8,9.1h1.5 M23.7,9.5h1.8 M23.7,10.1h1.9"/>
		<path class="st5" d="M23.1,11.9h3 M24.1,11.9h1.1v0.4H24L24.1,11.9z"/>
		<path class="st3" d="M23.9,11c0.1,0.2,0.2,0.5,0.2,0.8h1c0-0.3,0-0.6,0.2-0.8H23.9z M24.5,8.5h-0.1V8.2c0.1,0,0.1,0,0.1,0.1
			c0-0.1,0.1-0.1,0.1-0.2c0.1-0.1,0.1,0,0.1,0.2c0-0.1,0.1-0.1,0.1-0.1v0.3h-0.1H24.5z"/>
		<path class="st3" d="M24.5,8.8l-0.2-0.2V8.5c0.1,0,0.2,0,0.2,0.1c0-0.1,0.1-0.2,0.2-0.3c0.1,0.1,0.2,0.2,0.2,0.3
			c0-0.1,0.1-0.1,0.2-0.1v0.2l-0.2,0.2H24.5z"/>
		<path class="st3" d="M24.5,9.4l-0.3-0.2V8.8c0.1,0,0.2,0,0.2,0.2c0-0.2,0.1-0.3,0.2-0.4c0.1,0.1,0.2,0.3,0.2,0.4
			c0-0.1,0.1-0.2,0.2-0.2v0.3l-0.3,0.2L24.5,9.4z M25,9.7l-0.3,0.3h-0.3l-0.3-0.3H25z M24,10.3c0.1,0.1,0.2,0.2,0.2,0.5h0.7
			c0-0.3,0.1-0.4,0.2-0.5H24z"/>
		<path class="st2" d="M25.1,9.7V9.4c-0.1,0-0.2,0.1-0.2,0.2c0-0.2-0.2-0.4-0.3-0.5c-0.2,0.1-0.3,0.3-0.3,0.5c0-0.1-0.1-0.2-0.3-0.2
			v0.3H25.1z"/>
		<path class="st2" d="M25.2,10.3V9.9c-0.1,0-0.2,0.1-0.3,0.2c-0.1-0.2-0.2-0.4-0.3-0.5c-0.2,0.1-0.4,0.4-0.3,0.5
			c0-0.1-0.1-0.2-0.2-0.2v0.4H25.2z"/>
		<path class="st2" d="M25.3,11v-0.4c-0.1,0-0.2,0.1-0.3,0.2c-0.1-0.3-0.2-0.5-0.4-0.7c-0.2,0.2-0.4,0.4-0.4,0.7
			c-0.1-0.1-0.2-0.2-0.3-0.2V11H25.3z"/>
		<path class="st2" d="M25.3,11.9v-0.4c-0.1,0.1-0.2,0.2-0.2,0.3c0-0.4-0.1-0.7-0.4-1c-0.3,0.3-0.4,0.6-0.4,1c0-0.1-0.1-0.2-0.2-0.3
			v0.4H25.3z"/>
		<path class="st3" d="M25.2,12.5v-0.4c-0.2,0-0.2,0.1-0.2,0.2c0-0.3-0.1-0.5-0.4-0.7c-0.2,0.1-0.3,0.4-0.4,0.7
			c0-0.1-0.1-0.1-0.2-0.2v0.4H25.2z"/>
		<g id="a_1_">
			<path class="st3" d="M18.7,14.1v-1.3c0-0.1-0.1-0.3-0.3-0.3v-1.1l0.2,0.1l0.3,1.2v1.4H18.7z"/>
			<path class="st3" d="M18.7,14.1v-1.3c0-0.1-0.1-0.3-0.3-0.3v-1.2c0.1,0,0.2,0.2,0.2,0.2l0.3,1.2v1.4L18.7,14.1z"/>
			<path class="st3" d="M18.6,14.4c0.1-0.1,0.3-0.2,0.3-0.3v-1.6l-0.1-0.1h2.7l-0.1,0.1v1.6c0,0.1,0.1,0.3,0.2,0.3H18.6z"/>
			<path class="st3" d="M21,14.4c-0.1-0.1-0.3-0.2-0.3-0.3v-1.5l0.2-0.2h-1.8l0.2,0.2v1.5c0,0.1-0.1,0.3-0.3,0.3H21z"/>
			<path class="st3" d="M20.7,14.4c-0.1-0.1-0.3-0.2-0.3-0.3v-1.3l0.1-0.2h-1.1l0.1,0.2v1.3c0,0.1-0.2,0.3-0.3,0.3H20.7z"/>
			<path class="st3" d="M19.7,12.5h0.6v1.9h-0.6V12.5z"/>
			<path class="st2" d="M19,13.1h0.2v1.1H19V13.1z M20.9,13.1h0.2v1.1h-0.2L20.9,13.1z M18.8,11.4h0.3v1.1h-0.3L18.8,11.4z
				 M18.8,11.2h0.3v0.2h-0.3L18.8,11.2z"/>
			<path class="st2" d="M21,11.6h0.4v0.8H21V11.6z"/>
			<path class="st3" d="M19.1,12.4v-1.8c0.1,0,0.1,0.3,0.3,0.3c0.2,0,0.1-0.1,0-0.2c-0.1-0.1-0.1-0.3,0-0.4c0,0.1,0.2,0.2,0.2,0.1
				s-0.2-0.2-0.1-0.5c0,0.2,0.2,0.2,0.1,0.1s-0.1-0.2,0-0.4c0.1,0.2,0.1,0.2,0.1,0.1s0-0.4,0.3-0.5c0,0,0-0.2,0.1-0.2
				s0.1,0.2,0.1,0.2c0.3,0.1,0.3,0.3,0.3,0.5c0,0.2,0.1,0.1,0.1-0.1c0.1,0.2,0,0.3,0,0.4s0.1,0.1,0.1-0.1c0.1,0.3,0,0.3-0.1,0.5
				s0.1,0,0.2-0.1c0.1,0.1,0.1,0.3,0,0.4c0,0.1-0.1,0.2,0,0.2s0.1-0.3,0.2-0.3v1.8L19.1,12.4z M18.7,11v1.4h0.1V11
				C18.8,11,18.7,11,18.7,11L18.7,11z"/>
			<path class="st3" d="M18.7,11.9c0.2,0.1,0.4,0.3,0.4,0.5h-0.4V11.9z M21.3,11.5v0.9h0.1v-0.9C21.4,11.5,21.3,11.5,21.3,11.5z"/>
			<path class="st3" d="M21.4,11.9c-0.2,0.1-0.4,0.3-0.4,0.5h0.4V11.9z"/>
			<path class="st3" d="M20.2,9.8l0.1-0.1V9.6c0,0-0.1,0-0.1,0.1c0-0.1-0.1-0.1-0.2-0.2c-0.1,0-0.1,0.1-0.2,0.2c0,0-0.1,0-0.1-0.1
				v0.1l0.1,0.1H20.2z"/>
			<path class="st3" d="M20.2,10.1V10V9.9c0,0-0.1,0-0.1,0.1c0-0.1-0.1-0.1-0.2-0.2c-0.1,0-0.1,0.1-0.1,0.2c0,0-0.1-0.1-0.1-0.1V10
				v0.1H20.2z"/>
			<path class="st3" d="M20.2,10.6l0.2-0.2v-0.2c-0.1,0-0.1,0-0.1,0.1c0-0.1-0.1-0.2-0.2-0.2c-0.1-0.1-0.2,0.1-0.2,0.2
				c0-0.1-0.1-0.1-0.1-0.1v0.2l0.1,0.2H20.2z"/>
			<path class="st3" d="M20.3,11c0,0,0.2-0.2,0.2-0.3v-0.2c-0.1,0-0.2,0-0.2,0.1c0-0.2-0.1-0.2-0.3-0.3c-0.1,0.1-0.2,0.1-0.3,0.3
				c0-0.1-0.1-0.1-0.2-0.1v0.2c0,0.1,0.1,0.2,0.2,0.3H20.3z"/>
			<path class="st3" d="M20.4,11.7c0,0,0.3-0.3,0.3-0.4V11c-0.1,0-0.2,0.1-0.3,0.2c0-0.2-0.2-0.4-0.3-0.6c-0.2,0.1-0.3,0.4-0.3,0.6
				c0-0.1-0.1-0.2-0.3-0.2v0.3c0.1,0.1,0.2,0.3,0.3,0.4H20.4z"/>
			<path class="st3" d="M20.4,12.1c0.1-0.1,0.2-0.2,0.3-0.3v-0.3c-0.1,0-0.2,0.1-0.3,0.2c0-0.2-0.2-0.4-0.3-0.6
				c-0.2,0.1-0.3,0.3-0.3,0.6c0-0.1-0.1-0.2-0.3-0.2v0.3c0.1,0.1,0.2,0.2,0.3,0.3H20.4z"/>
			<path class="st3" d="M20.5,12.4c0-0.3-0.2-0.6-0.4-0.7c-0.2,0.2-0.4,0.4-0.4,0.7H20.5z"/>
			<path class="st3" d="M20.6,12.5v-0.4c-0.1,0-0.2,0.1-0.3,0.2c0-0.2-0.1-0.3-0.3-0.5c-0.1,0.1-0.2,0.3-0.3,0.5
				c-0.1-0.1-0.2-0.2-0.3-0.2v0.4H20.6z"/>
		</g>
		<g id="a-2_1_">
			<path class="st3" d="M30.5,14.1v-1.3c0-0.1,0.1-0.3,0.3-0.3v-1.1l-0.2,0.1l-0.3,1.1v1.4L30.5,14.1z"/>
			<path class="st3" d="M30.5,14.1v-1.3c0-0.1,0.1-0.3,0.3-0.3v-1.2c-0.2,0-0.2,0.2-0.2,0.2l-0.3,1.1v1.4L30.5,14.1z"/>
			<path class="st3" d="M30.7,14.4c-0.1-0.1-0.3-0.2-0.3-0.3v-1.6l0.1-0.1h-2.7l0.1,0.1v1.6c0,0.1-0.1,0.3-0.2,0.3H30.7z"/>
			<path class="st3" d="M28.2,14.4c0.1-0.1,0.3-0.2,0.3-0.3v-1.5l-0.2-0.2h1.8l-0.2,0.2v1.5c0,0.1,0.2,0.3,0.3,0.3H28.2z"/>
			<path class="st3" d="M28.5,14.4c0.1-0.1,0.3-0.2,0.3-0.3v-1.3l-0.1-0.2h1.1l-0.1,0.2v1.3c0,0.1,0.1,0.3,0.3,0.3H28.5z"/>
			<path class="st3" d="M29.5,12.5h-0.6v1.9h0.6V12.5z"/>
			<path class="st2" d="M30.2,13.1H30v1.1h0.2V13.1z M28.3,13.1h-0.2v1.1h0.2L28.3,13.1z M30.4,11.4h-0.3v1.1h0.3V11.4z M30.4,11.2
				h-0.3v0.2h0.3V11.2z"/>
			<path class="st2" d="M28.2,11.6h-0.4v0.8h0.4V11.6z"/>
			<path class="st3" d="M30.1,12.4v-1.8c-0.1,0-0.1,0.3-0.3,0.3c-0.2,0-0.1-0.1,0-0.2c0.1-0.1,0.1-0.3,0-0.4
				c-0.1,0.1-0.2,0.2-0.2,0.1c0-0.1,0.2-0.2,0.1-0.5c0,0.2-0.2,0.2-0.1,0.1s0.1-0.2,0-0.4c-0.1,0.2-0.1,0.2-0.1,0.1s0-0.4-0.3-0.5
				c0,0,0-0.2-0.1-0.2C29,9,29,9.1,29,9.1c-0.3,0.1-0.3,0.3-0.3,0.5c0,0.2-0.1,0.1-0.1-0.1c-0.1,0.2,0,0.3,0,0.4s-0.1,0.1-0.1-0.1
				c-0.1,0.3,0,0.3,0.1,0.5c0.1,0.2-0.1,0-0.2-0.1c-0.1,0.1-0.1,0.3,0,0.4c0,0.1,0,0.2,0,0.2s-0.1-0.3-0.2-0.3v1.8L30.1,12.4z
				 M30.6,11v1.4h-0.2V11C30.4,11,30.5,11,30.6,11z"/>
			<path class="st3" d="M30.5,11.9c-0.2,0.1-0.4,0.3-0.4,0.5h0.4V11.9z M27.9,11.5v0.9h-0.1v-0.9C27.8,11.5,27.9,11.5,27.9,11.5z"/>
			<path class="st3" d="M27.8,11.9c0.2,0.1,0.4,0.3,0.4,0.5h-0.4V11.9z"/>
			<path class="st3" d="M29,9.8l-0.1-0.1V9.6c0,0,0.1,0,0.1,0.1c0-0.1,0.1-0.2,0.2-0.2c0.1,0,0.1,0.1,0.2,0.2c0,0,0.1,0,0.1-0.1v0.1
				l-0.1,0.1H29z"/>
			<path class="st3" d="M29,10.1V10V9.9c0,0,0.1,0,0.1,0.1c0-0.1,0.1-0.1,0.2-0.2c0.1,0,0.1,0.1,0.2,0.2c0,0,0-0.1,0.1-0.1V10
				l-0.1,0.1H29z"/>
			<path class="st3" d="M29,10.6l-0.2-0.2v-0.2c0.1,0,0.1,0,0.1,0.1c0-0.1,0.1-0.2,0.2-0.2c0.1-0.1,0.2,0.1,0.2,0.2
				c0-0.1,0.1-0.1,0.1-0.1v0.2l-0.2,0.2L29,10.6z"/>
			<path class="st3" d="M28.9,11c0,0-0.2-0.2-0.2-0.3v-0.2c0.1,0,0.2,0,0.2,0.1c0-0.2,0.1-0.2,0.3-0.3c0.1,0.1,0.2,0.1,0.3,0.3
				c0-0.1,0.1-0.1,0.2-0.1v0.2c0,0.1-0.1,0.2-0.2,0.3H28.9z"/>
			<path class="st3" d="M28.8,11.7c0,0-0.3-0.3-0.3-0.4V11c0.1,0,0.2,0.1,0.3,0.2c0-0.2,0.2-0.5,0.3-0.6c0.2,0.1,0.3,0.4,0.3,0.6
				c0-0.1,0.1-0.2,0.3-0.2v0.3c0,0.1-0.3,0.4-0.3,0.4H28.8z"/>
			<path class="st3" d="M28.8,12.1c-0.1-0.1-0.2-0.2-0.3-0.3v-0.3c0.1,0,0.2,0.1,0.3,0.2c0-0.2,0.2-0.4,0.3-0.6
				c0.2,0.1,0.3,0.3,0.3,0.6c0-0.1,0.1-0.2,0.3-0.2v0.3c-0.1,0.1-0.2,0.2-0.3,0.3H28.8z"/>
			<path class="st3" d="M28.8,12.4c0-0.3,0.2-0.6,0.4-0.7c0.2,0.2,0.4,0.4,0.4,0.7H28.8z"/>
			<path class="st3" d="M28.6,12.5v-0.4c0.1,0,0.2,0.1,0.3,0.2c0-0.2,0.1-0.3,0.3-0.5c0.1,0.1,0.2,0.3,0.3,0.5
				c0.1-0.1,0.2-0.2,0.3-0.2v0.4H28.6z"/>
		</g>
		<path class="st3" d="M18.1,14.4v0.4h13v-0.4L18.1,14.4z M17.9,14.8v0.5h13.5v-0.5L17.9,14.8z M31.3,15.3H17.5v0.7h14.2v-0.7H31.3z
			 M17.1,15.9v0.8h15v-0.8L17.1,15.9z M32.1,16.7H16.7v0.8h15.8v-0.8H32.1z"/>
		<path class="st3" d="M19.5,14.4h1v3.1h-1V14.4z"/>
		<path class="st3" d="M19.8,14.4h0.5v3.1h-0.5V14.4z"/>
		<path class="st3" d="M24.1,14.4h1v3.1h-1V14.4z"/>
		<path class="st3" d="M24.3,14.4h0.5v3.1h-0.5V14.4z"/>
		<path class="st3" d="M28.7,14.4h1v3.1h-1V14.4z"/>
		<path class="st3" d="M28.9,14.4h0.5v3.1h-0.5V14.4z"/>
		<path class="st5" d="M18.7,14.1h11.8 M19.7,17.1h0.6 M19.7,16.7h0.6 M19.7,16.3h0.6 M19.7,15.9h0.6 M19.7,15.5h0.6 M19.7,15.2h0.6
			 M19.7,14.8h0.6 M24.3,17.1h0.5 M24.3,16.7h0.5 M24.3,16.3h0.5 M24.3,15.9h0.5 M24.3,15.5h0.5 M24.3,15.1h0.5 M24.3,14.8h0.5
			 M28.9,17.1h0.6 M28.9,16.7h0.6 M28.9,16.3h0.6 M28.9,15.9h0.6 M28.9,15.5h0.6 M28.9,15.1h0.6 M28.9,14.8h0.6"/>
	</g>
</g>
</svg>
