<?xml version="1.0" encoding="utf-8"?>
<!-- Generator: Adobe Illustrator 24.2.0, SVG Export Plug-In . SVG Version: 6.00 Build 0)  -->
<svg version="1.1" id="Layer_1" xmlns="http://www.w3.org/2000/svg" xmlns:xlink="http://www.w3.org/1999/xlink" x="0px" y="0px"
	 viewBox="0 0 215 77.6" style="enable-background:new 0 0 215 77.6;" xml:space="preserve">
<style type="text/css">
	.st0{fill:#ED2224;stroke:#FFFFFF;stroke-miterlimit:10;}
	.st1{fill:#FFFFFF;}
</style>
<g>
	<g>
		<circle class="st0" cx="34.7" cy="37.7" r="27.1"/>
		<g>
			<path class="st1" d="M33.7,53h0.8v3H36v0.7h-2.3V53z"/>
			<path class="st1" d="M38.1,56.8c-0.5,0-1-0.2-1.3-0.5c-0.3-0.3-0.5-0.8-0.5-1.4c0-0.6,0.2-1,0.5-1.4c0.3-0.4,0.8-0.6,1.3-0.6
				c0.5,0,1,0.2,1.3,0.6c0.3,0.3,0.5,0.8,0.5,1.3c0,0.6-0.2,1.1-0.5,1.5C39.1,56.7,38.7,56.8,38.1,56.8L38.1,56.8z M38.2,56.2
				c0.3,0,0.5-0.1,0.7-0.4c0.2-0.2,0.2-0.5,0.2-0.9c0-0.3-0.1-0.7-0.2-0.9c-0.2-0.3-0.4-0.4-0.7-0.4s-0.5,0.1-0.7,0.4
				c-0.2,0.2-0.2,0.5-0.2,0.9s0.1,0.7,0.2,0.9C37.6,56,37.9,56.2,38.2,56.2L38.2,56.2z"/>
			<path class="st1" d="M41.3,53.7h-1V53h2.9v0.7h-1v3h-0.8L41.3,53.7L41.3,53.7z"/>
			<path class="st1" d="M44.3,53.7h-1V53h2.9v0.7h-1v3h-0.8L44.3,53.7L44.3,53.7z"/>
			<path class="st1" d="M48.2,56.8c-0.5,0-1-0.2-1.3-0.5c-0.3-0.3-0.5-0.8-0.5-1.4c0-0.6,0.2-1,0.5-1.4c0.3-0.4,0.8-0.6,1.3-0.6
				c0.5,0,1,0.2,1.3,0.6c0.3,0.3,0.5,0.8,0.5,1.3c0,0.6-0.2,1.1-0.5,1.5C49.2,56.7,48.8,56.8,48.2,56.8L48.2,56.8z M48.3,56.2
				c0.3,0,0.5-0.1,0.7-0.4c0.2-0.2,0.2-0.5,0.2-0.9c0-0.3-0.1-0.7-0.2-0.9c-0.2-0.3-0.4-0.4-0.7-0.4s-0.5,0.1-0.7,0.4
				c-0.2,0.2-0.2,0.5-0.2,0.9s0.1,0.7,0.2,0.9C47.8,56,48,56.2,48.3,56.2L48.3,56.2z"/>
		</g>
		<g>
			<g>
				<path class="st1" d="M13.4,35c-0.1,0-0.2,0-0.2-0.1c0-0.1,0.1-0.1,0.1-0.2c0.5-0.3,1-0.6,1.6-0.8c2.6-1.2,5.3-2,8-2.6
					c2.5-0.6,5.1-1,7.7-1.6c3.6-0.9,7.1-2,10.5-3.6c1.6-0.7,3.1-1.6,4.8-2.3c0.5-0.2,1-0.4,1.6-0.5c0.8-0.1,1.2,0.1,1.3,0.8
					c0.1,0.5,0.3,1,0.5,1.4c0.5,0.9,1.2,1.5,2.2,1.7c0.2,0,0.5,0,0.5,0.3c0,0.2-0.3,0.3-0.4,0.4c-1.5,0.6-3.1,1-4.7,1.4
					c-4,0.9-8,1.5-12,1.8c-3.6,0.3-7.1,0.6-10.6,1.1c-3.1,0.5-6.3,1-9.3,2.2c-0.4,0.2-0.8,0.3-1.2,0.5C13.7,34.9,13.6,35,13.4,35z"
					/>
				<path class="st1" d="M21.3,55.7c-0.5,0-0.8-0.2-1-0.7c-0.2-0.9-0.6-1.7-1.2-2.3c-0.4-0.5-1-0.7-1.5-0.9c-0.2,0-0.5,0-0.5-0.3
					c0-0.2,0.3-0.3,0.5-0.4c1.4-0.6,2.9-1,4.4-1.3c3.7-0.8,7.5-1.4,11.2-1.8c2.2-0.2,4.4-0.3,6.6-0.6c4.4-0.5,8.8-1,13-2.3
					c0.8-0.3,1.7-0.6,2.5-0.9c0.2-0.1,0.3-0.1,0.5-0.2c0,0,0.1,0,0.1,0s0,0.1,0,0.1c-0.1,0.1-0.2,0.1-0.3,0.2
					c-2.3,1.3-4.7,2.1-7.3,2.8c-2.4,0.7-4.9,1-7.4,1.6c-5.4,1.2-10.7,2.8-15.6,5.4c-1,0.5-2,1-3,1.3C21.9,55.6,21.6,55.7,21.3,55.7z
					"/>
			</g>
		</g>
		<g>
			<path class="st1" d="M17,46.4l-1.4-9.3l2-0.3l0.4,3.9c0.1,0.8,0.2,1.9,0.3,3.3h0c0.1-0.8,0.4-2,0.8-3.5l1-4l2-0.3l0.4,4
				c0.1,1,0.2,2,0.3,3.2h0c0.1-0.4,0.3-1.5,0.7-3.4l0.9-4l2-0.3l-2.8,10l-2.1,0.3l-0.5-4c-0.1-1.1-0.2-2.1-0.2-2.9h0
				c-0.3,1.3-0.5,2.3-0.7,3.1l-1.1,4.3L17,46.4z"/>
			<path class="st1" d="M29.3,35l-0.6,9.6l-1.9,0.3l0.6-9.6L29.3,35z"/>
			<path class="st1" d="M30.4,44.4l0.6-9.6l2.2-0.3l1.5,3.3c0.4,0.9,0.8,1.9,1.2,3.1h0c0-1.1,0-2.5,0.1-4l0.2-2.8l1.8-0.3l-0.6,9.6
				l-2,0.3l-1.6-3.5c-0.6-1.3-1-2.3-1.3-3.2l-0.1,0c0,1.2-0.1,2.6-0.2,4.2l-0.2,2.9L30.4,44.4z"/>
			<path class="st1" d="M46.2,41.5c-1,0.5-1.9,0.8-2.9,1c-1.5,0.2-2.6,0-3.4-0.8c-0.8-0.8-1.1-1.9-1-3.3c0.1-1.6,0.7-2.9,1.6-3.9
				c0.9-1,2.1-1.6,3.5-1.8c1-0.2,1.8-0.1,2.3,0.1l-0.5,1.8c-0.5-0.2-1.2-0.2-1.9-0.1c-0.8,0.1-1.5,0.5-2,1.1C41.3,36.2,41,37,41,38
				c-0.1,1,0.1,1.7,0.6,2.2c0.5,0.5,1.1,0.7,1.9,0.5c0.4-0.1,0.8-0.2,0.9-0.3l0.1-2l-1.3,0.2l0.1-1.7l3.2-0.5L46.2,41.5z"/>
			<path class="st1" d="M51.2,41.4c-1.2,0.2-2.2-0.2-2.8-1c-0.7-0.8-0.9-1.9-0.8-3.3c0.1-1.5,0.5-2.7,1.3-3.8
				c0.8-1.1,1.8-1.7,3.1-1.9c1.3-0.2,2.2,0.1,2.9,1c0.6,0.8,0.9,1.9,0.8,3.3c-0.1,1.6-0.5,2.9-1.4,3.9
				C53.5,40.6,52.5,41.2,51.2,41.4L51.2,41.4z M51.4,39.6c0.6-0.1,1.2-0.5,1.6-1.2c0.4-0.7,0.6-1.5,0.7-2.4c0-0.9-0.1-1.6-0.4-2.2
				c-0.3-0.6-0.8-0.8-1.5-0.7c-0.7,0.1-1.2,0.5-1.6,1.2c-0.4,0.7-0.6,1.5-0.7,2.4c0,0.9,0.1,1.7,0.4,2.2
				C50.3,39.5,50.8,39.7,51.4,39.6L51.4,39.6z"/>
		</g>
		<g>
			<g>
				<path class="st1" d="M18.7,25.1c0.2,0,0.3,0.1,0.4,0.2s0.1,0.4,0.1,0.6s-0.1,0.5-0.2,0.6c-0.1,0.1-0.3,0.2-0.6,0.2
					s-0.4-0.1-0.6-0.2c-0.1-0.1-0.2-0.4-0.2-0.6v-3.3c0-0.2-0.1-0.4-0.4-0.6v-0.3c0-0.4,0.2-0.6,0.7-0.6h0.8v0.8h-0.6v0
					c0.3,0.2,0.5,0.4,0.5,0.7L18.7,25.1L18.7,25.1L18.7,25.1z M18.7,25.8c0,0-0.1,0-0.1,0v0.4c0.1,0,0.1,0,0.1,0c0,0,0-0.1,0-0.2
					C18.7,25.9,18.7,25.8,18.7,25.8z"/>
				<path class="st1" d="M24.3,27.3h0.6v0.6h-0.6v0.2h0.2c0.2,0,0.3,0,0.4,0.1s0.1,0.2,0.1,0.4c0,0.2,0,0.3-0.1,0.4
					s-0.3,0.1-0.5,0.1c-0.5,0-0.8-0.1-0.8-0.4v0h-1.8c-0.4,0-0.6-0.2-0.6-0.7s0.2-0.7,0.6-0.7h1.8V27h0.7L24.3,27.3L24.3,27.3z
					 M23.6,27.9h-1.5c-0.1,0-0.2,0-0.2,0.1s0.1,0.1,0.2,0.1h1.5V27.9z M24.4,28.7c0.1,0,0.1,0,0.1,0c0,0,0,0,0,0c0,0,0,0,0,0
					c0,0-0.1,0-0.1,0h-0.1C24.3,28.7,24.3,28.7,24.4,28.7z"/>
				<path class="st1" d="M33.5,21.1v0.8h-4.1v-0.8H33.5z M29.4,24.2c0-1.3,0.7-1.9,2.1-1.9c1.4,0,2.1,0.6,2.1,1.9v2.6h-1v-2.6
					c0-0.8-0.4-1.1-1.1-1.1c-0.7,0-1.1,0.4-1.1,1.1v0.9c0.2,0,0.3,0.1,0.4,0.2s0.1,0.4,0.1,0.6c0,0.3-0.1,0.5-0.2,0.6
					c-0.1,0.2-0.3,0.2-0.6,0.2c-0.3,0-0.4-0.1-0.6-0.2s-0.2-0.4-0.2-0.6L29.4,24.2L29.4,24.2L29.4,24.2z M30.2,26.2
					c0.1,0,0.1,0,0.1,0s0-0.1,0-0.2s0-0.1,0-0.2s-0.1,0-0.1,0V26.2z"/>
			</g>
			<path class="st1" d="M25.6,21.1h-0.9h0h-3.4c-0.6,0-0.9,0.3-0.9,0.8V22c0.1,0.2,0.2,0.4,0.2,0.6V25c-0.3,0-0.5,0.4-0.5,0.9
				s0.2,0.9,0.5,0.9l0,0h1V26c0-0.2,0.1-0.3,0.2-0.3c0.1,0,0.2,0.1,0.2,0.4c0,0.5,0.5,0.8,1.5,0.8c0.9,0,1.3-0.4,1.3-1.1v-2.4
				c0-0.2,0-0.3-0.2-0.5c-0.1-0.1-0.3-0.2-0.6-0.2c-0.3,0-0.5,0.1-0.6,0.2c-0.1,0.1-0.2,0.3-0.2,0.5c0,0.2,0,0.3,0.1,0.4
				c0.1,0.1,0.3,0.2,0.5,0.2v1.7c0,0.3-0.1,0.4-0.5,0.4s-0.5-0.1-0.5-0.4c0-0.5-0.3-0.8-0.9-0.8h-0.4v-2.3c0-0.3-0.1-0.5-0.2-0.7
				c0,0,0.1-0.1,0.2-0.1h3.1h0h0.9c0.6,0,1,0.3,1,0.8v4.2h1v-4.2C27.5,21.6,26.9,21.1,25.6,21.1z M20.8,26.2c0,0-0.1,0-0.1,0v-0.4
				c0.1,0,0.1,0,0.1,0c0,0,0,0.1,0,0.2C20.8,26.1,20.8,26.1,20.8,26.2z M23.8,23.2c0,0,0,0,0.1,0h0v0.3c-0.1,0-0.1,0-0.1,0
				C23.8,23.4,23.8,23.3,23.8,23.2C23.8,23.3,23.8,23.3,23.8,23.2z"/>
		</g>
	</g>
	<g>
		<g>
			<g>
				<path class="st1" d="M71.8,56.3c0.1,0,0.1,0,0.2,0.1c0.2,0.3,0.4,0.5,0.7,0.5c0.3,0.2,0.7,0.3,1.2,0.3h0.4
					c0.2,0.1,0.3,0.3,0.2,0.7L74,60.4c0,0.1-0.1,0.2-0.1,0.3s-0.1,0.1-0.2,0.1c-0.1,0-0.2-0.1-0.3-0.2l-0.2-0.2l-0.1-0.3
					c0.2,0,0.3,0,0.3-0.1l0.4-2.1l-0.5-0.1c-0.3,0-0.6-0.1-0.8-0.3c-0.2-0.1-0.4-0.2-0.7-0.4l-0.3-0.1L71,59
					c0.2,0.1,0.3,0.3,0.4,0.4c0.1,0.2,0.1,0.4,0,0.6l-0.1,0.2c-0.1,0.1-0.2,0.3-0.4,0.4l-0.2,0.1l-0.3,0.1c-0.1,0-0.2,0-0.3,0
					c-0.1,0-0.1-0.1-0.2-0.2c0,0,0-0.1-0.1-0.1c0,0,0-0.1,0-0.2l0.2-1.2c-0.2-0.1-0.5-0.1-0.8-0.1l-0.6,0.1c0.4-0.5,0.9-0.7,1.6-0.6
					l0.1-0.7l0.3-0.3c0.1-0.6,0.3-1,0.4-1.2c0.1-0.1,0.3-0.2,0.5-0.2c-0.2-0.1-0.4-0.3-0.6-0.4c-0.1-0.1-0.2-0.1-0.3-0.2
					c-0.1-0.1-0.2-0.1-0.2,0c0,0-0.1,0.1-0.1,0.1c-0.1,0.1-0.1,0.1-0.1,0.2c0,0.1,0,0.1,0.1,0.1c0,0,0.1,0.1,0.1,0.2l0.2,0.1
					l-0.1,0.2c-0.1,0.1-0.1,0.2-0.2,0.3c-0.1,0-0.2,0-0.3-0.1l-0.1-0.1c-0.1-0.2-0.2-0.4-0.2-0.6l0-0.1c0-0.2,0.1-0.4,0.3-0.5
					c0.1-0.1,0.1-0.2,0.2-0.2s0.2-0.2,0.2-0.2c0.2,0,0.4,0.1,0.5,0.2c0.1,0.1,0.3,0.3,0.5,0.4c0.2,0.1,0.4,0.2,0.7,0.1
					c0.1,0,0.3-0.2,0.6-0.5c0.2-0.1,0.3-0.2,0.5-0.3s0.3,0,0.4,0c0.2,0,0.3,0.1,0.4,0.2c0.2,0.1,0.3,0.2,0.4,0.4
					c0.1,0.2,0.3,0.4,0.3,0.6c0.1,0.2,0,0.4-0.1,0.4c-0.1,0-0.1-0.1-0.2-0.2c-0.1-0.1-0.2-0.3-0.4-0.5c-0.1-0.1-0.2-0.2-0.3-0.2
					c-0.1,0-0.2-0.1-0.3-0.1c-0.2-0.1-0.3-0.1-0.5,0c-0.2,0.2-0.4,0.3-0.6,0.4C72.5,56.2,72.2,56.3,71.8,56.3z M70.8,59.6l-0.3,0.8
					l0,0.1c0.1-0.2,0.3-0.3,0.3-0.5l0.1-0.1C71,59.8,71,59.7,70.8,59.6z M71.8,56.3c0.2,0,0.2,0-0.2,0
					C71.7,56.3,71.7,56.3,71.8,56.3z"/>
				<path class="st1" d="M81,56.6L81,56.6L81,56.6l-0.3-0.3l-0.3-0.3c-0.1-0.2-0.2-0.5-0.1-0.8c0.3-0.5,0.7-0.6,1.2-0.3
					c0.2,0.2,0.4,0.4,0.7,0.7c0.1,0.2,0.4,0.2,0.9,0.1c-0.2,0.6-0.5,0.7-1.2,0.3c-0.3-0.3-0.6-0.4-0.7-0.5c-0.2-0.1-0.3-0.1-0.3,0.2
					c0.2,0.2,0.3,0.4,0.4,0.5c0.2-0.4,0.4-0.2,0.4,0.5c0.4,0.7,0.4,0.8,0,0.5l-0.7,3.4c-0.2,0.3-0.5,0.4-1,0.2
					c-0.3-0.1-0.7-0.1-1.3,0L78,60.7l-0.3,0.1l-0.3,0l-0.3,0c-0.2-0.1-0.3-0.2-0.4-0.3c-0.1-0.2-0.2-0.5-0.2-0.9
					c0.1-0.5,0.1-0.9,0.2-1.2c0.2-0.6,0.4-1.2,0.6-1.7l-0.2-0.2L76.9,56c-0.1-0.2-0.1-0.4-0.1-0.7c0.2-0.5,0.6-0.7,1.1-0.4
					c0.4,0.2,0.6,0.4,0.7,0.7c0.9,1,1.1,1.3,0.4,0.9s-1.1-0.8-1.3-0.8c-0.2-0.1-0.3,0-0.3,0.2c0.1,0.2,0.2,0.3,0.3,0.4
					c0.4-0.5,0.6-0.3,0.4,0.6c0.4,0.6,0.3,0.7-0.2,0.3c-0.4,0.8-0.6,1.6-0.6,2.5c0,0.3,0.2,0.4,0.7,0.4c0.5-0.1,0.9-0.1,1.4-0.1
					c0.3,0,0.5,0,0.7,0.1c0.1,0.1,0.2,0,0.2-0.2L81,56.6z M82.1,59.4c1.1,0.9,1,1-0.2,0.5l-2.6-1.6c-0.3-0.5-0.1-0.6,0.6-0.3
					L82.1,59.4z M81.4,55.6C81.6,55.5,81.6,55.5,81.4,55.6c0,0.1,0.3,0.2,0.9,0.1c0.1,0,0.3-0.1,0.4-0.2c0.2-0.1,0.3-0.2,0.3-0.3
					c0.1-0.2,0.2-0.3,0.2-0.5c0.1-0.1,0.3-0.1,0.4-0.1c0.1,0,0.3,0,0.5,0.1c0.1,0.1,0.3,0.3,0.5,0.5s0.5,0.4,0.6,0.6
					s0.2,0.3,0.2,0.5c0,0.1,0,0.3-0.1,0.5l-0.6,3.3l-0.1,0.3c-0.1,0.3-0.3,0.4-0.6,0.3c-0.2-0.1-0.4-0.3-0.6-0.8
					c0.3,0.1,0.5,0.1,0.6,0l0.6-3c0-0.2,0.1-0.4,0.1-0.5s-0.2-0.3-0.5-0.6c-0.2-0.2-0.4-0.3-0.5-0.4c-0.1,0-0.2,0.2-0.4,0.5
					c-0.1,0.2-0.3,0.3-0.5,0.3C82.2,56.3,81.7,56.1,81.4,55.6z"/>
				<path class="st1" d="M76.9,62c0.1-0.4,0.3-0.8,0.7-1c0.3-0.2,0.6-0.3,1.1-0.2c0.4,0,0.7,0.2,1,0.5c0.2,0.2,0.4,0.4,0.7,0.8
					c0.3,0.5,0.4,0.7,0.6,0.7c0.1,0,0.3-0.2,0.5-0.5l0.5-0.8c0.1-0.3,0.1-0.5-0.1-0.6c0.5,0,0.7,0.1,0.8,0.2
					c0.1,0.1,0.1,0.2,0.1,0.3c0,0.1,0,0.1-0.1,0.2l-0.6,1c-0.2,0.3-0.3,0.5-0.5,0.7c-0.2,0.2-0.4,0.3-0.6,0.3
					c-0.3,0-0.5-0.1-0.7-0.4c-0.2-0.2-0.3-0.4-0.6-0.7c-0.2-0.3-0.3-0.5-0.5-0.6c-0.2-0.1-0.4-0.2-0.7-0.2c-0.3,0-0.4,0-0.5,0.2
					c-0.2,0.1-0.3,0.3-0.4,0.5c-0.1,0.2,0,0.4,0.1,0.5c0.1,0.2,0.2,0.2,0.3,0c-0.1-0.2-0.1-0.4,0.1-0.6c0.2-0.2,0.4-0.1,0.6,0.2
					c0.1,0.3,0.1,0.5,0.1,0.7c0,0.1-0.1,0.2-0.2,0.3c-0.1,0.2-0.3,0.2-0.6,0.2c-0.4,0-0.7-0.2-1-0.5c-0.1-0.1-0.2-0.3-0.2-0.5
					C76.8,62.3,76.8,62.2,76.9,62z"/>
				<path class="st1" d="M89.5,56.4c0.1,0,0.1,0,0.2,0c0.1,0,0.1,0,0.2,0.1c0.2,0.3,0.4,0.5,0.7,0.5c0.3,0.2,0.7,0.3,1.2,0.3h0.4
					c0.2,0.1,0.3,0.3,0.2,0.7L92,60.5c0,0.1-0.1,0.2-0.1,0.3s-0.1,0.1-0.2,0.1c-0.1,0-0.2-0.1-0.3-0.2l-0.2-0.2L91,60.1
					c0.2,0,0.3,0,0.3-0.1l0.4-2.1l-0.5-0.1c-0.3,0-0.6-0.1-0.8-0.3c-0.2-0.1-0.4-0.2-0.7-0.4L89.5,57l-1,3.5
					c-0.1,0.1-0.1,0.2-0.2,0.3c-0.1,0-0.1,0.1-0.2,0.1l0,0l0,0c-0.2,0-0.4,0-0.6,0c-0.4-0.5-0.7-1.1-0.7-1.6c0-0.1,0-0.3,0.1-0.4
					c0.1-0.2,0.2-0.3,0.3-0.4s0.3-0.1,0.4-0.1l0.4,0.3l0.1-0.7l0.3-0.3c0.1-0.6,0.3-1,0.4-1.2C89,56.4,89.2,56.3,89.5,56.4
					C89.4,56.3,89.4,56.3,89.5,56.4L89.5,56.4C89.5,56.4,89.5,56.4,89.5,56.4z M90.4,56l0.2,0.3l-0.9-0.2c-0.4-0.1-0.7-0.2-0.8-0.3
					c-0.1-0.1-0.3-0.1-0.3-0.2c-0.1,0-0.2,0-0.2,0c0,0-0.1,0.1-0.1,0.1C88.1,56,88,56,88.1,56.1c0,0,0,0.1,0.1,0.1
					c0,0,0.1,0.1,0.1,0.2l0.2,0.1c1.3,0.9,1.7,1.3,1.2,1.1c-0.5-0.1-0.9-0.3-1.3-0.5c-0.1-0.1-0.3-0.2-0.4-0.3l-0.1-0.1
					c-0.2-0.2-0.3-0.4-0.3-0.6l0-0.1c0-0.2,0.1-0.4,0.2-0.5c0.1-0.1,0.1-0.2,0.2-0.2c0-0.1,0.1-0.2,0.2-0.3c0.2-0.1,0.5,0,0.8,0.2
					c0.2,0.1,0.5,0.3,0.8,0.4c0.3,0.1,0.6,0.2,0.7,0.2c0.1,0,0.2,0,0.4,0c0,0-0.1,0-0.1,0C90.5,55.9,90.4,56,90.4,56z M87.8,60.2
					l0.3-1.4c-0.3,0.3-0.4,0.5-0.5,0.7C87.5,59.6,87.6,59.9,87.8,60.2z M90.5,55.8c0.3,0,0.5,0,0.6-0.1c0.5-0.1,0.8-0.3,1-0.6
					c0.1-0.1,0.3-0.2,0.6-0.2c0.4,0,0.7,0.1,0.9,0.3c0.2,0.1,0.5,0.3,0.9,0.6c0.3,0.3,0.6,0.6,0.7,0.8c0.1,0.2,0.1,0.3,0.1,0.5
					c0,0.1,0,0.2,0,0.3l-0.5,3c0,0.1-0.1,0.2-0.1,0.3c-0.1,0.1-0.2,0.1-0.3,0.1c-0.3,0-0.5-0.2-0.7-0.6c0.1,0.1,0.2,0.1,0.4-0.1
					l0.5-2.9c0-0.2,0-0.3,0-0.5c-0.1-0.1-0.2-0.3-0.4-0.5c-0.3-0.2-0.5-0.4-0.7-0.5c-0.2-0.1-0.4-0.1-0.6-0.2
					c-0.3,0-0.5,0.2-0.8,0.3c-0.4,0.3-0.7,0.4-1.1,0.4c-0.2,0-0.4,0-0.6-0.1L89.8,56C90,55.8,90.3,55.8,90.5,55.8z"/>
				<path class="st1" d="M98.4,57.8l0.3-1.7c0-0.5,0.1-0.9,0.1-1.1c0.2-0.3,0.3-0.5,0.6-0.4c0.2,0,0.3,0.1,0.5,0.3
					c0.2,0.2,0.3,0.4,0.5,0.6c0.2,0.3,0.4,0.4,0.6,0.3c0.2-0.1,0.4-0.3,0.6-0.6c0-0.3,0.1-0.5,0.4-0.4c0.2,0,0.4,0.1,0.6,0.3
					c0.2,0.2,0.3,0.3,0.5,0.6c0.1,0.2,0.2,0.5,0.2,0.6c0,0.2,0,0.3,0,0.5c0,0.1,0,0.3-0.1,0.4l-0.6,3.3c0,0.1-0.1,0.2-0.1,0.3
					c-0.1,0.1-0.1,0.1-0.3,0.1c-0.2,0-0.5-0.3-0.7-0.8c0.3,0.2,0.4,0.2,0.4-0.1l0.6-2.8c0.1-0.3,0.1-0.5,0.1-0.6
					c0-0.1-0.1-0.3-0.1-0.4c-0.1-0.1-0.2-0.3-0.3-0.3c-0.1,0-0.1,0-0.2,0l-0.4,0.5c-0.1,0.2-0.3,0.3-0.4,0.4c-0.3,0.1-0.5,0-0.8-0.2
					l-0.4-0.3c-0.3-0.2-0.4-0.4-0.6-0.5l0,0c0,0.2-0.1,0.4-0.2,0.6L99.1,58c0.2,0.1,0.4,0.2,0.5,0.4c0.2,0.3,0.3,0.7,0.3,1.1
					c0,0.3-0.2,0.6-0.4,0.8c-0.2,0.3-0.5,0.4-0.7,0.5c-0.3,0.1-0.6,0-0.8-0.2c-0.1-0.2-0.1-0.4,0-0.6c0-0.1,0.1-0.3,0.1-0.4l0.3-1.3
					c-0.3-0.1-0.5-0.1-0.8-0.1c-1,0-1-0.1,0-0.4C97.9,57.8,98.2,57.8,98.4,57.8z M99,58.6l-0.2,1.1c0,0.2-0.1,0.3-0.1,0.4
					c0,0.1,0.1,0.1,0.2,0c0,0,0.1-0.1,0.2-0.3c0.2-0.2,0.2-0.4,0.2-0.7C99.2,58.9,99.1,58.7,99,58.6z"/>
				<path class="st1" d="M112,59.7c-0.3,0.9-0.8,1.4-1.5,1.4c-0.3,0-0.7-0.2-1.2-0.6c-0.3-0.2-0.5-0.3-0.8-0.3c-0.3,0-0.6,0.1-1,0.4
					c0.3-0.9,0.8-1.3,1.7-1.3c0.1,0,0.4,0.2,0.9,0.5c0.4,0.3,0.8,0.5,1,0.5c0.2,0,0.4,0,0.5-0.2C111.7,59.8,111.9,59.8,112,59.7z"/>
				<path class="st1" d="M116.7,55.8c-0.3,0.1-0.5,0.4-0.5,0.9c0.2,0.4,0.4,0.7,0.8,0.9c0.3,0.2,0.7,0.3,1,0.4
					c0.2,0,0.3,0.1,0.5,0.1l0.1-0.1c0.1-0.2,0.3-0.4,0.4-0.6c0.3-0.3,0.5-0.3,0.7-0.1c0.2,0.1,0.2,0.3,0.3,0.6
					c0,0.2-0.1,0.4-0.3,0.6c-0.2,0.3-0.4,0.4-0.8,0.4l-0.4,0.8c-0.2,0.4-0.4,0.6-0.7,0.8c-0.3,0.2-0.7,0.2-1.1,0.1
					c-0.4-0.1-0.7-0.3-0.9-0.6c-0.1-0.3-0.2-0.6-0.1-0.8c0.1-0.3,0.2-0.4,0.5-0.4c0.2,0,0.3,0.2,0.3,0.6c0.1,0.3,0.1,0.3,0,0.2
					c0.1,0.2,0.3,0.4,0.4,0.4c0.2,0,0.4,0,0.5-0.1c0.1,0,0.3-0.2,0.4-0.5l0.4-0.8c-0.2,0-0.3-0.1-0.5-0.1c-0.4-0.1-0.8-0.3-1.2-0.6
					c-0.5-0.3-0.8-0.7-0.9-1.1c0-0.3,0-0.6,0.1-0.8c0-0.2,0.2-0.5,0.3-0.7c0.4-0.4,0.8-0.6,1.3-0.6c0.2,0,0.5,0,0.6,0
					c0.2,0,0.4,0.1,0.7,0.2c0.5,0.3,0.7,0.7,0.7,1.2c-0.1,0.3-0.2,0.5-0.5,0.6c-0.1,0.1-0.4,0.1-0.7,0.1c-0.4-0.1-0.8-0.3-1.1-0.6
					C116.8,56.2,116.8,56,116.7,55.8z M117,55.7c0.1,0.1,0.3,0.3,0.4,0.4c0.3,0.2,0.5,0.2,0.8,0.2c0.2-0.1,0.2-0.2,0.2-0.3
					c0-0.2-0.2-0.3-0.4-0.4c-0.2-0.1-0.4-0.1-0.7-0.1C117.2,55.6,117.1,55.6,117,55.7z"/>
				<path class="st1" d="M117.9,54.3c-0.1,0.1-0.2,0.2-0.3,0.2c-0.1,0.1-0.3,0.1-0.4,0.1s-0.1-0.2,0.1-0.4c0.1,0,0.1-0.1,0.2-0.1
					c0,0,0-0.1,0.1-0.1c0-0.1-0.1-0.1-0.1-0.2c-0.1-0.2-0.2-0.4-0.2-0.5c0-0.1-0.1-0.3-0.1-0.6c0-0.2,0.1-0.4,0.2-0.6
					s0.2-0.2,0.3-0.3c0.1-0.1,0.3-0.1,0.5-0.1c0.2,0.1,0.3,0.2,0.4,0.3c0.1,0.1,0.2,0.3,0.2,0.4c0,0.2,0,0.3,0,0.6
					c-0.1,0.2-0.2,0.4-0.3,0.6c-0.1,0.1-0.2,0.3-0.3,0.4c0,0,0.1,0.1,0.1,0.1C118.9,55.1,118.7,55.1,117.9,54.3
					C117.9,54.3,117.9,54.3,117.9,54.3z M118,53.6c0.2-0.3,0.3-0.5,0.3-0.7c0-0.1,0-0.3,0-0.3c0-0.1,0-0.1-0.1-0.2
					c-0.1,0-0.2,0-0.3,0c-0.1,0.1-0.1,0.2-0.2,0.4c0,0.2,0,0.4,0.1,0.7C117.9,53.5,117.9,53.5,118,53.6z"/>
				<path class="st1" d="M122.2,57.9c0-0.1,0-0.2,0-0.3c-0.2-0.3,0-0.3,0.5-0.2c0.2,0.1,0.3,0.3,0.3,0.5c0,0.3-0.1,0.6-0.1,0.9
					c0,0,0.1,0,0.2,0.1c0.1,0,0.2,0.1,0.4,0.2s0.3,0.3,0.5,0.4c0.3,0.3,0.6,0.4,0.7,0.4c0.2,0,0.3,0,0.4-0.1
					c0.3-0.3,0.5-0.8,0.6-1.2c-0.2,0-0.4,0-0.7-0.1c-0.5-0.2-0.9-0.3-1.3-0.5c-0.4-0.2-0.7-0.4-1-0.6c-0.2-0.1-0.3-0.3-0.4-0.6
					c-0.1-0.3-0.1-0.6-0.1-0.8c0.1-0.4,0.3-0.7,0.6-0.9s0.8-0.3,1.3-0.3c0.4,0.1,0.7,0.2,1.1,0.3c0.5,0.2,0.8,0.5,1.1,0.9
					c0.2,0.4,0.2,0.7,0.2,1c-0.2,0.4-0.6,0.5-1.2,0.5c-0.7-0.2-1.2-0.6-1.3-1.1c0-0.2,0.1-0.4,0.3-0.5c0,0.1,0.1,0.3,0.3,0.5
					l0.3,0.2c0.8,0.3,0.9,0.2,0.6-0.3c-0.6-0.4-1-0.6-1.4-0.7c-0.4,0-0.7,0-1,0.2c-0.2,0.2-0.3,0.3-0.3,0.5c0,0.1,0,0.2,0,0.4
					c0,0.1,0.2,0.2,0.3,0.3c0.2,0.1,0.4,0.3,0.8,0.5c0.6,0.3,1.1,0.5,1.7,0.5c0.5-0.2,0.8,0,0.7,0.6c0,0.2-0.1,0.5-0.3,1
					c-0.3,0.7-0.8,1.1-1.3,1.2c-0.3,0.1-0.7,0-1-0.4c-0.3-0.2-0.5-0.4-0.8-0.7c-0.2-0.1-0.3-0.2-0.4-0.2l-0.1,0.3
					c-0.1,0.4-0.2,0.7-0.3,0.9c-0.1,0.1-0.3,0.1-0.5,0.1c-0.1,0-0.2-0.1-0.3-0.3c-0.1-0.2-0.2-0.4-0.2-0.7c0-0.3,0.1-0.6,0.2-0.8
					c0.1-0.1,0.3-0.2,0.4-0.3l0.2,0L122.2,57.9z M121.6,59.9l0,0.4l0.3-0.8c0,0-0.1,0-0.1,0.1C121.7,59.6,121.7,59.7,121.6,59.9z"/>
				<path class="st1" d="M124.7,65.7c-0.3-0.1-0.5-0.4-0.6-0.9c0.3,0.3,0.4,0.2,0.4-0.2c0-0.1,0-0.2,0.1-0.3l0.3-1.8
					c-0.4-1-0.2-1.6,0.5-1.7c0.3,0.2,0.4,0.5,0.3,1.1c0,0.1,0,0.2,0,0.3l-0.5,2.5C125.1,65.3,124.9,65.7,124.7,65.7z"/>
				<path class="st1" d="M129.5,56.8c-0.1,0-0.2,0-0.4-0.1l-0.1-0.1c-0.1-0.2-0.2-0.4-0.2-0.6l0-0.1c0-0.2,0.1-0.4,0.3-0.5
					c0.1-0.1,0.1-0.2,0.2-0.2c0.1-0.1,0.1-0.2,0.2-0.2c0.2,0,0.4,0.1,0.5,0.2c0.1,0.1,0.3,0.3,0.5,0.4c0.2,0.1,0.4,0.2,0.7,0.1
					c0.1,0,0.3-0.2,0.6-0.5c0.2-0.1,0.3-0.2,0.5-0.3s0.3,0,0.4,0c0.2,0,0.3,0.1,0.5,0.2c0.1,0.1,0.3,0.2,0.4,0.4
					c0.1,0.2,0.3,0.4,0.3,0.6c0.1,0.2,0,0.4-0.1,0.4c-0.1,0-0.1-0.1-0.2-0.2c-0.1-0.1-0.2-0.3-0.4-0.5c-0.1-0.1-0.2-0.2-0.3-0.2
					c-0.1,0-0.2-0.1-0.3-0.1c-0.2-0.1-0.3-0.1-0.5,0c-0.2,0.2-0.4,0.3-0.6,0.4c-0.1,0.1-0.4,0.2-0.9,0.2c0.3,0,0.2,0-0.2,0
					c-0.2-0.1-0.4-0.3-0.6-0.4c-0.1-0.1-0.2-0.1-0.3-0.2c-0.1-0.1-0.1-0.1-0.2,0c0,0-0.1,0.1-0.1,0.1c-0.1,0.1-0.1,0.1-0.1,0.2
					c0,0.1,0,0.1,0.1,0.1c0,0,0.1,0.1,0.1,0.2l0.2,0.1l-0.1,0.2C129.7,56.7,129.6,56.8,129.5,56.8z M129.7,60.4
					c-0.1,0.1-0.2,0.2-0.2,0.3c-0.1,0.1-0.1,0.1-0.2,0.1c-0.1,0-0.2,0-0.2-0.1c0,0,0-0.1,0-0.1c0,0,0-0.1,0-0.2l0.4-2.4l0.3-0.3
					c0.1-0.6,0.3-1,0.4-1.2c0.2-0.2,0.5-0.2,0.9,0c0.2,0.3,0.4,0.5,0.7,0.5c0.3,0.2,0.7,0.3,1.2,0.3h0.4c0.2,0.1,0.3,0.3,0.2,0.7
					l-0.4,2.5c0,0.1-0.1,0.2-0.1,0.3s-0.1,0.1-0.2,0.1c-0.1,0-0.2-0.1-0.3-0.2l-0.2-0.2l-0.1-0.3c0.2,0,0.3,0,0.3-0.1l0.4-2.1
					l-0.5-0.1c-0.3,0-0.6-0.1-0.8-0.3c-0.2-0.1-0.4-0.2-0.7-0.4l-0.3-0.1L129.7,60.4z"/>
				<path class="st1" d="M137.3,56.6l-0.8,3.5l0.5,0c0.4-0.1,0.9-0.1,1.4,0l0,0l0.2,0.1l0.1,0.1c0.2,0,0.3,0,0.4-0.1
					c0.1-0.1,0.1-0.3,0.2-0.5l0.4-1.8c0-0.2,0-0.3,0-0.3c0-0.1,0-0.1-0.1-0.1c0,0-0.1,0-0.1,0.2c-0.1,0.1-0.1,0.3-0.2,0.5
					c0,0.2,0,0.3,0,0.4c0,0.2,0,0.3,0,0.3c0.1,0.4,0.1,0.6-0.1,0.5c-0.2-0.2-0.3-0.3-0.4-0.5c-0.1-0.2-0.1-0.4-0.1-0.8
					c0.1-0.4,0.2-0.7,0.4-0.9c0.1-0.2,0.3-0.3,0.6-0.4c0.4-0.1,0.6,0,0.7,0.3c0.1,0.2,0.1,0.5,0,1.1l-0.4,1.7
					c-0.1,0.5-0.3,0.8-0.5,1.1c-0.2,0.1-0.4,0.1-0.8,0.1c-0.2-0.3-0.7-0.4-1.5-0.2l-0.6,0.1l-0.5,0.1c-0.2,0-0.3,0-0.5-0.1
					c-0.1-0.2-0.1-0.4,0-0.6l0.3-1.3l0.6-2.4C137,55.8,137.3,55.9,137.3,56.6z M136.4,56.9c-0.1-0.1-0.3-0.2-0.4-0.3l-0.1-0.1
					c-0.2-0.2-0.3-0.4-0.2-0.6v-0.2c0.1-0.2,0.2-0.4,0.4-0.5c0.1-0.1,0.1-0.2,0.2-0.2c0.1-0.1,0.2-0.1,0.2-0.2
					c0.2,0,0.4,0.1,0.5,0.2c0.1,0.1,0.3,0.3,0.5,0.5c0.2,0.2,0.4,0.2,0.7,0.2c0.1,0,0.3-0.2,0.6-0.4c0.2-0.1,0.3-0.2,0.5-0.3
					s0.3,0,0.4,0.1c0.1,0.1,0.3,0.1,0.4,0.2c0.1,0.1,0.3,0.3,0.4,0.4c0.1,0.2,0.2,0.4,0.3,0.7c0.1,0.4,0.2,0.5,0.1,0.4
					c-0.1,0-0.2-0.1-0.3-0.2c-0.1-0.1-0.3-0.3-0.4-0.5c-0.1-0.1-0.2-0.2-0.3-0.2c-0.1,0-0.2-0.1-0.3-0.2c-0.2-0.1-0.3-0.1-0.5,0
					c-0.2,0.2-0.4,0.3-0.6,0.4c-0.1,0.1-0.4,0.2-0.9,0.2c0.3,0,0.2,0-0.1,0c-0.2-0.1-0.4-0.2-0.5-0.3c-0.1-0.1-0.2-0.2-0.3-0.3
					c-0.1-0.1-0.1-0.1-0.2,0c0,0-0.1,0.1-0.1,0.1c-0.1,0-0.1,0.1-0.1,0.2c0,0.1,0,0.1,0.1,0.1s0.1,0.1,0.1,0.2l0.2,0.1
					c1.4,1.1,1.8,1.5,1.2,1.3C137.3,57.4,136.8,57.2,136.4,56.9z"/>
				<path class="st1" d="M140.7,53.7l0.4,0.3c0.4,0.3,0.3,0.5-0.1,0.5c0.1,0.2,0.1,0.3,0.1,0.5l-0.5-0.6c-0.5-0.2-1.1-0.4-1.8-0.7
					l-1.1-0.4c-0.5-0.2-0.9-0.4-1.2-0.5c-0.1-0.1-0.1-0.1-0.2-0.3c0-0.1,0-0.2,0-0.3c0,0,0-0.1,0-0.2c0-0.1,0-0.1,0.1-0.2
					c0.1-0.3,0.3-0.4,0.6-0.5c0.3-0.1,0.7-0.2,1.1-0.2c0.2,0,0.3,0.1,0.4,0.1c0.2,0.1,0.4,0.2,0.5,0.2c0.3,0.2,0.5,0.4,0.8,0.7
					c0.3,0.4,0.5,0.7,0.7,1.1C140.5,53.4,140.6,53.5,140.7,53.7z M140,53.6l-0.1-0.2c-0.2-0.3-0.4-0.6-0.7-0.8
					c-0.2-0.2-0.4-0.4-0.6-0.5c-0.2-0.1-0.5-0.2-0.7-0.2c-0.3,0-0.5,0-0.7,0c-0.2,0-0.3,0.1-0.3,0.3c0,0.2,0,0.3,0.1,0.3
					c0.2,0.1,0.6,0.2,1.2,0.4l0.9,0.3C139.4,53.3,139.8,53.5,140,53.6z"/>
				<path class="st1" d="M144.3,56.3c0.1,0,0.1,0,0.2,0.1c0.2,0.3,0.4,0.5,0.7,0.5c0.3,0.2,0.7,0.3,1.2,0.3h0.4
					c0.2,0.1,0.3,0.3,0.2,0.7l-0.4,2.5c0,0.1-0.1,0.2-0.1,0.3s-0.1,0.1-0.2,0.1c-0.1,0-0.2-0.1-0.3-0.2l-0.2-0.2l-0.1-0.3
					c0.2,0,0.3,0,0.3-0.1l0.4-2.1l-0.5-0.1c-0.3,0-0.6-0.1-0.8-0.3c-0.2-0.1-0.4-0.2-0.7-0.4l-0.3-0.1l-0.6,2.1
					c0.2,0.1,0.3,0.3,0.4,0.4c0.1,0.2,0.1,0.4,0,0.6l-0.1,0.2c-0.1,0.1-0.2,0.3-0.4,0.4l-0.2,0.1l-0.3,0.1c-0.1,0-0.2,0-0.3,0
					c-0.1,0-0.1-0.1-0.2-0.2c0,0,0-0.1-0.1-0.1c0,0,0-0.1,0-0.2l0.2-1.2c-0.2-0.1-0.5-0.1-0.8-0.1l-0.6,0.1c0.4-0.5,0.9-0.7,1.6-0.6
					l0.1-0.7l0.3-0.3c0.1-0.6,0.3-1,0.4-1.2c0.1-0.1,0.3-0.2,0.5-0.2c-0.2-0.1-0.4-0.3-0.6-0.4c-0.1-0.1-0.2-0.1-0.3-0.2
					c-0.1-0.1-0.1-0.1-0.2,0c0,0-0.1,0.1-0.1,0.1c-0.1,0.1-0.1,0.1-0.1,0.2s0,0.1,0.1,0.1c0,0,0.1,0.1,0.1,0.2l0.2,0.1l-0.1,0.2
					c-0.1,0.1-0.1,0.2-0.2,0.3s-0.2,0-0.4-0.1l-0.1-0.1c-0.1-0.2-0.2-0.4-0.2-0.6l0-0.1c0-0.2,0.1-0.4,0.3-0.5
					c0.1-0.1,0.1-0.2,0.2-0.2c0.1-0.1,0.1-0.2,0.2-0.2c0.2,0,0.4,0.1,0.5,0.2c0.1,0.1,0.3,0.3,0.5,0.4c0.2,0.1,0.4,0.2,0.7,0.1
					c0.1,0,0.3-0.2,0.6-0.5c0.2-0.1,0.3-0.2,0.5-0.3s0.3,0,0.4,0c0.1,0,0.3,0.1,0.4,0.2c0.1,0.1,0.3,0.2,0.4,0.4
					c0.1,0.2,0.3,0.4,0.3,0.6c0.1,0.2,0,0.4-0.1,0.4c-0.1,0-0.1-0.1-0.2-0.2c-0.1-0.1-0.2-0.3-0.4-0.5c-0.1-0.1-0.2-0.2-0.3-0.2
					c-0.1,0-0.2-0.1-0.3-0.1c-0.2-0.1-0.3-0.1-0.5,0c-0.2,0.2-0.4,0.3-0.6,0.4C145.1,56.2,144.8,56.3,144.3,56.3z M143.4,59.6
					l-0.3,0.8l0,0.1c0.1-0.2,0.3-0.3,0.3-0.5l0.1-0.1C143.6,59.8,143.5,59.7,143.4,59.6z M144.3,56.3c0.2,0,0.2,0-0.2,0
					C144.2,56.3,144.3,56.3,144.3,56.3z"/>
				<path class="st1" d="M143.6,63.1c-0.2,0.1-0.5,0.2-0.8,0.2c-0.3,0-0.6-0.1-0.7-0.2c-0.1-0.1-0.1-0.2-0.1-0.3
					c0-0.1,0-0.2,0.1-0.4c-0.2,0-0.4,0.1-0.5,0.2c0.1-0.3,0.3-0.5,0.7-0.6c0.2-0.5,0.3-0.8,0.4-0.9c0.2-0.1,0.4-0.1,0.8-0.1
					c0.1,0,0.3,0,0.4,0c0.1,0,0.3,0,0.4,0c0.3,0,0.6,0.1,0.9,0.2s0.7,0.2,1.2,0.4c0.2,0.1,0.3,0.3,0.3,0.5l-0.2,0.9
					c0,0.1-0.1,0.2-0.1,0.3l-0.1,0.1c-0.3,0.1-0.6,0-0.7-0.4c0.2,0.1,0.3,0.1,0.3,0l0.1-0.2c0.1-0.2,0.1-0.3,0-0.5
					c0-0.1-0.1-0.2-0.4-0.3c-0.2-0.1-0.4-0.2-0.7-0.2c-0.2-0.1-0.5-0.1-0.7-0.2c-0.2,0-0.4-0.1-0.7-0.1c-0.2,0-0.4,0-0.5,0.1
					c-0.1,0.2-0.2,0.4-0.2,0.4c0.3,0,0.5,0,0.7,0.2c0.2,0.1,0.3,0.3,0.3,0.5C143.9,62.8,143.8,63,143.6,63.1z M142.8,62.4l-0.1,0.2
					c0,0.1,0,0.2,0.1,0.2c0.2,0,0.3,0,0.3-0.1c0.1,0,0.1-0.1,0.1-0.2c0,0-0.1-0.1-0.1-0.1C143.1,62.4,143,62.4,142.8,62.4
					C142.8,62.4,142.8,62.4,142.8,62.4z"/>
				<path class="st1" d="M155.6,59.7c-0.3,0.9-0.8,1.4-1.5,1.4c-0.3,0-0.7-0.2-1.2-0.6c-0.3-0.2-0.5-0.3-0.8-0.3
					c-0.3,0-0.6,0.1-1,0.4c0.3-0.9,0.9-1.3,1.7-1.3c0.1,0,0.4,0.2,0.9,0.5c0.4,0.3,0.8,0.5,1,0.5c0.2,0,0.4,0,0.5-0.2
					C155.3,59.8,155.4,59.8,155.6,59.7z"/>
				<path class="st1" d="M163.3,56.6L163.3,56.6L163.3,56.6l-0.3-0.3l-0.2-0.4c-0.1-0.2-0.1-0.4-0.1-0.7c0.2-0.5,0.6-0.6,1.1-0.3
					c0.2,0.2,0.4,0.4,0.6,0.7c0.8,1.1,0.9,1.3,0.3,0.8c-0.6-0.5-1-0.8-1.2-0.9s-0.2,0-0.2,0.2c0.1,0.2,0.2,0.3,0.3,0.4
					c0.2-0.4,0.3-0.2,0.4,0.5v0.1c0.4,0.6,0.4,0.7,0,0.3l-0.8,3.5c-0.1,0.2-0.2,0.3-0.4,0.4c-0.2,0.1-0.4,0-0.6-0.2
					c-0.3-0.1-0.7-0.1-1.3,0c-0.8,0.2-1.3,0.3-1.5,0.2c-0.2,0-0.4-0.1-0.5-0.3s-0.1-0.4-0.1-0.8c0-0.6,0.1-1.2,0.3-1.7
					c0.2-0.6,0.4-1.1,0.6-1.3l-0.2-0.2l-0.2-0.3c-0.1-0.2-0.1-0.4-0.1-0.7c0.3-0.7,0.7-0.8,1.2-0.5c0.3,0.2,0.5,0.4,0.6,0.5
					c1.2,1.4,1.5,1.8,0.7,1.2c-0.8-0.5-1.3-0.9-1.6-1.1c-0.3-0.2-0.4-0.1-0.3,0.2c0.1,0.2,0.2,0.3,0.3,0.3c0.5-0.4,0.6-0.2,0.4,0.7
					c0.4,0.6,0.3,0.7-0.2,0.3c-0.4,0.8-0.6,1.6-0.7,2.5c-0.1,0.4,0.1,0.6,0.6,0.5c0.5-0.1,1-0.2,1.4-0.2c0.3,0,0.5,0,0.7,0.1
					c0.1,0.1,0.2,0,0.2-0.2L163.3,56.6z M164.2,59.6c1.4,1,1.3,1.2-0.2,0.5l-2.9-1.6c-0.4-0.5-0.2-0.7,0.6-0.4L164.2,59.6z"/>
				<path class="st1" d="M166.9,57.9c0-0.1,0-0.2,0-0.3c-0.2-0.3,0-0.3,0.5-0.2c0.2,0.1,0.3,0.3,0.3,0.5c0,0.3-0.1,0.6-0.1,0.9
					c0,0,0.1,0,0.2,0.1c0.1,0,0.2,0.1,0.4,0.2c0.2,0.1,0.3,0.3,0.5,0.4c0.3,0.3,0.6,0.4,0.7,0.4c0.1,0,0.3,0,0.4-0.1
					c0.3-0.3,0.5-0.8,0.6-1.2c-0.2,0-0.4,0-0.7-0.1c-0.5-0.2-0.9-0.3-1.3-0.5c-0.4-0.2-0.7-0.4-1-0.6c-0.2-0.1-0.4-0.3-0.4-0.6
					c-0.1-0.3-0.1-0.6-0.1-0.8c0.1-0.4,0.3-0.7,0.6-0.9s0.8-0.3,1.3-0.3c0.4,0.1,0.7,0.2,1.1,0.3c0.5,0.2,0.8,0.5,1.1,0.9
					c0.2,0.4,0.2,0.7,0.2,1c-0.2,0.4-0.6,0.5-1.2,0.5c-0.7-0.2-1.1-0.6-1.3-1.1c0-0.2,0.1-0.4,0.3-0.5c0,0.1,0.1,0.3,0.3,0.5
					l0.4,0.2c0.8,0.3,0.9,0.2,0.6-0.3c-0.6-0.4-1-0.6-1.4-0.7c-0.4,0-0.7,0-1,0.2c-0.2,0.2-0.3,0.3-0.3,0.5c0,0.1,0,0.2,0,0.4
					c0,0.1,0.2,0.2,0.4,0.3c0.2,0.1,0.4,0.3,0.8,0.5c0.6,0.3,1.1,0.5,1.7,0.5c0.5-0.2,0.8,0,0.7,0.6c0,0.2-0.1,0.5-0.3,1
					c-0.3,0.7-0.8,1.1-1.3,1.2c-0.3,0.1-0.6,0-1-0.4c-0.3-0.2-0.5-0.4-0.8-0.7c-0.2-0.1-0.3-0.2-0.4-0.2l-0.1,0.3
					c-0.1,0.4-0.2,0.7-0.3,0.9c-0.1,0.1-0.3,0.1-0.5,0.1c-0.1,0-0.2-0.1-0.3-0.3c-0.1-0.2-0.1-0.4-0.2-0.7c0-0.3,0.1-0.6,0.2-0.8
					c0.1-0.1,0.3-0.2,0.4-0.3l0.2,0L166.9,57.9z M166.4,59.9l0,0.4l0.3-0.8c0,0-0.1,0-0.1,0.1C166.4,59.6,166.4,59.7,166.4,59.9z"/>
				<path class="st1" d="M169.4,65.7c-0.3-0.1-0.5-0.4-0.6-0.9c0.3,0.3,0.4,0.2,0.4-0.2c0-0.1,0-0.2,0.1-0.3l0.3-1.8
					c-0.4-1-0.2-1.6,0.5-1.7c0.3,0.2,0.4,0.5,0.3,1.1c0,0.1,0,0.2,0,0.3l-0.5,2.5C169.8,65.3,169.7,65.7,169.4,65.7z"/>
				<path class="st1" d="M173.6,58.6l0.2-0.9c0.1-0.4,0.2-0.8,0.4-1.1c0.3-0.4,0.5-0.6,0.8-0.6c0.2,0,0.4,0,0.5,0
					c0.1,0,0.3,0.1,0.4,0.1c0.3,0.1,0.5,0.2,0.6,0.3c0.3,0.1,0.6,0.3,0.9,0.5c0.2,0.1,0.4,0.3,0.6,0.5c0.2,0.2,0.3,0.4,0.2,0.7
					l-0.5,2l0.4-0.2c0.4-0.2,0.8-0.2,1.1-0.1c0.1,0.1,0.2,0.2,0.3,0.4c0,0,0.1-0.2,0.1-0.3l0.7-3.1l-0.3-0.3l-0.3-0.5
					c-0.1-0.2-0.2-0.4-0.1-0.7c0.3-0.5,0.7-0.6,1.3-0.3c0.3,0.2,0.5,0.4,0.8,0.7c0.7,0.8,0.7,1.1,0.1,0.7s-1-0.7-1.2-0.7
					s-0.2-0.1-0.3,0.1c0.1,0.2,0.3,0.4,0.4,0.5c0.2-0.4,0.4-0.2,0.4,0.6c0.4,0.7,0.4,0.8-0.1,0.4l-0.8,3.5c-0.4,0.3-0.7,0.3-1,0
					c-0.1-0.3-0.4-0.4-0.8-0.3l-0.5,0.2l-0.2,0.1l-0.2,0.1c-0.1,0-0.1,0-0.2,0.1l-0.3,0c-0.1,0-0.2,0-0.2-0.1
					c-0.1-0.1-0.2-0.3-0.1-0.6l0.4-1.8c0-0.3,0.1-0.4,0.1-0.5c-0.1-0.2-0.2-0.4-0.4-0.5c-0.2-0.1-0.4-0.3-0.6-0.4
					c-0.1-0.1-0.3-0.1-0.4-0.2c-0.2-0.1-0.4-0.1-0.6,0c-0.2,0-0.3,0.2-0.4,0.3c-0.1,0.2-0.2,0.4-0.2,0.7l-0.1,0.7l0,0.2
					c0.3,0.1,0.5,0.2,0.6,0.4c0.1,0.2,0.1,0.4,0.1,0.7c0,0.3-0.2,0.6-0.4,0.9c-0.1,0.2-0.4,0.3-0.7,0.4c-0.2,0-0.4,0-0.6-0.2
					c-0.1-0.2-0.1-0.3-0.1-0.5c0-0.1,0-0.3,0.1-0.5l0.1-0.7c-0.1,0-0.3,0-0.5,0.1c-0.8,0.3-0.8,0.2-0.2-0.3
					C173.1,58.7,173.4,58.6,173.6,58.6z M177.1,55.7l0.9,0.8c0.6,0.5,0.3,0.5-1-0.1c-1.3-0.5-1.9-0.7-1.9-0.3l0.5,0.6
					c0.6,0.7,0.4,0.8-0.6,0.1c-0.7-0.5-1-0.9-0.9-1.4c0.1-0.3,0.4-0.5,0.8-0.5c0.3,0,0.6,0,0.9,0.1
					C176.2,55.2,176.6,55.4,177.1,55.7z M174.3,59.1l-0.2,0.8c0,0.1-0.1,0.3-0.1,0.4c0.1,0,0.1,0,0.2-0.1c0.1-0.1,0.2-0.2,0.2-0.3
					c0.1-0.1,0.1-0.3,0.1-0.4C174.6,59.3,174.5,59.1,174.3,59.1L174.3,59.1z"/>
				<path class="st1" d="M183.5,64.6c-0.2,0.3-0.4,0.4-0.8,0.4c-0.5,0-1.1,0-1.8,0c-0.7,0-1.2,0-1.5,0c-0.2-0.1-0.4-0.3-0.3-0.7
					l0.4-2c0.1-0.2,0-0.4-0.2-0.4s-0.1-0.2,0.4-0.4c0.4,0,0.7,0.1,0.8,0.3c0,0.2-0.1,0.4-0.2,0.8l-0.3,1.4c-0.1,0.2,0.8,0.3,2.7,0.2
					l1.3-6.8c0.5-1.5,0.8-1.5,0.8-0.1L183.5,64.6z M185.1,61.1c1.6,1.8,1.4,1.9-0.5,0.3l-1.9-1.7c0-0.3,0.1-0.5,0.5-0.4L185.1,61.1z
					 M184.5,57.6l-0.6-0.6l-0.4-0.4c-0.2-0.3-0.2-0.5-0.2-0.6c0-0.2,0.1-0.4,0.2-0.5c0.1-0.2,0.2-0.3,0.4-0.4
					c0.6-0.1,1.1,0.2,1.7,0.9c1,1.2,1.1,1.5,0.4,0.9s-1.3-0.9-1.6-0.9c-0.3,0-0.4,0.1-0.2,0.4c0.2,0.3,0.3,0.5,0.5,0.7
					s0.3,0.4,0.5,0.7C185.3,57.9,185.1,57.8,184.5,57.6z"/>
				<path class="st1" d="M188.3,57.2l-0.3,1.3c0.2,0,0.3,0,0.5,0.2c0.2,0.2,0.4,0.5,0.7,0.9c0.3,0.3,0.5,0.5,0.7,0.6
					c0.1,0,0.1,0,0.2-0.1c0.1-0.2,0.2-0.8,0.4-1.9c0.1-0.3,0.1-0.6,0.2-0.9c-0.1,0-0.2,0.1-0.4,0.3c-0.1,0.3-0.1,0.5,0.1,0.8
					c-0.5,0-0.7-0.3-0.6-0.8c0.1-0.5,0.5-0.8,1-0.8c0.4,0,0.6,0.2,0.6,0.5c-0.1,0.2-0.1,0.4-0.1,0.5l-0.3,1.6
					c-0.1,0.5-0.2,0.8-0.3,1.1c-0.1,0.3-0.2,0.4-0.5,0.4c-0.2,0-0.4,0-0.6-0.1c-0.2-0.1-0.5-0.3-0.7-0.6c-0.3-0.3-0.4-0.5-0.5-0.6
					c-0.1-0.2-0.3-0.4-0.3-0.4c-0.1-0.1-0.2,0-0.3,0l0,0.2l-0.1,0.8c-0.1,0.5-0.2,0.8-0.4,0.8c-0.2,0-0.3,0-0.4-0.2l0-0.6
					c0-0.3,0-0.6,0.1-0.8c0-0.3,0.1-0.6,0.3-0.7l0.4-1.6C188.2,55.7,188.4,55.8,188.3,57.2z M187.6,56.8c-0.1-0.1-0.3-0.2-0.4-0.3
					l-0.1-0.1c-0.2-0.2-0.2-0.4-0.2-0.6l0-0.1c0-0.2,0.1-0.4,0.3-0.5c0.1-0.1,0.1-0.2,0.2-0.2c0.1-0.1,0.1-0.2,0.2-0.2
					c0.2,0,0.4,0.1,0.5,0.2c0.1,0.1,0.3,0.3,0.5,0.5c0.2,0.2,0.4,0.2,0.7,0.1c0.1,0,0.3-0.2,0.6-0.5c0.2-0.1,0.3-0.2,0.5-0.3
					c0.1,0,0.3,0,0.4,0c0.1,0.1,0.3,0.1,0.4,0.2c0.1,0.1,0.3,0.3,0.4,0.4c0.1,0.2,0.2,0.4,0.3,0.6c0.1,0.4,0.2,0.5,0.1,0.4
					c-0.1,0-0.2-0.1-0.3-0.2c-0.1-0.1-0.3-0.3-0.4-0.5c-0.1-0.1-0.2-0.2-0.3-0.2c-0.1,0-0.2-0.1-0.3-0.1c-0.2-0.1-0.3-0.1-0.5,0
					c-0.2,0.2-0.4,0.3-0.6,0.4c-0.1,0.1-0.4,0.2-0.9,0.2c0.3,0,0.2,0-0.1,0c-0.2-0.1-0.4-0.2-0.5-0.3c-0.1-0.1-0.2-0.2-0.3-0.2
					c-0.1-0.1-0.1-0.1-0.2,0c0,0-0.1,0.1-0.1,0.1c-0.1,0.1-0.1,0.1-0.1,0.2c0,0.1,0,0.1,0.1,0.1s0.1,0.1,0.1,0.2l0.2,0.1
					c1.2,1,1.6,1.4,1.1,1.2C188.4,57.2,188,57,187.6,56.8z"/>
				<path class="st1" d="M198.5,56.6L198.5,56.6L198.5,56.6l-0.3-0.3l-0.2-0.4c-0.1-0.2-0.1-0.4-0.1-0.7c0.2-0.5,0.6-0.6,1.1-0.3
					c0.2,0.2,0.4,0.4,0.6,0.7c0.8,1.1,0.9,1.3,0.3,0.8c-0.6-0.5-1-0.8-1.2-0.9s-0.2,0-0.2,0.2c0.1,0.2,0.2,0.3,0.3,0.4
					c0.2-0.4,0.3-0.2,0.4,0.5v0.1c0.4,0.6,0.4,0.7,0,0.3l-0.8,3.5c-0.1,0.2-0.2,0.3-0.4,0.4c-0.2,0.1-0.4,0-0.6-0.2
					c-0.3-0.1-0.7-0.1-1.3,0c-0.8,0.2-1.3,0.3-1.5,0.2c-0.2,0-0.4-0.1-0.5-0.3s-0.1-0.4-0.1-0.8c0-0.6,0.1-1.2,0.3-1.7
					c0.2-0.6,0.4-1.1,0.6-1.3l-0.2-0.2l-0.2-0.3c-0.1-0.2-0.1-0.4-0.1-0.7c0.3-0.7,0.7-0.8,1.2-0.5c0.3,0.2,0.5,0.4,0.6,0.5
					c1.2,1.4,1.5,1.8,0.7,1.2c-0.8-0.5-1.3-0.9-1.6-1.1c-0.3-0.2-0.4-0.1-0.3,0.2c0.1,0.2,0.2,0.3,0.3,0.3c0.5-0.4,0.6-0.2,0.4,0.7
					c0.4,0.6,0.3,0.7-0.2,0.3c-0.4,0.8-0.6,1.6-0.7,2.5c-0.1,0.4,0.1,0.6,0.6,0.5c0.5-0.1,1-0.2,1.4-0.2c0.3,0,0.5,0,0.7,0.1
					c0.1,0.1,0.2,0,0.2-0.2L198.5,56.6z M199.4,59.6c1.4,1,1.3,1.2-0.2,0.5l-2.9-1.6c-0.4-0.5-0.2-0.7,0.6-0.4L199.4,59.6z"/>
				<path class="st1" d="M198.2,54.4c-0.2,0.1-0.4,0-0.7-0.1c0.1,0,0.2-0.1,0.3-0.2c0-0.2-0.1-0.3-0.5-0.4c-0.4,0-0.7,0-1.1,0
					s-0.6,0-0.8,0c-0.2-0.1-0.3-0.2-0.4-0.2c0-0.1-0.1-0.2-0.1-0.3c0-0.5,0.4-0.8,1.2-0.8c0.4,0,0.7,0.1,0.9,0.2s0.4,0,0.6-0.3
					c0.2-0.3,0.3-0.5,0.4-0.8c0.2-0.3,0.3-0.6,0.5-0.7c0.2-0.2,0.4-0.2,0.6-0.3s0.4,0,0.6,0.2c0.2,0.2,0.3,0.3,0.3,0.5
					c0.1,0.2,0,0.5-0.1,0.8l-0.1-0.4c-0.2-0.3-0.4-0.4-0.8-0.4c-0.2,0-0.4,0.2-0.6,0.5l-0.5,1c-0.2,0.4-0.4,0.6-0.7,0.5l-0.4-0.1
					c-0.2-0.1-0.4-0.1-0.7-0.1c-0.6,0-0.9,0.1-0.7,0.4c0.5-0.1,0.9-0.1,1.1-0.1c0.2,0,0.5,0,0.8,0.1c0.4,0.1,0.7,0.2,0.8,0.5
					C198.5,54.1,198.4,54.3,198.2,54.4z"/>
			</g>
		</g>
		<g>
			<g>
				<path class="st1" d="M75.3,28.3c-0.3,0.8-0.6,1.6-0.6,2.5c0,0.9,0,1.6,0.3,2.2c0.2,0.5,0.5,0.9,0.8,1.1s0.7,0.2,0.9-0.1
					s0.3-0.6,0.1-1.1s-0.7-0.8-1.4-1l1.2-2.9c1.4,0,2.2,1.2,2.2,3.6c-0.4,3.3-1.7,4.9-4.1,4.9c-2.6-0.4-3.9-2.5-3.9-6
					c0-1,0.2-1.9,0.5-2.6s0.8-1.4,1.6-2.2c-1.4-0.5-2.1-1.8-2-3.9c0.3-2.6,1.1-3.9,2.4-3.9h4.4c0.2,0,0.3,0.1,0.3,0.4v3.4h-4.5
					c0.2,1,1.6,1.9,4.3,2.9C76.4,26.6,75.7,27.6,75.3,28.3z"/>
				<path class="st1" d="M85.8,34.4c0,1-0.1,1.8-0.3,2.3c-0.2,0.5-0.9,0.8-2,0.9c-1.3-0.2-1.9-1-2-2.4c-0.9,0-1.5-0.9-1.7-2.6
					c0.4-1,1-1.5,1.8-1.5v-2.1c0.1-0.8,0.7-1.5,1.8-2.1c-1.6-0.5-2.4-1.6-2.4-3.4c0-2.9,1-4.4,3.1-4.4h11.5c0.2,0,0.3,0,0.3,0.1
					c0.1,0,0.1,0.1,0.1,0.2v3.5H83.7c0,1,1.3,1.9,4,2.9c-1.3,0.8-1.9,1.7-1.9,2.7V31h0.5c0.6,0,1.1,0.2,1.7,0.5s1.3,0.9,2.1,1.8
					c1.2-0.1,1.7-1.4,1.7-4c0-1.5-0.1-2.4-0.3-2.7s-0.4-0.3-0.6,0c-0.2,0.3,0,0.9,0.6,2l-1.4,1.9c-1.4-0.4-2-1.5-1.9-3.4
					c0.1-0.8,0.5-1.4,1-1.9c0.5-0.5,1.2-0.8,2-0.9c1.5,0,2.7,0.5,3.6,1.5c0.5,0.7,0.9,1.5,1.1,2.5c0.3,1.4,0.2,3.2-0.3,5.4
					c-1,2.5-2.8,3.8-5.6,3.7c-0.6-1.1-1.1-1.9-1.6-2.4s-1.1-0.7-1.6-0.7L85.8,34.4L85.8,34.4z M96,20.8c0.5-0.5,1-1.2,1.3-1.9h5.5
					c1.6,0,2.4,0.9,2.4,2.8v12c0,0.4,0.3,0.6,0.9,0.6c0,2.1-0.9,3.2-2.6,3.3c-1.7-0.1-2.5-1-2.5-2.7V22.8H96V20.8z"/>
				<path class="st1" d="M91.6,40v-0.4c0-0.7,0.6-1,1.8-1h1.7l0.9,0.5l-0.3,0.5v0.4h0.5c0.2,0,0.4,0.2,0.6,0.5
					c0.3,0.9,0.2,1.6-0.3,2.1c-0.2-0.2-0.3-0.3-0.5-0.3h-0.4v1.1h0.9v2.4l-0.6,0.9c-0.3,0.8-1,1.2-2.1,1.2c-1.6,0-2.4-0.4-2.4-1.3
					v-0.8c-1.1,1.3-2.5,2-4.3,2c-3.7,0-5.6-1.3-5.6-3.7v-3c0-0.9,0.3-1.4,0.9-1.5c0.3,0.2,0.6,0.3,1.1,0.3H91.6z M86.1,44
					c0.4,1.3,1.7,1.1,3.8-0.5l1.7,0v-1.1h-5.5V44z"/>
				<path class="st1" d="M112.7,22.8c0,1.1,0.7,1.6,2,1.5c1.7-0.3,3.3-0.3,4.9-0.1c1.5,0.2,2.9,0.7,4.3,1.4v8.2
					c0,0.6,0.3,0.8,1.1,0.6c0,2.1-0.9,3.1-2.7,3.1c-1.8,0-2.7-0.8-2.7-2.4V27c-0.4-0.5-1-0.7-1.9-0.7c-1,0-1.8,0.4-2.6,1.1
					s-1.2,1.7-1.4,2.8c-0.2,1.1-0.2,2,0.2,2.6c0.3,0.6,0.7,1,1,1.2s0.6,0.2,0.8,0c0.2-0.2,0.2-0.6,0.1-1.1c-0.1-0.5-0.5-0.9-1.3-1.1
					l1.3-2.9c1.4,0,2.2,1.2,2.2,3.6c-0.6,3.3-1.9,4.9-4,4.9h-0.3c-2.8-0.4-4.3-2.5-4.3-6c0-2,0.9-3.9,2.6-5.6
					c-1.7-0.3-2.6-1.4-2.6-3.4c1.2-2.4,2-3.6,2.6-3.6h11.6c0.2,0,0.3,0.1,0.3,0.3v3.3c0,0.2-0.1,0.3-0.3,0.3L112.7,22.8L112.7,22.8z
					"/>
				<path class="st1" d="M130.9,18.9v-0.6c0-0.3-0.1-0.4-0.4-0.4v-0.8c0-0.5,0.3-0.8,0.8-0.8h1.3c0.8,0,1.1,0.5,1.1,1.4v4.7h0
					c-0.1,0.3-0.3,0.4-0.6,0.4h-1.8c1.7,1.7,2.6,4.5,2.6,8.3c0,4.3-0.9,6.5-2.7,6.5c-1.1,0-1.9-0.3-2.5-1.1s-0.8-1.9-0.8-3.6l2.3-2
					c0.4,1.7,0.8,2.5,1.3,2.5c0.5,0,0.7-0.3,0.7-1c0-1.3-1.1-3.4-3.2-6.4c-1-1.3-1.1-2.8-0.4-4.6c0.5-1.6,1-2.5,1.6-2.5H130.9z"/>
				<path class="st1" d="M134.2,13.1c0-1-0.2-1.6-0.6-1.8c0.2-1.2,0.7-1.7,1.6-1.5c1.5,0.4,1.6,1.9,0.5,4.4
					c-0.1,0.2-0.3,0.4-0.4,0.6l-0.7,1.5l-9.3,0c-1.5,0-2.3-0.9-2.4-2.8c0.3-2.6,2-3.8,5-3.8c1.9,0.1,3.4,0.6,4.6,1.6
					C133.1,11.9,133.7,12.5,134.2,13.1z M131.7,14.1c-1-1.1-2-1.6-3.1-1.6c-1.3,0-2,0.5-1.9,1.6H131.7z"/>
				<path class="st1" d="M137.8,29.5h4.6v1.8c1,1.6,2.2,2.6,3.6,2.8s2-0.1,2-1.2c0-1-1.7-2.4-5.1-4.1s-5.1-3.7-5.1-5.9
					c0-2.6,1.2-4,3.7-4h9.7c0.8,0,1.3,0.4,1.3,1.2V25c0,2-1,3-2.9,3c-0.9-0.7-1.7-1.5-2.3-2.3c0.6,0,0.9-0.4,0.9-1.1v-1.5h-5.5
					c0,1.6,1.6,3.1,4.9,4.5c3.3,1.4,4.9,3.3,4.9,5.7c0,2.7-1.4,4.1-4.3,4.1c-2.1,0-4.1-0.8-5.8-2.5v1.5c0,0.7-0.7,1.1-2.1,1.1
					c-1.5,0-2.3-0.3-2.3-1.1L137.8,29.5L137.8,29.5z"/>
				<path class="st1" d="M160.9,28.3c-0.4,0.8-0.6,1.6-0.6,2.5c0,0.9,0,1.6,0.3,2.2c0.2,0.5,0.5,0.9,0.8,1.1
					c0.3,0.2,0.6,0.2,0.9-0.1s0.3-0.6,0.1-1.1s-0.7-0.8-1.4-1l1.1-2.9c1.4,0,2.2,1.2,2.2,3.6c-0.4,3.3-1.7,4.9-4.1,4.9
					c-2.6-0.4-3.9-2.5-3.9-6c0-1,0.2-1.9,0.5-2.6s0.8-1.4,1.6-2.2c-1.4-0.5-2.1-1.8-2-3.9c0.3-2.6,1.1-3.9,2.4-3.9h4.4
					c0.2,0,0.3,0.1,0.3,0.4v3.4H159c0.2,1,1.6,1.9,4.3,2.9C162.1,26.6,161.3,27.6,160.9,28.3z"/>
				<path class="st1" d="M187.1,18.9c1.6,0,2.4,0.9,2.4,2.8v12c0,0.4,0.3,0.6,0.9,0.6c0,2.1-0.9,3.2-2.6,3.3c-1.8-0.1-2.6-1-2.6-2.7
					V22.8h-3.6v10.9c0,0.4,0.3,0.6,0.9,0.6c0,2.1-0.9,3.2-2.6,3.3c-1.6-0.1-2.4-0.8-2.4-2.2c-1.1,1.4-2.6,2.1-4.5,2.2
					c-1.8,0-3.2-0.6-4.3-1.7c-1.1-1.1-1.7-2.7-1.6-4.8c0-1.6,0.7-3,2-4.4c-1.4-0.5-2.1-1.8-2-3.9c0.3-2.6,1.1-3.9,2.4-3.9h4.4
					c0.2,0,0.3,0.1,0.3,0.4v3.4h-4.5c0.2,1,1.5,1.9,4.2,2.9c-1.4,1.3-2.1,2.6-2.3,3.9c-0.2,1.4,0,2.3,0.6,2.9s1.3,0.9,2.2,1.1
					c0.9,0.1,1.6,0,2.2-0.3c0.6-0.3,0.9-0.8,0.9-1.5V19.5c0.1-0.4,0.4-0.5,0.9-0.5L187.1,18.9L187.1,18.9z M189.6,20.8
					c0.5-0.5,1-1.2,1.3-1.9h5.5c1.6,0,2.4,0.9,2.4,2.8v12c0,0.4,0.3,0.6,0.9,0.6c0,2.1-0.9,3.2-2.6,3.3c-1.7-0.1-2.5-1-2.5-2.7V22.8
					h-5.1L189.6,20.8L189.6,20.8z"/>
				<path class="st1" d="M180.9,38.8c1.1-0.2,2.6-0.2,4.4,0c1.6,0.2,2.9,0.6,4,1.2v5.6c0,0.4,0.4,0.5,1.1,0.4c0,1.4-0.9,2.2-2.7,2.2
					c-1.8,0-2.7-0.7-2.7-2.2v-4.5c-0.4-0.3-0.9-0.5-1.6-0.5c-1,0-1.8,0.2-2.4,0.5s-1.1,0.9-1.3,1.7c-0.2,0.8-0.2,1.4,0.1,1.8
					s0.6,0.7,0.9,0.8c0.3,0.1,0.3,0,0.1-0.3c-0.2-0.3-0.3-0.8-0.3-1.3c0-0.5,0.3-1,0.9-1.3c0.8-0.5,1.9-0.4,3.2,0.3
					c-0.3,1.5-0.8,2.2-1.5,1.8c-0.9,0-1,0.4-0.4,1.5c0,1.2-1,1.8-3,1.8c-2.7,0-4.1-1.4-4.2-4.1c0-1.4,0.7-2.7,2.1-3.9
					C178.7,39.4,179.8,38.9,180.9,38.8z"/>
			</g>
		</g>
	</g>
</g>
</svg>
