<?xml version="1.0" encoding="utf-8"?>
<!-- Generator: Adobe Illustrator 24.1.1, SVG Export Plug-In . SVG Version: 6.00 Build 0)  -->
<svg version="1.1" id="Layer_1" xmlns="http://www.w3.org/2000/svg" xmlns:xlink="http://www.w3.org/1999/xlink" x="0px" y="0px"
	 viewBox="0 0 215.02 77.58" style="enable-background:new 0 0 215.02 77.58;" xml:space="preserve">
<style type="text/css">
	.st0{fill:#ED2224;}
	.st1{fill:#FFFFFF;}
</style>
<g>
	<g>
		<circle class="st0" cx="34.71" cy="37.68" r="27.06"/>
		<g>
			<path class="st1" d="M33.66,53h0.85v3.05h1.5v0.72h-2.35V53z"/>
			<path class="st1" d="M38.11,56.83c-0.55,0-0.97-0.18-1.3-0.55c-0.31-0.35-0.47-0.81-0.47-1.36c0-0.57,0.16-1.05,0.5-1.41
				c0.34-0.37,0.78-0.56,1.33-0.56c0.55,0,1,0.19,1.33,0.56c0.31,0.35,0.46,0.8,0.46,1.35c0,0.62-0.17,1.1-0.51,1.46
				C39.11,56.65,38.66,56.83,38.11,56.83L38.11,56.83z M38.15,56.15c0.28,0,0.5-0.12,0.67-0.36c0.15-0.24,0.24-0.54,0.24-0.92
				c0-0.35-0.08-0.65-0.23-0.88c-0.16-0.25-0.39-0.37-0.67-0.37s-0.51,0.13-0.68,0.37c-0.15,0.24-0.24,0.54-0.24,0.9
				s0.08,0.66,0.24,0.9C37.64,56.03,37.87,56.15,38.15,56.15L38.15,56.15z"/>
			<path class="st1" d="M41.25,53.71h-1.02v-0.72h2.89v0.72h-1.03v3.05h-0.85V53.71z"/>
			<path class="st1" d="M44.31,53.71h-1.02v-0.72h2.89v0.72h-1.03v3.05h-0.85V53.71L44.31,53.71z"/>
			<path class="st1" d="M48.23,56.83c-0.55,0-0.97-0.18-1.3-0.55c-0.31-0.35-0.47-0.81-0.47-1.36c0-0.57,0.16-1.05,0.5-1.41
				c0.34-0.37,0.78-0.56,1.33-0.56c0.55,0,1,0.19,1.33,0.56c0.31,0.35,0.46,0.8,0.46,1.35c0,0.62-0.17,1.1-0.51,1.46
				C49.24,56.65,48.79,56.83,48.23,56.83L48.23,56.83z M48.27,56.15c0.28,0,0.5-0.12,0.67-0.36c0.15-0.24,0.24-0.54,0.24-0.92
				c0-0.35-0.08-0.65-0.23-0.88c-0.16-0.25-0.39-0.37-0.67-0.37s-0.51,0.13-0.68,0.37c-0.15,0.24-0.24,0.54-0.24,0.9
				s0.08,0.66,0.24,0.9C47.77,56.03,47.99,56.15,48.27,56.15L48.27,56.15z"/>
		</g>
		<g>
			<g>
				<path class="st1" d="M13.45,35.02c-0.1-0.01-0.18,0.02-0.19-0.07c-0.01-0.08,0.07-0.13,0.14-0.16c0.51-0.31,1.03-0.58,1.56-0.84
					c2.56-1.2,5.26-2,8.03-2.61c2.55-0.56,5.13-0.99,7.66-1.65c3.59-0.94,7.13-2.03,10.52-3.56c1.6-0.73,3.14-1.56,4.75-2.25
					c0.52-0.22,1.04-0.43,1.59-0.51c0.75-0.12,1.16,0.07,1.32,0.81c0.1,0.48,0.3,0.95,0.55,1.38c0.5,0.88,1.22,1.47,2.21,1.73
					c0.18,0.05,0.46,0.05,0.47,0.29c0.01,0.23-0.25,0.28-0.43,0.36c-1.5,0.63-3.06,1.02-4.65,1.36c-3.96,0.88-7.96,1.46-12,1.8
					c-3.56,0.29-7.1,0.6-10.63,1.15c-3.15,0.48-6.27,1.05-9.27,2.15c-0.4,0.15-0.78,0.33-1.17,0.48
					C13.74,34.93,13.58,34.98,13.45,35.02z"/>
				<path class="st1" d="M21.31,55.69c-0.55,0-0.8-0.19-0.95-0.73c-0.24-0.86-0.57-1.68-1.22-2.33c-0.44-0.45-0.96-0.71-1.55-0.88
					c-0.19-0.05-0.49-0.05-0.5-0.3c-0.01-0.23,0.28-0.29,0.47-0.36c1.42-0.59,2.91-0.96,4.4-1.3c3.7-0.85,7.46-1.4,11.24-1.76
					c2.19-0.21,4.38-0.35,6.57-0.59c4.39-0.49,8.77-1.05,13.02-2.35c0.84-0.25,1.65-0.56,2.45-0.93c0.15-0.07,0.31-0.13,0.48-0.15
					c0.05,0,0.11-0.01,0.14,0.05s-0.01,0.1-0.05,0.14c-0.1,0.06-0.19,0.13-0.29,0.18c-2.28,1.28-4.74,2.11-7.25,2.79
					c-2.43,0.66-4.92,1.05-7.37,1.59c-5.41,1.22-10.67,2.85-15.6,5.42c-0.98,0.51-1.98,0.99-3.05,1.33
					C21.94,55.61,21.63,55.69,21.31,55.69z"/>
			</g>
		</g>
		<g>
			<path class="st1" d="M17.04,46.38l-1.41-9.32l2.05-0.31l0.39,3.86c0.08,0.8,0.18,1.9,0.29,3.3h0.03
				c0.15-0.79,0.41-1.95,0.76-3.49l0.96-4.03l2.04-0.31l0.43,3.95c0.1,0.96,0.18,2.02,0.25,3.16h0.03c0.07-0.4,0.31-1.54,0.7-3.43
				l0.94-4.03l1.95-0.29l-2.79,9.95l-2.07,0.31l-0.45-4.03c-0.12-1.11-0.19-2.07-0.21-2.91h-0.03c-0.25,1.25-0.47,2.26-0.68,3.06
				l-1.06,4.25L17.04,46.38z"/>
			<path class="st1" d="M29.34,35l-0.6,9.62l-1.91,0.29l0.6-9.62L29.34,35z"/>
			<path class="st1" d="M30.39,44.36l0.6-9.62l2.24-0.34l1.54,3.26c0.42,0.89,0.81,1.92,1.18,3.09h0.03c-0.03-1.11,0-2.45,0.1-4
				l0.17-2.79l1.76-0.26l-0.6,9.62l-2.01,0.3l-1.59-3.46c-0.57-1.27-0.99-2.34-1.25-3.18L32.5,37c-0.02,1.19-0.07,2.59-0.17,4.19
				l-0.18,2.9L30.39,44.36z"/>
			<path class="st1" d="M46.15,41.55c-0.95,0.5-1.91,0.82-2.86,0.96c-1.5,0.23-2.63-0.03-3.36-0.76c-0.75-0.75-1.06-1.86-0.97-3.33
				c0.11-1.56,0.65-2.86,1.61-3.92c0.94-1.01,2.11-1.63,3.54-1.84c0.97-0.15,1.75-0.11,2.32,0.11L45.9,34.6
				c-0.51-0.2-1.15-0.24-1.94-0.12c-0.83,0.13-1.51,0.48-2.05,1.07c-0.57,0.64-0.89,1.46-0.95,2.46c-0.06,0.98,0.14,1.72,0.6,2.22
				c0.45,0.47,1.07,0.65,1.87,0.53c0.44-0.06,0.75-0.15,0.94-0.26l0.13-2.03l-1.31,0.2l0.11-1.7l3.16-0.47L46.15,41.55z"/>
			<path class="st1" d="M51.2,41.38c-1.22,0.18-2.16-0.15-2.84-0.98c-0.65-0.8-0.93-1.91-0.84-3.32c0.09-1.45,0.55-2.72,1.35-3.77
				c0.83-1.07,1.85-1.7,3.08-1.89c1.25-0.19,2.22,0.14,2.89,0.98c0.64,0.8,0.91,1.89,0.82,3.27c-0.1,1.57-0.55,2.87-1.38,3.9
				C53.49,40.58,52.45,41.18,51.2,41.38L51.2,41.38z M51.4,39.64c0.63-0.09,1.15-0.48,1.56-1.15c0.39-0.65,0.62-1.45,0.67-2.42
				c0.05-0.91-0.07-1.64-0.38-2.18c-0.34-0.58-0.82-0.82-1.45-0.73c-0.65,0.1-1.17,0.49-1.59,1.18c-0.39,0.65-0.62,1.45-0.68,2.38
				c-0.05,0.93,0.07,1.66,0.4,2.21c0.35,0.56,0.83,0.8,1.45,0.71H51.4z"/>
		</g>
		<g>
			<g>
				<path class="st1" d="M18.71,25.11c0.19,0.02,0.34,0.09,0.43,0.23c0.09,0.14,0.14,0.35,0.14,0.65c0,0.3-0.06,0.52-0.2,0.65
					c-0.13,0.14-0.32,0.2-0.56,0.2s-0.43-0.06-0.56-0.2c-0.13-0.14-0.2-0.35-0.2-0.65v-3.31c0-0.21-0.13-0.41-0.38-0.61v-0.34
					c0-0.38,0.24-0.56,0.72-0.56h0.79v0.75h-0.65v0.05c0.3,0.2,0.45,0.44,0.45,0.71v2.44H18.71z M18.67,25.81
					c-0.03-0.04-0.07-0.05-0.15-0.05v0.43c0.08,0,0.13-0.02,0.15-0.05c0.03-0.04,0.04-0.09,0.04-0.16
					C18.71,25.9,18.69,25.84,18.67,25.81z"/>
				<path class="st1" d="M24.31,27.28h0.56v0.61h-0.56v0.23h0.24c0.18,0,0.31,0.05,0.39,0.14c0.08,0.09,0.13,0.23,0.13,0.4
					c0,0.18-0.05,0.32-0.14,0.4c-0.09,0.08-0.25,0.13-0.47,0.13c-0.55,0-0.83-0.15-0.83-0.44v-0.05h-1.78
					c-0.38,0-0.56-0.24-0.56-0.7s0.19-0.7,0.57-0.7h1.78v-0.26h0.68L24.31,27.28L24.31,27.28z M23.63,27.89h-1.48
					c-0.13,0-0.19,0.04-0.19,0.11s0.06,0.11,0.19,0.11h1.48V27.89z M24.41,28.73c0.06,0,0.11-0.01,0.13-0.03
					c0.03-0.02,0.04-0.04,0.04-0.05c0-0.03-0.02-0.05-0.05-0.05c-0.03-0.01-0.07-0.02-0.13-0.03h-0.1
					C24.31,28.68,24.34,28.73,24.41,28.73z"/>
				<path class="st1" d="M33.49,21.15v0.75h-4.08v-0.75H33.49z M29.38,24.16c0-1.26,0.71-1.87,2.07-1.87s2.05,0.63,2.05,1.89v2.65
					h-0.95v-2.65c0-0.75-0.36-1.14-1.1-1.14c-0.73,0-1.1,0.38-1.1,1.14v0.93c0.19,0.02,0.34,0.09,0.43,0.23
					c0.09,0.14,0.14,0.35,0.14,0.65c0,0.25-0.06,0.45-0.2,0.61c-0.13,0.16-0.32,0.24-0.56,0.24c-0.25,0-0.43-0.07-0.56-0.22
					c-0.13-0.15-0.2-0.35-0.2-0.63v-1.8V24.16z M30.17,26.18c0.08,0,0.13-0.02,0.15-0.05s0.04-0.09,0.04-0.16s-0.01-0.13-0.04-0.16
					s-0.07-0.05-0.15-0.05V26.18z"/>
			</g>
			<path class="st1" d="M25.57,21.15h-0.9h-0.01h-3.35c-0.61,0-0.91,0.25-0.91,0.75v0.15c0.13,0.21,0.19,0.41,0.19,0.61v2.38
				c-0.27,0.04-0.49,0.42-0.49,0.89c0,0.47,0.22,0.85,0.49,0.89v0h0.95v-0.79c0-0.23,0.06-0.34,0.17-0.34
				c0.12,0,0.17,0.13,0.17,0.38c0,0.5,0.5,0.75,1.51,0.75c0.85,0,1.28-0.38,1.28-1.14v-2.36c0-0.16-0.05-0.32-0.16-0.45
				c-0.11-0.14-0.3-0.2-0.59-0.2c-0.31,0-0.52,0.06-0.63,0.2c-0.11,0.14-0.16,0.28-0.16,0.45c0,0.16,0.05,0.31,0.14,0.42
				c0.12,0.15,0.27,0.22,0.47,0.23v1.71c0,0.25-0.15,0.38-0.45,0.38s-0.45-0.13-0.45-0.38c0-0.5-0.3-0.75-0.89-0.75h-0.4v-2.27
				c0-0.25-0.06-0.48-0.19-0.68c0-0.05,0.07-0.07,0.23-0.07h3.09h0.01h0.9c0.65,0,0.98,0.25,0.98,0.75v4.16h0.95v-4.16
				C27.5,21.65,26.85,21.15,25.57,21.15z M20.75,26.18c-0.03,0.04-0.07,0.05-0.15,0.05V25.8c0.08,0,0.13,0.02,0.15,0.05
				c0.03,0.04,0.04,0.09,0.04,0.16C20.78,26.09,20.77,26.14,20.75,26.18z M23.81,23.23c0.02-0.03,0.05-0.04,0.12-0.04h0.01v0.25
				c-0.06,0-0.11-0.02-0.13-0.05c-0.02-0.02-0.03-0.05-0.03-0.08C23.78,23.29,23.79,23.26,23.81,23.23z"/>
		</g>
	</g>
	<g>
		<g>
			<g>
				<path class="st0" d="M71.76,56.31c0.06,0.02,0.13,0.04,0.2,0.07c0.22,0.28,0.45,0.46,0.67,0.55c0.33,0.21,0.74,0.31,1.23,0.3
					l0.42,0c0.21,0.06,0.27,0.29,0.19,0.69l-0.43,2.46c-0.02,0.14-0.06,0.24-0.11,0.31c-0.05,0.07-0.13,0.1-0.21,0.1
					c-0.1-0.05-0.2-0.12-0.3-0.23l-0.16-0.18l-0.14-0.32c0.16,0.02,0.26-0.01,0.29-0.09l0.37-2.13l-0.47-0.11
					c-0.3-0.04-0.58-0.13-0.82-0.25c-0.21-0.09-0.44-0.22-0.68-0.4l-0.25-0.14l-0.55,2.09c0.16,0.11,0.3,0.26,0.41,0.43
					c0.11,0.22,0.12,0.43,0.04,0.63l-0.07,0.17c-0.08,0.14-0.21,0.27-0.4,0.39l-0.23,0.14l-0.3,0.1c-0.13,0.02-0.24,0.01-0.34-0.03
					c-0.07-0.04-0.14-0.11-0.2-0.2c-0.02-0.03-0.03-0.08-0.05-0.13c-0.01-0.05-0.01-0.11,0-0.18l0.19-1.17
					c-0.2-0.09-0.47-0.12-0.8-0.09l-0.64,0.14c0.41-0.51,0.92-0.71,1.55-0.6l0.14-0.72l0.26-0.31c0.13-0.59,0.28-0.98,0.45-1.19
					c0.11-0.14,0.29-0.19,0.54-0.15c-0.22-0.14-0.42-0.26-0.58-0.36c-0.07-0.06-0.16-0.12-0.26-0.19c-0.09-0.07-0.15-0.08-0.18-0.03
					c-0.04,0.03-0.08,0.07-0.13,0.12c-0.08,0.06-0.12,0.12-0.11,0.17c0.01,0.06,0.03,0.1,0.06,0.14c0.02,0.04,0.06,0.09,0.1,0.16
					l0.23,0.07l-0.07,0.24c-0.05,0.14-0.13,0.23-0.22,0.25c-0.09,0.02-0.21-0.01-0.35-0.12l-0.1-0.09
					c-0.12-0.17-0.18-0.38-0.18-0.62l-0.01-0.12c0.04-0.21,0.12-0.38,0.26-0.49c0.06-0.08,0.13-0.15,0.2-0.22
					c0.07-0.07,0.15-0.15,0.23-0.24c0.18,0,0.36,0.07,0.53,0.21c0.11,0.1,0.28,0.25,0.5,0.44c0.21,0.14,0.44,0.18,0.7,0.12
					c0.09-0.03,0.29-0.18,0.6-0.46c0.16-0.13,0.32-0.23,0.46-0.28c0.14-0.05,0.29-0.04,0.44,0.04c0.15,0.05,0.3,0.12,0.45,0.2
					c0.15,0.11,0.3,0.24,0.45,0.4c0.14,0.2,0.25,0.41,0.34,0.64c0.05,0.22,0.02,0.36-0.09,0.42c-0.05-0.01-0.11-0.08-0.2-0.19
					c-0.09-0.11-0.23-0.27-0.42-0.47c-0.09-0.1-0.18-0.18-0.28-0.23c-0.09-0.04-0.18-0.09-0.26-0.14c-0.17-0.09-0.32-0.09-0.46,0.01
					c-0.19,0.15-0.38,0.3-0.57,0.44C72.52,56.24,72.23,56.3,71.76,56.31z M70.82,59.58l-0.25,0.79l-0.04,0.14
					c0.14-0.18,0.25-0.33,0.34-0.47l0.05-0.12C71.01,59.8,70.97,59.69,70.82,59.58z M71.76,56.31c0.23,0,0.18-0.01-0.16-0.04
					C71.65,56.28,71.7,56.29,71.76,56.31z"/>
				<path class="st0" d="M80.98,56.57l-0.01,0v0l-0.32-0.3l-0.34-0.35c-0.14-0.24-0.16-0.5-0.05-0.78c0.26-0.52,0.67-0.63,1.22-0.31
					c0.2,0.19,0.42,0.42,0.66,0.68c0.14,0.17,0.44,0.2,0.89,0.09c-0.15,0.6-0.54,0.71-1.17,0.32c-0.31-0.25-0.55-0.43-0.74-0.55
					c-0.19-0.12-0.28-0.06-0.28,0.18c0.17,0.23,0.31,0.39,0.42,0.47c0.23-0.4,0.36-0.23,0.39,0.5c0.45,0.65,0.44,0.82-0.02,0.51
					l-0.72,3.44c-0.2,0.32-0.53,0.38-1,0.16c-0.25-0.13-0.69-0.14-1.31-0.02l-0.58,0.11l-0.32,0.06l-0.3,0.03l-0.31-0.02
					c-0.18-0.06-0.33-0.17-0.44-0.34c-0.11-0.17-0.16-0.47-0.15-0.9c0.05-0.48,0.12-0.89,0.19-1.23c0.16-0.62,0.36-1.2,0.61-1.74
					l-0.15-0.16l-0.28-0.39c-0.09-0.21-0.12-0.44-0.09-0.69c0.2-0.53,0.55-0.68,1.06-0.44c0.36,0.23,0.6,0.44,0.74,0.65
					c0.93,1.05,1.06,1.34,0.39,0.86c-0.67-0.48-1.1-0.75-1.29-0.83c-0.19-0.07-0.28-0.01-0.27,0.18c0.1,0.15,0.2,0.29,0.28,0.41
					c0.45-0.55,0.58-0.33,0.39,0.63c0.36,0.58,0.29,0.67-0.21,0.28c-0.36,0.82-0.56,1.64-0.62,2.46c-0.01,0.28,0.23,0.41,0.71,0.38
					c0.47-0.08,0.93-0.13,1.39-0.13c0.28-0.02,0.52,0.03,0.72,0.14c0.1,0.06,0.17-0.02,0.21-0.23L80.98,56.57z M82.07,59.41
					c1.08,0.87,1.01,1.02-0.22,0.45l-2.55-1.64c-0.33-0.52-0.14-0.63,0.58-0.34L82.07,59.41z M81.43,55.64
					c0.12-0.13,0.15-0.14,0.1-0.01c-0.05,0.13,0.22,0.17,0.8,0.13c0.13-0.03,0.26-0.09,0.38-0.17c0.15-0.11,0.26-0.21,0.34-0.32
					c0.12-0.17,0.19-0.32,0.23-0.46c0.14-0.07,0.28-0.11,0.41-0.11c0.14,0,0.3,0.05,0.48,0.14c0.08,0.11,0.25,0.26,0.51,0.46
					c0.26,0.2,0.46,0.39,0.59,0.57c0.13,0.18,0.19,0.34,0.19,0.5c0,0.12-0.02,0.3-0.07,0.54l-0.63,3.25l-0.07,0.29
					c-0.11,0.27-0.32,0.36-0.62,0.26c-0.19-0.07-0.38-0.35-0.58-0.82c0.3,0.12,0.48,0.12,0.55,0l0.6-2.95
					c0.04-0.23,0.07-0.4,0.07-0.5c0-0.1-0.18-0.3-0.53-0.6c-0.22-0.21-0.38-0.34-0.49-0.4c-0.1,0.04-0.23,0.2-0.41,0.46
					c-0.12,0.16-0.29,0.27-0.51,0.33C82.17,56.26,81.72,56.06,81.43,55.64z"/>
				<path class="st0" d="M76.86,62.04c0.06-0.41,0.3-0.75,0.72-1.03c0.27-0.17,0.63-0.25,1.06-0.23c0.39,0.04,0.72,0.19,0.99,0.46
					c0.19,0.16,0.41,0.44,0.66,0.83c0.25,0.45,0.44,0.68,0.57,0.68c0.1,0,0.26-0.16,0.46-0.49l0.49-0.84
					c0.12-0.27,0.08-0.48-0.12-0.63c0.46-0.01,0.74,0.06,0.82,0.22c0.06,0.08,0.09,0.17,0.09,0.25c0,0.06-0.02,0.13-0.07,0.2
					l-0.58,1.04c-0.17,0.27-0.33,0.5-0.47,0.69c-0.17,0.18-0.38,0.28-0.61,0.28c-0.27,0-0.5-0.14-0.67-0.41
					c-0.16-0.18-0.34-0.42-0.56-0.74c-0.15-0.26-0.32-0.46-0.5-0.59c-0.21-0.13-0.43-0.2-0.67-0.2c-0.27,0-0.42,0.05-0.48,0.15
					c-0.2,0.1-0.34,0.25-0.41,0.45c-0.05,0.23-0.01,0.41,0.13,0.53c0.07,0.17,0.16,0.17,0.28,0c-0.13-0.21-0.11-0.4,0.05-0.57
					c0.17-0.17,0.38-0.12,0.63,0.16c0.09,0.27,0.11,0.49,0.07,0.65c0,0.13-0.06,0.24-0.17,0.35c-0.11,0.16-0.31,0.23-0.58,0.23
					c-0.41,0-0.74-0.17-0.98-0.51c-0.11-0.13-0.16-0.3-0.17-0.51C76.78,62.31,76.79,62.18,76.86,62.04z"/>
				<path class="st0" d="M89.5,56.36c0.05,0.01,0.11,0.02,0.16,0.04c0.07,0.02,0.13,0.04,0.21,0.07c0.22,0.28,0.44,0.46,0.67,0.55
					c0.33,0.21,0.74,0.31,1.23,0.3l0.42,0c0.21,0.06,0.27,0.29,0.2,0.69l-0.43,2.46c-0.02,0.14-0.06,0.24-0.12,0.31
					s-0.13,0.1-0.21,0.1c-0.1-0.05-0.19-0.12-0.29-0.23l-0.16-0.18l-0.15-0.32c0.16,0.02,0.26-0.01,0.29-0.09l0.37-2.13l-0.47-0.11
					c-0.3-0.04-0.57-0.13-0.82-0.25c-0.21-0.09-0.44-0.22-0.69-0.4l-0.25-0.14l-0.99,3.45c-0.06,0.13-0.13,0.23-0.21,0.31
					c-0.05,0.05-0.1,0.09-0.16,0.1l0,0v0c-0.19,0.05-0.37,0.05-0.55,0c-0.45-0.55-0.67-1.09-0.65-1.61c0.01-0.14,0.04-0.26,0.1-0.37
					c0.07-0.16,0.15-0.28,0.25-0.37c0.1-0.09,0.25-0.13,0.44-0.11l0.39,0.28L88.21,58l0.26-0.31c0.13-0.59,0.28-0.98,0.45-1.19
					c0.11-0.14,0.29-0.19,0.54-0.15c-0.01,0-0.01-0.01-0.02-0.01l0.09,0.02C89.52,56.36,89.51,56.36,89.5,56.36z M90.38,56.03
					l0.18,0.35l-0.89-0.19c-0.43-0.11-0.71-0.19-0.85-0.25c-0.13-0.06-0.25-0.12-0.35-0.18c-0.1-0.05-0.17-0.04-0.2,0.01
					c-0.04,0.03-0.08,0.08-0.13,0.14c-0.08,0.07-0.11,0.13-0.09,0.18c0.02,0.05,0.04,0.1,0.07,0.13c0.03,0.03,0.06,0.08,0.11,0.15
					l0.18,0.11c1.28,0.88,1.68,1.25,1.21,1.12c-0.48-0.13-0.92-0.3-1.33-0.5c-0.13-0.07-0.28-0.15-0.43-0.25l-0.1-0.08
					c-0.19-0.18-0.28-0.38-0.28-0.6l0.02-0.12c0.02-0.22,0.09-0.39,0.22-0.51c0.05-0.08,0.11-0.16,0.18-0.24
					c0.04-0.1,0.1-0.22,0.17-0.34c0.23-0.09,0.48-0.04,0.76,0.16c0.21,0.11,0.48,0.25,0.81,0.41c0.34,0.14,0.57,0.21,0.66,0.23
					c0.1,0.02,0.23,0.03,0.42,0.03c-0.04-0.01-0.07,0-0.1,0.03C90.53,55.88,90.45,55.96,90.38,56.03z M87.82,60.16l0.26-1.43
					c-0.26,0.25-0.42,0.49-0.48,0.71C87.54,59.64,87.62,59.88,87.82,60.16z M90.53,55.78c0.25,0.01,0.46-0.01,0.61-0.06
					c0.48-0.13,0.83-0.31,1.04-0.56c0.14-0.13,0.34-0.19,0.6-0.19c0.38,0.04,0.67,0.14,0.89,0.31c0.24,0.1,0.53,0.3,0.88,0.59
					c0.34,0.3,0.56,0.56,0.65,0.8c0.06,0.15,0.09,0.3,0.09,0.46c0,0.11-0.01,0.22-0.04,0.33l-0.48,3.01
					c-0.03,0.14-0.08,0.24-0.14,0.31c-0.07,0.07-0.15,0.1-0.26,0.1c-0.3,0-0.53-0.2-0.69-0.61c0.11,0.13,0.24,0.11,0.4-0.06
					l0.48-2.86c0.04-0.18,0.03-0.33-0.02-0.46c-0.05-0.13-0.19-0.3-0.41-0.51c-0.28-0.24-0.51-0.4-0.68-0.48
					c-0.18-0.07-0.39-0.14-0.64-0.2c-0.25,0.03-0.52,0.15-0.8,0.35c-0.36,0.27-0.73,0.39-1.12,0.38c-0.16-0.01-0.37-0.04-0.63-0.1
					l-0.43-0.37C90.04,55.84,90.28,55.79,90.53,55.78z"/>
				<path class="st0" d="M98.41,57.81l0.32-1.65c0.04-0.48,0.08-0.86,0.13-1.13c0.15-0.35,0.34-0.49,0.59-0.41
					c0.18,0.03,0.34,0.12,0.51,0.29c0.16,0.16,0.34,0.37,0.54,0.62c0.22,0.3,0.43,0.41,0.63,0.33c0.22-0.12,0.44-0.33,0.64-0.63
					c0.01-0.34,0.13-0.49,0.37-0.44c0.2,0.03,0.39,0.11,0.57,0.26c0.18,0.15,0.33,0.33,0.46,0.57c0.13,0.23,0.2,0.45,0.23,0.64
					c0.03,0.2,0.04,0.35,0.04,0.45c0,0.11-0.02,0.25-0.05,0.44l-0.63,3.25c-0.02,0.13-0.06,0.24-0.11,0.32
					c-0.05,0.07-0.13,0.09-0.25,0.06c-0.22,0-0.46-0.27-0.71-0.82c0.25,0.2,0.38,0.17,0.39-0.11l0.58-2.77
					c0.05-0.27,0.07-0.47,0.05-0.58c-0.01-0.1-0.06-0.25-0.14-0.44c-0.11-0.14-0.22-0.25-0.32-0.32c-0.05-0.03-0.1-0.02-0.15,0.05
					l-0.41,0.47c-0.13,0.16-0.25,0.29-0.37,0.41c-0.25,0.12-0.5,0.04-0.75-0.21l-0.37-0.31c-0.25-0.2-0.43-0.37-0.55-0.51
					l-0.03-0.04c-0.04,0.16-0.1,0.37-0.18,0.64l-0.34,1.74c0.22,0.1,0.4,0.24,0.53,0.42c0.2,0.32,0.28,0.69,0.26,1.12
					c-0.03,0.28-0.16,0.56-0.39,0.84c-0.24,0.28-0.48,0.43-0.73,0.46c-0.35,0.07-0.61,0-0.78-0.23c-0.06-0.23-0.06-0.44,0-0.61
					c0.03-0.12,0.06-0.27,0.09-0.44l0.25-1.27c-0.26-0.06-0.5-0.1-0.75-0.12c-0.99,0.03-0.99-0.09,0-0.36
					C97.89,57.78,98.17,57.78,98.41,57.81z M98.99,58.6l-0.23,1.09c-0.03,0.16-0.06,0.28-0.07,0.36c0,0.08,0.07,0.1,0.21,0.04
					c-0.01,0,0.05-0.09,0.21-0.25c0.15-0.19,0.22-0.43,0.21-0.7C99.23,58.92,99.13,58.74,98.99,58.6z"/>
				<path class="st0" d="M112.01,59.65c-0.33,0.94-0.82,1.41-1.47,1.41c-0.26,0-0.66-0.21-1.2-0.64c-0.26-0.2-0.52-0.3-0.78-0.3
					c-0.3,0-0.63,0.13-0.98,0.39c0.29-0.89,0.85-1.34,1.66-1.34c0.12,0,0.41,0.16,0.86,0.47c0.45,0.32,0.78,0.47,0.98,0.47
					c0.19,0,0.36-0.05,0.5-0.15C111.72,59.85,111.86,59.75,112.01,59.65z"/>
				<path class="st0" d="M116.68,55.79c-0.3,0.1-0.46,0.41-0.48,0.94c0.16,0.43,0.44,0.74,0.83,0.94c0.32,0.17,0.65,0.31,0.99,0.42
					c0.19,0.04,0.35,0.09,0.46,0.14l0.06-0.11c0.14-0.23,0.28-0.43,0.41-0.59c0.26-0.25,0.48-0.28,0.66-0.09
					c0.16,0.1,0.24,0.29,0.25,0.58c0.01,0.19-0.09,0.4-0.29,0.62c-0.18,0.25-0.43,0.38-0.75,0.39l-0.39,0.85
					c-0.17,0.38-0.41,0.64-0.7,0.79c-0.3,0.15-0.67,0.18-1.12,0.09c-0.44-0.12-0.73-0.33-0.88-0.62c-0.14-0.3-0.18-0.58-0.13-0.84
					c0.06-0.27,0.22-0.39,0.48-0.36c0.24,0.04,0.33,0.23,0.26,0.58c0.07,0.26,0.07,0.32,0.02,0.18c0.13,0.24,0.28,0.37,0.45,0.4
					c0.2,0.04,0.38,0.01,0.54-0.07c0.14-0.04,0.27-0.19,0.39-0.46l0.39-0.78c-0.16-0.04-0.33-0.08-0.5-0.12
					c-0.4-0.12-0.81-0.32-1.24-0.58c-0.5-0.3-0.8-0.67-0.88-1.12c-0.04-0.29-0.01-0.56,0.07-0.82c0.04-0.24,0.15-0.49,0.34-0.73
					c0.41-0.42,0.85-0.62,1.35-0.59c0.24,0,0.46,0.02,0.64,0.04c0.19,0.03,0.41,0.09,0.67,0.19c0.48,0.26,0.7,0.66,0.65,1.2
					c-0.09,0.29-0.24,0.5-0.48,0.63c-0.14,0.09-0.38,0.12-0.72,0.11c-0.45-0.08-0.8-0.27-1.05-0.59
					C116.85,56.23,116.75,56.02,116.68,55.79z M117.04,55.67c0.13,0.13,0.28,0.27,0.45,0.44c0.25,0.15,0.51,0.22,0.79,0.23
					c0.15-0.08,0.21-0.18,0.18-0.3c-0.02-0.21-0.17-0.34-0.44-0.39c-0.19-0.06-0.41-0.08-0.67-0.06
					C117.23,55.58,117.13,55.61,117.04,55.67z"/>
				<path class="st0" d="M117.91,54.29c-0.1,0.09-0.18,0.17-0.25,0.24c-0.13,0.11-0.26,0.13-0.4,0.06
					c-0.14-0.07-0.13-0.21,0.06-0.42c0.06-0.04,0.12-0.08,0.18-0.13c0.02-0.03,0.04-0.06,0.07-0.09c-0.02-0.07-0.05-0.13-0.09-0.18
					c-0.1-0.19-0.17-0.36-0.21-0.49c-0.03-0.13-0.05-0.32-0.05-0.56c0.02-0.24,0.07-0.43,0.17-0.57c0.1-0.14,0.22-0.24,0.35-0.3
					c0.14-0.07,0.3-0.1,0.49-0.1c0.16,0.06,0.29,0.16,0.4,0.29c0.1,0.13,0.17,0.28,0.2,0.43c0.03,0.16,0.02,0.35-0.04,0.58
					c-0.07,0.22-0.16,0.41-0.26,0.57c-0.09,0.12-0.19,0.25-0.3,0.38c0.03,0.03,0.07,0.07,0.1,0.1c0.56,0.95,0.42,1.01-0.42,0.19
					C117.92,54.29,117.91,54.29,117.91,54.29z M117.97,53.64c0.17-0.3,0.27-0.54,0.31-0.72c0.02-0.14,0.03-0.25,0.02-0.35
					c-0.01-0.06-0.04-0.12-0.12-0.16c-0.11-0.04-0.2-0.04-0.26,0.02c-0.09,0.08-0.14,0.21-0.17,0.39c-0.03,0.21,0.01,0.44,0.12,0.68
					C117.88,53.5,117.91,53.55,117.97,53.64z"/>
				<path class="st0" d="M122.23,57.89c0.03-0.1,0.02-0.19-0.03-0.27c-0.18-0.26-0.03-0.32,0.46-0.18c0.18,0.09,0.29,0.25,0.31,0.48
					c-0.02,0.27-0.06,0.56-0.14,0.88c0.01,0,0.07,0.02,0.18,0.07c0.11,0.04,0.24,0.12,0.4,0.23c0.16,0.11,0.33,0.26,0.51,0.44
					c0.33,0.25,0.56,0.4,0.71,0.44c0.15,0.05,0.3,0.01,0.45-0.11c0.33-0.35,0.51-0.76,0.55-1.24c-0.22,0.01-0.45-0.02-0.69-0.09
					c-0.48-0.15-0.9-0.33-1.25-0.54c-0.39-0.2-0.72-0.41-1-0.61c-0.2-0.13-0.35-0.32-0.44-0.58c-0.11-0.31-0.14-0.57-0.07-0.8
					c0.05-0.37,0.25-0.67,0.58-0.91c0.33-0.24,0.78-0.33,1.34-0.27c0.39,0.06,0.74,0.15,1.06,0.28c0.48,0.19,0.84,0.5,1.1,0.92
					c0.18,0.36,0.24,0.68,0.18,0.96c-0.23,0.39-0.63,0.55-1.19,0.47c-0.73-0.23-1.15-0.61-1.26-1.14c0.02-0.23,0.13-0.41,0.32-0.53
					c0.01,0.12,0.11,0.29,0.32,0.51l0.35,0.21c0.77,0.27,0.95,0.18,0.56-0.29c-0.56-0.4-1.04-0.62-1.44-0.67
					c-0.4-0.04-0.73,0.01-0.98,0.17c-0.17,0.18-0.28,0.35-0.31,0.51c-0.04,0.11-0.03,0.24,0.04,0.39c0.04,0.1,0.16,0.21,0.35,0.34
					c0.17,0.13,0.43,0.3,0.78,0.48c0.56,0.33,1.12,0.51,1.68,0.54c0.54-0.19,0.78,0.02,0.72,0.62c0.01,0.17-0.08,0.5-0.26,1
					c-0.32,0.7-0.75,1.09-1.29,1.15c-0.31,0.08-0.65-0.05-1.01-0.39c-0.26-0.23-0.51-0.44-0.77-0.65c-0.19-0.12-0.33-0.17-0.43-0.17
					l-0.1,0.34c-0.06,0.36-0.17,0.67-0.32,0.94c-0.11,0.1-0.27,0.13-0.5,0.09c-0.12-0.02-0.21-0.11-0.28-0.28
					c-0.09-0.16-0.15-0.4-0.16-0.74c-0.01-0.33,0.05-0.59,0.19-0.77c0.12-0.13,0.25-0.22,0.39-0.27l0.16-0.01L122.23,57.89z
					 M121.63,59.86l-0.04,0.43l0.26-0.8c-0.04-0.01-0.08,0.02-0.11,0.07C121.7,59.64,121.66,59.74,121.63,59.86z"/>
				<path class="st0" d="M124.68,65.68c-0.26-0.11-0.47-0.42-0.62-0.93c0.26,0.26,0.41,0.21,0.45-0.15
					c0.02-0.08,0.04-0.17,0.06-0.27l0.34-1.75c-0.36-0.99-0.18-1.56,0.53-1.71c0.33,0.17,0.41,0.53,0.25,1.09
					c-0.01,0.07-0.02,0.16-0.04,0.26l-0.46,2.47C125.11,65.34,124.94,65.68,124.68,65.68z"/>
				<path class="st0" d="M129.54,56.84c-0.09,0.02-0.21-0.01-0.35-0.12l-0.1-0.09c-0.12-0.17-0.19-0.38-0.19-0.62l-0.01-0.12
					c0.04-0.21,0.12-0.38,0.26-0.49c0.06-0.08,0.13-0.15,0.2-0.22c0.07-0.07,0.15-0.15,0.23-0.24c0.18,0,0.36,0.07,0.52,0.21
					c0.11,0.1,0.28,0.25,0.51,0.44c0.21,0.14,0.44,0.18,0.7,0.12c0.09-0.03,0.29-0.18,0.6-0.46c0.16-0.13,0.32-0.23,0.46-0.28
					c0.14-0.05,0.29-0.04,0.44,0.04c0.16,0.05,0.31,0.12,0.46,0.2c0.15,0.11,0.3,0.24,0.45,0.4c0.14,0.2,0.25,0.41,0.33,0.64
					c0.05,0.22,0.02,0.36-0.09,0.42c-0.05-0.01-0.11-0.08-0.2-0.19c-0.09-0.11-0.23-0.27-0.42-0.47c-0.09-0.1-0.18-0.18-0.28-0.23
					c-0.09-0.04-0.18-0.09-0.26-0.14c-0.17-0.09-0.32-0.09-0.46,0.01c-0.19,0.15-0.38,0.3-0.57,0.44c-0.1,0.13-0.39,0.19-0.89,0.19
					c0.26,0,0.21-0.01-0.16-0.04c-0.22-0.14-0.42-0.26-0.59-0.37c-0.07-0.06-0.16-0.12-0.26-0.19c-0.09-0.07-0.15-0.08-0.18-0.03
					c-0.04,0.03-0.08,0.07-0.14,0.12c-0.08,0.06-0.12,0.12-0.11,0.17c0.01,0.06,0.03,0.1,0.06,0.14c0.02,0.04,0.06,0.09,0.1,0.16
					l0.22,0.07l-0.07,0.24C129.7,56.73,129.63,56.82,129.54,56.84z M129.73,60.37c-0.1,0.14-0.17,0.24-0.23,0.31
					c-0.05,0.07-0.12,0.1-0.21,0.1c-0.09,0-0.16-0.05-0.22-0.14c-0.02-0.03-0.03-0.08-0.03-0.13c-0.03-0.05-0.04-0.11-0.03-0.18
					l0.45-2.42l0.26-0.31c0.13-0.59,0.28-0.98,0.45-1.19c0.16-0.21,0.48-0.22,0.94-0.04c0.22,0.28,0.45,0.46,0.67,0.55
					c0.33,0.21,0.74,0.31,1.23,0.3l0.42,0c0.21,0.06,0.27,0.29,0.2,0.69l-0.43,2.46c-0.02,0.14-0.06,0.24-0.12,0.31
					s-0.13,0.1-0.21,0.1c-0.1-0.05-0.19-0.12-0.29-0.23l-0.16-0.18l-0.15-0.32c0.16,0.02,0.26-0.01,0.29-0.09l0.37-2.13l-0.47-0.11
					c-0.3-0.04-0.57-0.13-0.82-0.25c-0.21-0.09-0.44-0.22-0.69-0.4l-0.25-0.14L129.73,60.37z"/>
				<path class="st0" d="M137.25,56.63l-0.76,3.46l0.52-0.04c0.44-0.08,0.91-0.09,1.43-0.05l-0.02,0.01l0.19,0.08l0.1,0.09
					c0.19,0.05,0.33,0.01,0.42-0.14c0.09-0.1,0.15-0.26,0.2-0.46l0.37-1.76c0.03-0.15,0.03-0.27,0-0.35
					c0.02-0.07-0.01-0.11-0.09-0.12c-0.01,0-0.05,0.05-0.12,0.16c-0.09,0.11-0.15,0.28-0.17,0.5c0.01,0.23,0.02,0.35,0.04,0.36
					c0,0.16,0.01,0.26,0.03,0.3c0.1,0.41,0.05,0.58-0.15,0.51c-0.2-0.15-0.33-0.32-0.39-0.52c-0.09-0.16-0.13-0.42-0.12-0.78
					c0.06-0.39,0.17-0.68,0.35-0.87c0.15-0.19,0.34-0.31,0.57-0.37c0.39-0.08,0.64,0.01,0.74,0.27c0.14,0.18,0.14,0.54-0.02,1.08
					l-0.36,1.71c-0.13,0.49-0.28,0.85-0.46,1.08c-0.2,0.1-0.45,0.14-0.75,0.11c-0.21-0.28-0.7-0.36-1.49-0.24l-0.55,0.07l-0.49,0.06
					c-0.16-0.01-0.31-0.05-0.46-0.13c-0.11-0.16-0.12-0.36-0.04-0.59l0.29-1.26l0.56-2.43C137.04,55.8,137.26,55.89,137.25,56.63z
					 M136.45,56.92c-0.12-0.09-0.25-0.19-0.39-0.3l-0.09-0.09c-0.16-0.2-0.25-0.4-0.24-0.6v-0.16c0.1-0.21,0.22-0.36,0.36-0.47
					c0.06-0.07,0.13-0.15,0.21-0.21c0.08-0.07,0.16-0.14,0.24-0.23c0.19,0.01,0.36,0.09,0.51,0.23c0.11,0.1,0.27,0.26,0.49,0.46
					c0.2,0.15,0.43,0.2,0.69,0.15c0.09-0.02,0.3-0.17,0.62-0.43c0.17-0.13,0.33-0.21,0.48-0.26c0.15-0.05,0.29-0.03,0.44,0.06
					c0.15,0.06,0.3,0.14,0.45,0.22c0.14,0.12,0.29,0.26,0.43,0.42c0.13,0.21,0.23,0.42,0.3,0.65c0.14,0.36,0.16,0.5,0.05,0.42
					c-0.1-0.01-0.2-0.08-0.32-0.2c-0.11-0.12-0.26-0.29-0.44-0.5c-0.09-0.1-0.17-0.18-0.26-0.24c-0.09-0.05-0.17-0.1-0.26-0.15
					c-0.17-0.1-0.32-0.1-0.46-0.01c-0.2,0.15-0.4,0.28-0.59,0.42c-0.11,0.12-0.41,0.17-0.9,0.15c0.26,0.01,0.21,0-0.15-0.04
					c-0.22-0.12-0.4-0.23-0.53-0.34c-0.1-0.1-0.19-0.18-0.3-0.25c-0.09-0.08-0.15-0.09-0.18-0.04c-0.04,0.02-0.09,0.06-0.14,0.12
					c-0.09,0.05-0.12,0.11-0.11,0.17c0.01,0.06,0.03,0.1,0.05,0.14c0.02,0.04,0.05,0.09,0.09,0.16l0.16,0.13
					c1.35,1.07,1.75,1.5,1.2,1.29C137.3,57.4,136.83,57.17,136.45,56.92z"/>
				<path class="st0" d="M140.66,53.73l0.41,0.26c0.37,0.33,0.32,0.49-0.15,0.51c0.05,0.16,0.1,0.34,0.15,0.53l-0.47-0.64
					c-0.46-0.15-1.08-0.39-1.84-0.72l-1.13-0.41c-0.51-0.19-0.91-0.36-1.2-0.52c-0.09-0.06-0.15-0.14-0.17-0.25
					c-0.01-0.12-0.01-0.21-0.02-0.27c0-0.04,0.02-0.12,0.04-0.23c0.01-0.06,0.03-0.12,0.05-0.17c0.15-0.26,0.33-0.43,0.56-0.52
					c0.33-0.14,0.69-0.19,1.07-0.16c0.16,0.03,0.3,0.06,0.43,0.09c0.19,0.08,0.36,0.15,0.53,0.23c0.28,0.15,0.54,0.36,0.77,0.65
					c0.3,0.36,0.54,0.73,0.74,1.12C140.49,53.37,140.57,53.54,140.66,53.73z M140.01,53.58l-0.11-0.15
					c-0.19-0.32-0.42-0.6-0.68-0.85c-0.19-0.22-0.4-0.39-0.62-0.5c-0.22-0.12-0.46-0.19-0.72-0.24c-0.29-0.03-0.52-0.02-0.69,0.02
					c-0.18,0.04-0.3,0.14-0.34,0.3c-0.03,0.17,0,0.26,0.1,0.28c0.23,0.09,0.64,0.23,1.23,0.42l0.85,0.32
					C139.44,53.33,139.76,53.46,140.01,53.58z"/>
				<path class="st0" d="M144.32,56.31c0.06,0.02,0.13,0.04,0.2,0.07c0.22,0.28,0.45,0.46,0.67,0.55c0.33,0.21,0.74,0.31,1.23,0.3
					l0.42,0c0.21,0.06,0.27,0.29,0.19,0.69l-0.43,2.46c-0.02,0.14-0.06,0.24-0.11,0.31c-0.05,0.07-0.13,0.1-0.21,0.1
					c-0.1-0.05-0.2-0.12-0.3-0.23l-0.16-0.18l-0.14-0.32c0.16,0.02,0.26-0.01,0.29-0.09l0.37-2.13l-0.47-0.11
					c-0.3-0.04-0.58-0.13-0.82-0.25c-0.21-0.09-0.44-0.22-0.68-0.4l-0.25-0.14l-0.55,2.09c0.16,0.11,0.3,0.26,0.41,0.43
					c0.11,0.22,0.12,0.43,0.04,0.63l-0.07,0.17c-0.08,0.14-0.21,0.27-0.4,0.39l-0.23,0.14l-0.3,0.1c-0.13,0.02-0.24,0.01-0.34-0.03
					c-0.07-0.04-0.14-0.11-0.2-0.2c-0.02-0.03-0.03-0.08-0.05-0.13c-0.01-0.05-0.01-0.11,0-0.18l0.19-1.17
					c-0.2-0.09-0.47-0.12-0.8-0.09l-0.64,0.14c0.41-0.51,0.92-0.71,1.55-0.6l0.14-0.72l0.26-0.31c0.13-0.59,0.28-0.98,0.45-1.19
					c0.11-0.14,0.29-0.19,0.54-0.15c-0.22-0.14-0.42-0.26-0.58-0.36c-0.07-0.06-0.16-0.12-0.26-0.19c-0.09-0.07-0.15-0.08-0.18-0.03
					c-0.04,0.03-0.08,0.07-0.13,0.12c-0.08,0.06-0.12,0.12-0.11,0.17s0.03,0.1,0.06,0.14c0.02,0.04,0.06,0.09,0.1,0.16l0.23,0.07
					l-0.07,0.24c-0.05,0.14-0.13,0.23-0.22,0.25c-0.09,0.02-0.21-0.01-0.35-0.12l-0.1-0.09c-0.12-0.17-0.18-0.38-0.18-0.62
					l-0.01-0.12c0.04-0.21,0.12-0.38,0.26-0.49c0.06-0.08,0.13-0.15,0.2-0.22c0.07-0.07,0.15-0.15,0.23-0.24
					c0.18,0,0.36,0.07,0.53,0.21c0.11,0.1,0.28,0.25,0.5,0.44c0.21,0.14,0.44,0.18,0.7,0.12c0.09-0.03,0.29-0.18,0.6-0.46
					c0.16-0.13,0.32-0.23,0.46-0.28c0.14-0.05,0.29-0.04,0.44,0.04c0.15,0.05,0.3,0.12,0.45,0.2c0.15,0.11,0.3,0.24,0.45,0.4
					c0.14,0.2,0.25,0.41,0.34,0.64c0.05,0.22,0.02,0.36-0.09,0.42c-0.05-0.01-0.11-0.08-0.2-0.19c-0.09-0.11-0.23-0.27-0.42-0.47
					c-0.09-0.1-0.18-0.18-0.28-0.23c-0.09-0.04-0.18-0.09-0.26-0.14c-0.17-0.09-0.32-0.09-0.46,0.01c-0.19,0.15-0.38,0.3-0.57,0.44
					C145.08,56.24,144.8,56.3,144.32,56.31z M143.38,59.58l-0.25,0.79l-0.04,0.14c0.14-0.18,0.25-0.33,0.34-0.47l0.05-0.12
					C143.57,59.8,143.54,59.69,143.38,59.58z M144.32,56.31c0.23,0,0.18-0.01-0.16-0.04C144.21,56.28,144.27,56.29,144.32,56.31z"/>
				<path class="st0" d="M143.58,63.12c-0.21,0.12-0.46,0.18-0.76,0.18c-0.33,0-0.56-0.07-0.68-0.21c-0.05-0.07-0.08-0.16-0.08-0.27
					c0-0.08,0.03-0.22,0.08-0.43c-0.22,0.01-0.4,0.07-0.54,0.18c0.11-0.33,0.33-0.53,0.67-0.59c0.2-0.54,0.34-0.85,0.42-0.93
					c0.18-0.09,0.45-0.11,0.8-0.07c0.13,0.01,0.28,0.03,0.45,0.05c0.13,0.01,0.27,0.02,0.39,0.04c0.29,0.04,0.58,0.1,0.86,0.18
					c0.28,0.08,0.68,0.21,1.2,0.37c0.18,0.12,0.27,0.28,0.29,0.47l-0.19,0.92c-0.03,0.09-0.06,0.17-0.09,0.25l-0.09,0.12
					c-0.33,0.14-0.58,0.01-0.74-0.42c0.17,0.11,0.27,0.1,0.3-0.03l0.08-0.22c0.05-0.18,0.06-0.33,0.04-0.45
					c0-0.11-0.12-0.23-0.37-0.35c-0.21-0.08-0.43-0.15-0.66-0.22c-0.23-0.07-0.46-0.12-0.69-0.15c-0.23-0.03-0.45-0.06-0.66-0.07
					c-0.2-0.02-0.37,0.01-0.5,0.09c-0.13,0.23-0.19,0.36-0.2,0.39c0.27,0,0.51,0.05,0.7,0.15c0.19,0.1,0.29,0.25,0.29,0.45
					C143.89,62.81,143.79,63,143.58,63.12z M142.77,62.41l-0.07,0.23c-0.04,0.14,0,0.21,0.12,0.21c0.2,0,0.3-0.02,0.29-0.07
					c0.1-0.05,0.15-0.12,0.15-0.22c0-0.05-0.05-0.09-0.14-0.11c0.01-0.02-0.07-0.04-0.27-0.04H142.77z"/>
				<path class="st0" d="M155.55,59.65c-0.33,0.94-0.82,1.41-1.47,1.41c-0.26,0-0.66-0.21-1.2-0.64c-0.26-0.2-0.52-0.3-0.78-0.3
					c-0.3,0-0.63,0.13-0.98,0.39c0.29-0.89,0.85-1.34,1.66-1.34c0.12,0,0.41,0.16,0.86,0.47c0.45,0.32,0.78,0.47,0.98,0.47
					c0.19,0,0.36-0.05,0.5-0.15C155.26,59.85,155.4,59.75,155.55,59.65z"/>
				<path class="st0" d="M163.33,56.57l-0.01,0v0l-0.26-0.34l-0.22-0.37c-0.09-0.2-0.14-0.44-0.15-0.71
					c0.2-0.53,0.58-0.63,1.13-0.32c0.2,0.19,0.41,0.42,0.62,0.67c0.8,1.06,0.88,1.33,0.25,0.82c-0.63-0.51-1.02-0.82-1.16-0.91
					c-0.14-0.09-0.21-0.04-0.2,0.15c0.11,0.16,0.2,0.3,0.29,0.42c0.22-0.37,0.34-0.19,0.37,0.54v0.07c0.36,0.59,0.37,0.7,0.01,0.34
					l-0.75,3.54c-0.05,0.2-0.17,0.33-0.37,0.39c-0.2,0.06-0.41-0.02-0.63-0.23c-0.25-0.13-0.69-0.14-1.31-0.02
					c-0.78,0.19-1.28,0.25-1.51,0.17c-0.24-0.01-0.41-0.09-0.52-0.26c-0.11-0.17-0.15-0.43-0.13-0.78c0.04-0.58,0.13-1.15,0.29-1.73
					c0.19-0.62,0.38-1.07,0.58-1.34l-0.22-0.23l-0.21-0.33c-0.1-0.18-0.15-0.4-0.15-0.67c0.27-0.65,0.68-0.83,1.23-0.52
					c0.27,0.22,0.48,0.39,0.61,0.52c1.24,1.37,1.46,1.78,0.68,1.23c-0.78-0.55-1.3-0.91-1.56-1.08c-0.25-0.17-0.35-0.12-0.28,0.17
					c0.1,0.15,0.19,0.26,0.25,0.35c0.47-0.44,0.61-0.21,0.42,0.7c0.36,0.58,0.31,0.67-0.16,0.28c-0.42,0.82-0.64,1.64-0.66,2.45
					c-0.08,0.44,0.14,0.6,0.64,0.46c0.51-0.13,0.99-0.2,1.45-0.21c0.28-0.02,0.52,0.03,0.72,0.14c0.1,0.06,0.17-0.02,0.21-0.23
					L163.33,56.57z M164.16,59.58c1.41,1.03,1.34,1.2-0.21,0.51l-2.88-1.64c-0.39-0.55-0.19-0.68,0.61-0.41L164.16,59.58z"/>
				<path class="st0" d="M166.95,57.89c0.03-0.1,0.02-0.19-0.03-0.27c-0.18-0.26-0.03-0.32,0.46-0.18c0.18,0.09,0.29,0.25,0.31,0.48
					c-0.02,0.27-0.06,0.56-0.14,0.88c0.01,0,0.07,0.02,0.18,0.07c0.11,0.04,0.24,0.12,0.4,0.23c0.16,0.11,0.33,0.26,0.51,0.44
					c0.33,0.25,0.56,0.4,0.71,0.44c0.15,0.05,0.3,0.01,0.45-0.11c0.33-0.35,0.51-0.76,0.55-1.24c-0.22,0.01-0.45-0.02-0.69-0.09
					c-0.48-0.15-0.9-0.33-1.25-0.54c-0.39-0.2-0.72-0.41-1-0.61c-0.2-0.13-0.35-0.32-0.44-0.58c-0.11-0.31-0.14-0.57-0.07-0.8
					c0.05-0.37,0.25-0.67,0.58-0.91c0.33-0.24,0.78-0.33,1.34-0.27c0.39,0.06,0.74,0.15,1.06,0.28c0.48,0.19,0.84,0.5,1.1,0.92
					c0.18,0.36,0.24,0.68,0.18,0.96c-0.23,0.39-0.63,0.55-1.19,0.47c-0.73-0.23-1.15-0.61-1.26-1.14c0.02-0.23,0.13-0.41,0.32-0.53
					c0.01,0.12,0.11,0.29,0.32,0.51l0.35,0.21c0.77,0.27,0.95,0.18,0.56-0.29c-0.56-0.4-1.04-0.62-1.44-0.67
					c-0.4-0.04-0.73,0.01-0.98,0.17c-0.17,0.18-0.28,0.35-0.31,0.51c-0.04,0.11-0.03,0.24,0.04,0.39c0.04,0.1,0.16,0.21,0.35,0.34
					c0.17,0.13,0.43,0.3,0.78,0.48c0.56,0.33,1.12,0.51,1.68,0.54c0.54-0.19,0.78,0.02,0.72,0.62c0.01,0.17-0.08,0.5-0.26,1
					c-0.32,0.7-0.75,1.09-1.29,1.15c-0.31,0.08-0.65-0.05-1.01-0.39c-0.26-0.23-0.51-0.44-0.77-0.65c-0.19-0.12-0.33-0.17-0.43-0.17
					l-0.1,0.34c-0.06,0.36-0.17,0.67-0.32,0.94c-0.11,0.1-0.27,0.13-0.5,0.09c-0.12-0.02-0.21-0.11-0.28-0.28
					c-0.09-0.16-0.15-0.4-0.16-0.74c-0.01-0.33,0.05-0.59,0.19-0.77c0.12-0.13,0.25-0.22,0.39-0.27l0.16-0.01L166.95,57.89z
					 M166.35,59.86l-0.04,0.43l0.26-0.8c-0.04-0.01-0.08,0.02-0.11,0.07C166.41,59.64,166.38,59.74,166.35,59.86z"/>
				<path class="st0" d="M169.4,65.68c-0.26-0.11-0.47-0.42-0.62-0.93c0.26,0.26,0.41,0.21,0.45-0.15c0.02-0.08,0.04-0.17,0.06-0.27
					l0.34-1.75c-0.36-0.99-0.18-1.56,0.53-1.71c0.33,0.17,0.41,0.53,0.25,1.09c-0.01,0.07-0.02,0.16-0.04,0.26l-0.46,2.47
					C169.83,65.34,169.66,65.68,169.4,65.68z"/>
				<path class="st0" d="M173.62,58.57l0.19-0.89c0.07-0.39,0.18-0.77,0.35-1.14c0.27-0.4,0.53-0.6,0.79-0.62
					c0.19,0,0.37,0.01,0.53,0.04c0.13,0.04,0.26,0.09,0.39,0.14c0.29,0.1,0.49,0.19,0.58,0.26c0.29,0.14,0.58,0.31,0.86,0.51
					c0.18,0.11,0.37,0.27,0.6,0.48c0.17,0.19,0.25,0.41,0.22,0.67l-0.47,1.96l0.44-0.24c0.42-0.16,0.81-0.18,1.15-0.07
					c0.13,0.07,0.24,0.19,0.32,0.38c0.03-0.05,0.06-0.16,0.11-0.33l0.74-3.14l-0.25-0.34l-0.33-0.46c-0.13-0.2-0.19-0.42-0.15-0.67
					c0.29-0.5,0.71-0.58,1.26-0.26c0.25,0.16,0.52,0.37,0.81,0.65c0.68,0.85,0.7,1.07,0.06,0.67c-0.64-0.4-1.03-0.65-1.17-0.74
					c-0.14-0.09-0.24-0.06-0.28,0.09c0.13,0.21,0.25,0.38,0.36,0.49c0.22-0.37,0.37-0.16,0.44,0.63c0.44,0.68,0.41,0.82-0.08,0.44
					l-0.78,3.48c-0.36,0.28-0.7,0.3-1.01,0.04c-0.13-0.31-0.41-0.39-0.84-0.25l-0.53,0.2l-0.19,0.09l-0.19,0.1
					c-0.08,0.04-0.15,0.05-0.22,0.06l-0.25,0.01c-0.1,0-0.18-0.03-0.24-0.1c-0.12-0.1-0.16-0.29-0.13-0.58l0.42-1.75
					c0.04-0.25,0.07-0.43,0.08-0.54c-0.1-0.2-0.24-0.36-0.43-0.47c-0.17-0.13-0.35-0.26-0.56-0.39c-0.13-0.07-0.27-0.13-0.41-0.16
					c-0.22-0.08-0.43-0.1-0.64-0.05c-0.16,0.05-0.28,0.16-0.37,0.32c-0.1,0.18-0.16,0.41-0.19,0.68l-0.14,0.66l-0.04,0.16
					c0.3,0.07,0.51,0.19,0.6,0.36c0.1,0.18,0.13,0.4,0.08,0.66c-0.04,0.3-0.19,0.58-0.44,0.86c-0.15,0.18-0.38,0.31-0.68,0.38
					c-0.2,0.05-0.39-0.01-0.56-0.16c-0.09-0.17-0.12-0.35-0.08-0.54c0.01-0.13,0.02-0.28,0.05-0.46l0.13-0.65
					c-0.15,0.01-0.3,0.03-0.46,0.06c-0.78,0.32-0.84,0.23-0.19-0.27C173.13,58.68,173.37,58.6,173.62,58.57z M177.06,55.65
					l0.91,0.75c0.61,0.5,0.28,0.47-1-0.08c-1.28-0.55-1.93-0.67-1.95-0.34l0.49,0.62c0.58,0.71,0.38,0.75-0.6,0.12
					c-0.69-0.47-1.01-0.92-0.94-1.38c0.12-0.32,0.39-0.5,0.82-0.53c0.27,0,0.56,0.04,0.85,0.13
					C176.16,55.15,176.64,55.39,177.06,55.65z M174.32,59.14l-0.18,0.76c-0.04,0.12-0.07,0.26-0.09,0.41c0.07,0,0.13-0.03,0.19-0.09
					c0.1-0.06,0.18-0.15,0.23-0.28c0.08-0.13,0.12-0.28,0.12-0.44c0.01-0.24-0.07-0.37-0.23-0.39L174.32,59.14z"/>
				<path class="st0" d="M183.47,64.55c-0.16,0.27-0.43,0.39-0.8,0.37c-0.48-0.02-1.07-0.02-1.77-0.01
					c-0.7,0.01-1.19,0.01-1.47-0.01c-0.24-0.11-0.35-0.34-0.32-0.69l0.42-2.05c0.07-0.23,0-0.36-0.21-0.38
					c-0.21-0.02-0.06-0.16,0.44-0.41c0.43-0.04,0.68,0.06,0.75,0.3c-0.03,0.17-0.09,0.43-0.16,0.8l-0.25,1.44
					c-0.13,0.24,0.76,0.29,2.68,0.18l1.32-6.75c0.53-1.51,0.78-1.55,0.76-0.11L183.47,64.55z M185.1,61.08
					c1.55,1.81,1.39,1.92-0.48,0.32l-1.87-1.68c-0.03-0.33,0.14-0.48,0.53-0.43L185.1,61.08z M184.49,57.58l-0.63-0.64l-0.35-0.44
					c-0.16-0.26-0.21-0.47-0.18-0.64c0.02-0.24,0.07-0.41,0.18-0.52c0.1-0.19,0.22-0.32,0.39-0.38c0.55-0.1,1.12,0.19,1.72,0.87
					c0.99,1.19,1.11,1.49,0.35,0.9c-0.76-0.59-1.3-0.89-1.62-0.91c-0.31-0.02-0.39,0.11-0.21,0.38c0.17,0.27,0.34,0.51,0.5,0.71
					c0.16,0.2,0.31,0.43,0.46,0.69C185.25,57.86,185.05,57.85,184.49,57.58z"/>
				<path class="st0" d="M188.27,57.15l-0.25,1.27c0.16-0.05,0.33,0.02,0.51,0.23c0.19,0.21,0.43,0.51,0.74,0.9
					c0.28,0.32,0.53,0.52,0.73,0.6c0.06,0.03,0.13-0.01,0.2-0.12c0.05-0.17,0.19-0.81,0.44-1.91c0.05-0.33,0.12-0.63,0.21-0.89
					c-0.08,0.01-0.19,0.11-0.35,0.29c-0.12,0.26-0.08,0.52,0.12,0.79c-0.47,0.01-0.69-0.27-0.64-0.82c0.14-0.55,0.47-0.82,0.97-0.82
					c0.41,0,0.62,0.18,0.63,0.54c-0.05,0.19-0.09,0.38-0.12,0.55l-0.33,1.59c-0.1,0.47-0.2,0.84-0.32,1.1
					c-0.08,0.27-0.24,0.41-0.48,0.42c-0.19,0.02-0.41-0.02-0.63-0.14c-0.23-0.12-0.47-0.3-0.71-0.56c-0.25-0.26-0.41-0.47-0.49-0.64
					c-0.14-0.22-0.26-0.36-0.34-0.43c-0.09-0.06-0.17-0.05-0.26,0.04l-0.04,0.21l-0.15,0.78c-0.08,0.52-0.21,0.79-0.41,0.8
					c-0.2,0.02-0.33-0.05-0.39-0.21l0.01-0.58c0.02-0.35,0.04-0.63,0.06-0.84c0.04-0.34,0.15-0.58,0.34-0.71l0.37-1.58
					C188.16,55.72,188.36,55.76,188.27,57.15z M187.62,56.78c-0.12-0.09-0.26-0.18-0.4-0.29l-0.09-0.09
					c-0.17-0.2-0.24-0.41-0.21-0.63l0.03-0.11c0.04-0.21,0.13-0.37,0.27-0.48c0.06-0.07,0.13-0.15,0.2-0.22
					c0.07-0.07,0.15-0.15,0.23-0.23c0.19,0,0.36,0.08,0.52,0.22c0.11,0.1,0.28,0.25,0.5,0.45c0.21,0.15,0.44,0.19,0.69,0.14
					c0.09-0.03,0.29-0.18,0.6-0.45c0.17-0.13,0.33-0.22,0.47-0.27c0.15-0.05,0.29-0.03,0.44,0.05c0.15,0.06,0.3,0.13,0.45,0.21
					c0.15,0.11,0.3,0.25,0.44,0.41c0.13,0.2,0.24,0.42,0.32,0.64c0.15,0.36,0.17,0.5,0.06,0.42c-0.1-0.01-0.21-0.07-0.32-0.18
					c-0.12-0.12-0.27-0.28-0.45-0.48c-0.09-0.1-0.18-0.18-0.27-0.23c-0.09-0.04-0.18-0.09-0.26-0.14c-0.17-0.1-0.32-0.09-0.46,0
					c-0.2,0.15-0.39,0.3-0.58,0.44c-0.1,0.13-0.4,0.18-0.9,0.18c0.26,0.01,0.21-0.01-0.15-0.04c-0.22-0.11-0.4-0.22-0.53-0.33
					c-0.1-0.09-0.2-0.17-0.31-0.24c-0.09-0.07-0.15-0.08-0.18-0.03c-0.04,0.02-0.09,0.06-0.14,0.12c-0.08,0.06-0.12,0.12-0.11,0.17
					c0.01,0.06,0.03,0.1,0.05,0.14c0.02,0.04,0.06,0.09,0.09,0.16l0.17,0.13c1.19,1,1.55,1.41,1.09,1.23
					C188.43,57.23,188.01,57.02,187.62,56.78z"/>
				<path class="st0" d="M198.54,56.57l-0.01,0v0l-0.26-0.34l-0.22-0.37c-0.09-0.2-0.14-0.44-0.15-0.71
					c0.2-0.53,0.58-0.63,1.13-0.32c0.2,0.19,0.41,0.42,0.62,0.67c0.8,1.06,0.88,1.33,0.25,0.82c-0.63-0.51-1.02-0.82-1.16-0.91
					c-0.14-0.09-0.21-0.04-0.2,0.15c0.11,0.16,0.2,0.3,0.29,0.42c0.22-0.37,0.34-0.19,0.37,0.54v0.07c0.36,0.59,0.37,0.7,0.01,0.34
					l-0.75,3.54c-0.05,0.2-0.17,0.33-0.37,0.39c-0.2,0.06-0.41-0.02-0.63-0.23c-0.25-0.13-0.69-0.14-1.31-0.02
					c-0.78,0.19-1.28,0.25-1.51,0.17c-0.24-0.01-0.41-0.09-0.52-0.26c-0.11-0.17-0.15-0.43-0.13-0.78c0.04-0.58,0.13-1.15,0.29-1.73
					c0.19-0.62,0.38-1.07,0.58-1.34l-0.22-0.23l-0.21-0.33c-0.1-0.18-0.15-0.4-0.15-0.67c0.27-0.65,0.68-0.83,1.23-0.52
					c0.27,0.22,0.48,0.39,0.61,0.52c1.24,1.37,1.46,1.78,0.68,1.23c-0.78-0.55-1.3-0.91-1.56-1.08c-0.25-0.17-0.35-0.12-0.28,0.17
					c0.1,0.15,0.19,0.26,0.25,0.35c0.47-0.44,0.61-0.21,0.42,0.7c0.36,0.58,0.31,0.67-0.16,0.28c-0.42,0.82-0.64,1.64-0.66,2.45
					c-0.08,0.44,0.14,0.6,0.64,0.46c0.51-0.13,0.99-0.2,1.45-0.21c0.28-0.02,0.52,0.03,0.72,0.14c0.1,0.06,0.17-0.02,0.21-0.23
					L198.54,56.57z M199.36,59.58c1.41,1.03,1.34,1.2-0.21,0.51l-2.88-1.64c-0.39-0.55-0.19-0.68,0.61-0.41L199.36,59.58z"/>
				<path class="st0" d="M198.2,54.44c-0.21,0.07-0.44,0.03-0.69-0.12c0.15-0.03,0.24-0.1,0.27-0.2c0.04-0.22-0.12-0.34-0.49-0.37
					c-0.36-0.03-0.72-0.03-1.07,0c-0.35,0.03-0.61,0.04-0.8,0.04c-0.22-0.09-0.34-0.17-0.36-0.24c-0.03-0.07-0.05-0.16-0.08-0.27
					c-0.01-0.48,0.41-0.75,1.23-0.82c0.39,0.01,0.71,0.06,0.95,0.15s0.44-0.02,0.58-0.33c0.16-0.27,0.3-0.54,0.43-0.8
					c0.19-0.35,0.34-0.57,0.48-0.66c0.19-0.15,0.41-0.24,0.63-0.27c0.22-0.03,0.43,0.02,0.62,0.15c0.17,0.15,0.29,0.33,0.33,0.53
					c0.05,0.2,0.03,0.46-0.07,0.78l-0.13-0.4c-0.19-0.31-0.45-0.44-0.76-0.4c-0.18,0-0.39,0.18-0.64,0.53l-0.51,0.95
					c-0.19,0.4-0.42,0.58-0.69,0.55l-0.36-0.13c-0.22-0.09-0.45-0.13-0.69-0.13c-0.63,0-0.88,0.14-0.73,0.41
					c0.5-0.07,0.89-0.11,1.15-0.1c0.23,0.01,0.48,0.03,0.75,0.06c0.45,0.07,0.73,0.21,0.82,0.45
					C198.48,54.07,198.42,54.29,198.2,54.44z"/>
			</g>
		</g>
		<g>
			<g>
				<path class="st0" d="M75.31,28.34c-0.35,0.77-0.55,1.62-0.59,2.52c-0.04,0.91,0.04,1.63,0.25,2.16c0.2,0.54,0.48,0.89,0.82,1.07
					c0.34,0.18,0.65,0.15,0.93-0.09c0.28-0.24,0.33-0.61,0.14-1.1s-0.66-0.84-1.42-1.02l1.15-2.85c1.44,0.01,2.16,1.19,2.16,3.56
					c-0.38,3.29-1.74,4.94-4.09,4.94c-2.58-0.44-3.88-2.45-3.9-6.01c0-1.04,0.16-1.91,0.47-2.63c0.31-0.72,0.84-1.44,1.57-2.16
					c-1.41-0.48-2.08-1.78-2.03-3.9c0.27-2.58,1.08-3.87,2.43-3.88h4.45c0.18,0,0.27,0.14,0.27,0.41v3.41h-4.53
					c0.16,0.96,1.59,1.91,4.29,2.85C76.45,26.65,75.66,27.56,75.31,28.34z"/>
				<path class="st0" d="M85.8,34.38c-0.01,1.02-0.11,1.77-0.3,2.26c-0.19,0.49-0.86,0.78-2.01,0.87c-1.26-0.18-1.91-0.99-1.96-2.44
					c-0.88-0.05-1.46-0.93-1.73-2.63c0.43-1,1.04-1.5,1.83-1.51v-2.08c0.06-0.75,0.66-1.46,1.79-2.14c-1.59-0.48-2.4-1.6-2.43-3.37
					c0-2.93,1.03-4.4,3.09-4.41h11.48c0.15,0,0.26,0.03,0.32,0.08c0.05,0.05,0.08,0.12,0.08,0.2v3.54H83.74
					c0,0.96,1.34,1.91,4.02,2.85c-1.27,0.81-1.91,1.72-1.91,2.71v2.71h0.54c0.55,0.01,1.12,0.16,1.7,0.45s1.29,0.89,2.11,1.81
					c1.16-0.1,1.73-1.42,1.7-3.97c0.01-1.49-0.1-2.38-0.32-2.67s-0.4-0.3-0.55-0.03c-0.15,0.27,0.04,0.94,0.56,2l-1.42,1.9
					c-1.4-0.41-2.04-1.53-1.92-3.37c0.14-0.77,0.46-1.39,0.96-1.85c0.5-0.46,1.15-0.77,1.96-0.92c1.54-0.01,2.73,0.49,3.58,1.5
					c0.52,0.68,0.88,1.52,1.09,2.51c0.34,1.43,0.23,3.22-0.32,5.36c-0.97,2.52-2.83,3.77-5.58,3.73c-0.56-1.11-1.09-1.9-1.59-2.38
					s-1.05-0.72-1.63-0.72H85.8z M95.98,20.84c0.53-0.53,0.97-1.17,1.33-1.91h5.54c1.6,0.01,2.41,0.92,2.43,2.75v12.01
					c0,0.44,0.3,0.63,0.9,0.56c0,2.12-0.87,3.21-2.62,3.27c-1.66-0.09-2.5-0.98-2.5-2.68V22.76h-5.08V20.84z"/>
				<path class="st0" d="M91.58,39.95v-0.37c0-0.66,0.61-0.99,1.82-1h1.7l0.92,0.5l-0.25,0.49v0.37h0.49c0.24,0,0.45,0.17,0.62,0.52
					c0.27,0.88,0.18,1.59-0.27,2.12c-0.15-0.18-0.31-0.27-0.48-0.27h-0.37v1.11h0.88v2.36l-0.57,0.94
					c-0.29,0.79-0.98,1.18-2.06,1.18c-1.62,0-2.43-0.44-2.43-1.31V45.8c-1.12,1.27-2.54,1.95-4.26,2.02
					c-3.7-0.01-5.55-1.26-5.55-3.74v-3.01c-0.01-0.92,0.28-1.4,0.88-1.45c0.25,0.21,0.61,0.32,1.09,0.33H91.58z M86.09,43.96
					c0.4,1.31,1.68,1.13,3.85-0.53l1.65-0.01v-1.13h-5.5V43.96z"/>
				<path class="st0" d="M112.72,22.76c0,1.12,0.68,1.62,2.03,1.51c1.73-0.27,3.35-0.31,4.86-0.13c1.48,0.18,2.9,0.66,4.26,1.43
					v8.19c0,0.59,0.35,0.8,1.06,0.62c0,2.09-0.91,3.13-2.72,3.13c-1.8,0-2.69-0.81-2.68-2.42v-8.07c-0.36-0.5-0.99-0.74-1.87-0.74
					c-0.97,0-1.82,0.38-2.55,1.14c-0.73,0.76-1.21,1.71-1.45,2.83c-0.24,1.13-0.19,2,0.15,2.63c0.34,0.62,0.67,1.02,1.02,1.2
					s0.61,0.17,0.8-0.03c0.19-0.19,0.24-0.56,0.14-1.1c-0.1-0.54-0.53-0.9-1.29-1.09l1.29-2.85c1.44,0.01,2.16,1.19,2.16,3.56
					c-0.56,3.29-1.9,4.94-4.04,4.94h-0.32c-2.84-0.44-4.27-2.45-4.3-6.01c0-2.02,0.86-3.88,2.59-5.59
					c-1.73-0.27-2.59-1.42-2.59-3.43c1.15-2.37,2.01-3.56,2.59-3.56h11.64c0.22,0,0.33,0.09,0.33,0.28v3.27
					c0,0.19-0.11,0.28-0.33,0.28H112.72z"/>
				<path class="st0" d="M130.9,18.93v-0.65c0-0.27-0.15-0.4-0.45-0.4V17.1c0-0.51,0.25-0.77,0.76-0.78h1.29
					c0.77,0,1.15,0.45,1.15,1.35v4.69h-0.01c-0.07,0.27-0.27,0.4-0.58,0.4h-1.83c1.73,1.71,2.6,4.48,2.6,8.31
					c0,4.32-0.9,6.47-2.71,6.45c-1.11,0-1.93-0.35-2.46-1.06s-0.8-1.91-0.8-3.6l2.26-1.99c0.35,1.67,0.77,2.51,1.26,2.52
					c0.49,0,0.73-0.33,0.73-1.02c0-1.31-1.06-3.42-3.17-6.35c-0.99-1.27-1.13-2.81-0.42-4.63c0.48-1.64,1.01-2.46,1.59-2.46H130.9z"
					/>
				<path class="st0" d="M134.17,13.1c0.04-1.03-0.17-1.62-0.65-1.79c0.17-1.22,0.69-1.73,1.57-1.54c1.47,0.43,1.62,1.9,0.46,4.41
					c-0.12,0.23-0.26,0.45-0.4,0.65l-0.69,1.45l-9.29-0.01c-1.54,0-2.34-0.92-2.39-2.76c0.32-2.55,1.99-3.82,5.02-3.82
					c1.88,0.1,3.41,0.63,4.59,1.59C133.11,11.89,133.7,12.5,134.17,13.1z M131.72,14.14c-0.97-1.06-2.02-1.59-3.15-1.59
					c-1.32,0-1.96,0.53-1.92,1.59H131.72z"/>
				<path class="st0" d="M137.81,29.55h4.59v1.79c1.04,1.64,2.24,2.59,3.59,2.85s2.02-0.13,2.01-1.19c0-1.02-1.7-2.4-5.11-4.15
					c-3.41-1.75-5.1-3.73-5.07-5.94c0-2.65,1.22-3.98,3.66-3.98h9.66c0.84,0.04,1.26,0.44,1.26,1.19v4.91c0,2-0.98,3-2.95,3
					c-0.91-0.69-1.69-1.47-2.34-2.34c0.57,0,0.85-0.35,0.85-1.06v-1.46h-5.52c0,1.64,1.64,3.15,4.92,4.55
					c3.28,1.39,4.93,3.29,4.93,5.67c-0.01,2.74-1.43,4.12-4.25,4.12c-2.14,0-4.08-0.84-5.83-2.52v1.46c0,0.71-0.72,1.06-2.15,1.06
					c-1.51,0-2.27-0.35-2.27-1.06V29.55z"/>
				<path class="st0" d="M160.93,28.34c-0.35,0.77-0.55,1.62-0.59,2.52c-0.04,0.91,0.04,1.63,0.25,2.16
					c0.2,0.54,0.48,0.89,0.82,1.07c0.34,0.18,0.65,0.15,0.93-0.09c0.28-0.24,0.33-0.61,0.14-1.1s-0.66-0.84-1.42-1.02l1.15-2.85
					c1.44,0.01,2.16,1.19,2.16,3.56c-0.38,3.29-1.74,4.94-4.09,4.94c-2.58-0.44-3.88-2.45-3.9-6.01c0-1.04,0.16-1.91,0.47-2.63
					c0.31-0.72,0.84-1.44,1.57-2.16c-1.41-0.48-2.08-1.78-2.03-3.9c0.27-2.58,1.08-3.87,2.43-3.88h4.45c0.18,0,0.27,0.14,0.27,0.41
					v3.41h-4.53c0.16,0.96,1.59,1.91,4.29,2.85C162.07,26.65,161.29,27.56,160.93,28.34z"/>
				<path class="st0" d="M187.14,18.93c1.6,0.01,2.41,0.92,2.43,2.75v12.01c0,0.44,0.3,0.63,0.9,0.56c0,2.12-0.87,3.21-2.62,3.27
					c-1.77-0.09-2.65-0.98-2.63-2.68V22.76h-3.62v10.94c0,0.44,0.3,0.63,0.9,0.56c0,2.12-0.87,3.21-2.62,3.27
					c-1.59-0.09-2.39-0.81-2.39-2.15c-1.09,1.42-2.59,2.14-4.51,2.15c-1.77,0-3.21-0.56-4.32-1.67c-1.11-1.11-1.66-2.7-1.65-4.77
					c0-1.59,0.68-3.05,2.03-4.37c-1.41-0.48-2.08-1.78-2.03-3.9c0.27-2.58,1.08-3.87,2.43-3.88h4.45c0.18,0,0.27,0.14,0.27,0.41
					v3.41h-4.53c0.16,0.96,1.54,1.91,4.16,2.85c-1.36,1.26-2.14,2.56-2.32,3.91c-0.18,1.35,0.01,2.31,0.56,2.89s1.28,0.94,2.18,1.08
					c0.89,0.14,1.62,0.05,2.17-0.26c0.55-0.31,0.85-0.83,0.88-1.55v-12.2c0.08-0.36,0.38-0.54,0.89-0.54H187.14z M189.57,20.84
					c0.53-0.53,0.97-1.17,1.33-1.91h5.54c1.6,0.01,2.41,0.92,2.43,2.75v12.01c0,0.44,0.3,0.63,0.9,0.56c0,2.12-0.87,3.21-2.62,3.27
					c-1.66-0.09-2.5-0.98-2.5-2.68V22.76h-5.08V20.84z"/>
				<path class="st0" d="M180.87,38.75c1.1-0.19,2.58-0.19,4.45,0c1.57,0.23,2.9,0.62,4,1.16v5.64c0,0.41,0.35,0.55,1.06,0.42
					c0,1.44-0.91,2.16-2.72,2.16c-1.79,0-2.68-0.73-2.68-2.19v-4.5c-0.36-0.34-0.9-0.52-1.61-0.52c-0.97,0-1.78,0.17-2.42,0.52
					s-1.08,0.91-1.31,1.69c-0.24,0.77-0.19,1.38,0.15,1.81c0.34,0.43,0.63,0.71,0.88,0.83c0.25,0.12,0.27,0.01,0.07-0.35
					c-0.21-0.35-0.29-0.8-0.25-1.33c0.04-0.53,0.34-0.98,0.88-1.35c0.81-0.5,1.86-0.42,3.16,0.27c-0.32,1.54-0.83,2.15-1.54,1.82
					c-0.88-0.05-1.03,0.44-0.42,1.47c-0.02,1.22-1.02,1.83-3.01,1.83c-2.66-0.04-4.05-1.42-4.17-4.14c0-1.39,0.72-2.68,2.15-3.86
					C178.66,39.4,179.77,38.94,180.87,38.75z"/>
			</g>
		</g>
	</g>
</g>
</svg>
